/* XPM */
static char * fade_volmax_xpm[] = {
"32 32 209 2",
"  	c None",
". 	c #3465A4",
"+ 	c #000000",
"@ 	c #232523",
"# 	c #090909",
"$ 	c #121212",
"% 	c #565854",
"& 	c #040403",
"* 	c #51524E",
"= 	c #0E0E0D",
"- 	c #474946",
"; 	c #000001",
"> 	c #3364A3",
", 	c #3365A4",
"' 	c #2E2E2C",
") 	c #535451",
"! 	c #383936",
"~ 	c #222321",
"{ 	c #030303",
"] 	c #040404",
"^ 	c #020508",
"/ 	c #3464A3",
"( 	c #555753",
"_ 	c #535551",
": 	c #4B4D49",
"< 	c #494B47",
"[ 	c #50524E",
"} 	c #272726",
"| 	c #1A1A19",
"1 	c #9C9D9A",
"2 	c #999A96",
"3 	c #676965",
"4 	c #131312",
"5 	c #151615",
"6 	c #03060A",
"7 	c #0F1D2F",
"8 	c #5B5D59",
"9 	c #6B6D69",
"0 	c #737471",
"a 	c #6D6E6A",
"b 	c #5E5F5B",
"c 	c #5A5B58",
"d 	c #5F605E",
"e 	c #C4C5C2",
"f 	c #BCBDBA",
"g 	c #71726F",
"h 	c #323431",
"i 	c #040A10",
"j 	c #555653",
"k 	c #6D6E6B",
"l 	c #AFAFAD",
"m 	c #CACBC8",
"n 	c #C0C1BE",
"o 	c #A0A29E",
"p 	c #666864",
"q 	c #636460",
"r 	c #969894",
"s 	c #C2C3C0",
"t 	c #EBECEA",
"u 	c #D1D1CF",
"v 	c #777975",
"w 	c #4D4F4A",
"x 	c #3365A3",
"y 	c #3265A4",
"z 	c #777875",
"A 	c #D5D5D4",
"B 	c #FEFEFC",
"C 	c #F3F3F1",
"D 	c #C1C2BF",
"E 	c #6A6C68",
"F 	c #676966",
"G 	c #B8B9B6",
"H 	c #EDEDEC",
"I 	c #FFFFFF",
"J 	c #DCDCDB",
"K 	c #7B7D79",
"L 	c #4D4F49",
"M 	c #3364A4",
"N 	c #787976",
"O 	c #DBDBD9",
"P 	c #D2D3D1",
"Q 	c #6D6F6B",
"R 	c #6B6D6A",
"S 	c #CECFCD",
"T 	c #DEDEDD",
"U 	c #7C7D7A",
"V 	c #4E4F4A",
"W 	c #767774",
"X 	c #D3D3D2",
"Y 	c #D1D2D1",
"Z 	c #6C6E6B",
"` 	c #6C6E6A",
" .	c #D0D0CF",
"..	c #D5D6D4",
"+.	c #797A77",
"@.	c #3464A4",
"#.	c #3465A3",
"$.	c #70726E",
"%.	c #BEBFBC",
"&.	c #E6E6E4",
"*.	c #E8E9E6",
"=.	c #BEC0BD",
"-.	c #696B67",
";.	c #696A67",
">.	c #BDBDBB",
",.	c #E8E8E6",
"'.	c #EBEBE9",
").	c #C2C2C0",
"!.	c #727370",
"~.	c #4C4E49",
"{.	c #535651",
"].	c #B2B3B0",
"^.	c #D5D6D3",
"/.	c #D8D8D5",
"(.	c #B3B4B1",
"_.	c #B3B3B1",
":.	c #DADAD8",
"<.	c #DDDDDB",
"[.	c #B8B8B6",
"}.	c #6E706C",
"|.	c #545652",
"1.	c #AEAFAC",
"2.	c #CFD0CD",
"3.	c #D2D3D0",
"4.	c #AFB0AD",
"5.	c #D9DAD7",
"6.	c #DCDCDA",
"7.	c #B7B8B5",
"8.	c #A9AAA7",
"9.	c #C9CAC7",
"0.	c #CCCDCA",
"a.	c #AAACA8",
"b.	c #656763",
"c.	c #B1B3AF",
"d.	c #D8D8D6",
"e.	c #B5B6B3",
"f.	c #A4A5A2",
"g.	c #C2C4C0",
"h.	c #C5C7C3",
"i.	c #A6A7A4",
"j.	c #636561",
"k.	c #B0B1AE",
"l.	c #D6D6D4",
"m.	c #D7D7D5",
"n.	c #3366A4",
"o.	c #BCBEBA",
"p.	c #BDBFBB",
"q.	c #9FA19D",
"r.	c #626460",
"s.	c #656764",
"t.	c #AAAAA8",
"u.	c #CFCFCD",
"v.	c #D4D4D2",
"w.	c #B2B2B0",
"x.	c #4D4E49",
"y.	c #3366A3",
"z.	c #686A66",
"A.	c #B7B9B5",
"B.	c #B3B5B1",
"C.	c #959793",
"D.	c #60625E",
"E.	c #9D9F9C",
"F.	c #B1B2AF",
"G.	c #898B87",
"H.	c #9A9C98",
"I.	c #828480",
"J.	c #3D3E3C",
"K.	c #868884",
"L.	c #A5A7A4",
"M.	c #5E5E5D",
"N.	c #152A47",
"O.	c #04080D",
"P.	c #0F1E31",
"Q.	c #09131F",
"R.	c #000102",
"S.	c #585A56",
"T.	c #101010",
"U.	c #5F625E",
"V.	c #7A7C78",
"W.	c #A6A6A4",
"X.	c #1E1E1D",
"Y.	c #4F514C",
"Z.	c #010204",
"`.	c #010305",
" +	c #244673",
".+	c #193353",
"++	c #4F514D",
"@+	c #4E504C",
"#+	c #51534F",
"$+	c #161616",
"%+	c #2F302E",
"&+	c #575756",
"*+	c #414241",
"=+	c #21416A",
"-+	c #04090F",
";+	c #050505",
">+	c #5A5C59",
",+	c #111111",
"'+	c #595B58",
")+	c #03060B",
"!+	c #04090E",
"~+	c #010203",
"{+	c #010101",
"]+	c #0D0D0D",
"^+	c #141514",
"/+	c #535552",
"(+	c #181918",
"_+	c #2E5A93",
":+	c #0C1928",
"                                                                ",
"                                                                ",
"                                                  .             ",
"        + + + +       + @       + + + +         + + + + +       ",
"        +           + # $ %     +       + +     +   . .         ",
"        +           & * = -     +         ;     +   > ,         ",
"        + + + +   = ' ) ! ~     +         +     + + + + + .     ",
"        +         { + + + ]     +         ^     +       / .     ",
"( _ : < + [     } | 1 2 3 4 5   +       6 7 > . +       / .     ",
"( 8 9 0 + a b c 4 d e f g h ]   + + + + i   > , + + + + + .     ",
"j k l m n o p q r s t u v w                 x x y         . .   ",
"j z A B C D E F G H I J K L                   M M         M M . ",
"_ N O I I P Q R S I I T U V       , .           M ,         M . ",
"_ W X I I Y Z `  .I I ..+.w       , , M         @.@.        #.. ",
"_ $.%.&.*.=.-.;.>.,.'.).!.~.        . M         . M         #.. ",
"{.Q ].^./.(.3 3 _.:.<.[.}.:         @.M         x M         #.. ",
"|.` 1.2.3.4.p 3 ].5.6.7.}.~.        M M         x M         #.. ",
"|.9 8.9.0.a.b.3 c.d.:.e.}.~.        x x         x @.        #.. ",
"|.E f.g.h.i.j.3 k.l.m.(.Q ~.      n.x #.        , @.        #.. ",
"|.-.o o.p.q.r.s.t.u.v.w.Q x.      , y.          M x         M . ",
"|.z.q.A.B.C.D.j.E.s 2.F.Q x.                  M M         M M . ",
"( j.G.H.C.I.+ J.K.L.D M.+ w     N.+       O.P.> , Q.R.    . .   ",
"|.S.r.p b.r.+ T.U.V.W.X.+ Y.    Z.`.+       O. +.+;     / .     ",
"|._ ++@+++#++ $+%+j.&+*++ #+    +   +       =+-+Z.      / .     ",
"            +   ;+>+,+'++ _   +       )+      !+~+      / .     ",
"            +   {+]+^+_ + (   + + + + +       ~++     , , .     ",
"            +     +   /++ ( (++       +     ;     Z._+,         ",
"            +           + ( ]           + + +     :+7 .         ",
"                                                  #.#..         ",
"                                                  .             ",
"                                                                ",
"                                                                "};
