/* XPM */
static char * fade_mute_xpm[] = {
"32 32 355 2",
"  	c None",
". 	c #000000",
"+ 	c #232523",
"@ 	c #090909",
"# 	c #121212",
"$ 	c #565854",
"% 	c #040403",
"& 	c #51524E",
"* 	c #0E0E0D",
"= 	c #474946",
"- 	c #2E2E2C",
"; 	c #535451",
"> 	c #383936",
", 	c #222321",
"' 	c #030303",
") 	c #040404",
"! 	c #555753",
"~ 	c #535551",
"{ 	c #4B4D49",
"] 	c #494B47",
"^ 	c #50524E",
"/ 	c #272726",
"( 	c #1A1A19",
"_ 	c #9C9D9A",
": 	c #999A96",
"< 	c #676965",
"[ 	c #131312",
"} 	c #151615",
"| 	c #5B5D59",
"1 	c #6B6D69",
"2 	c #737471",
"3 	c #6D6E6A",
"4 	c #5E5F5B",
"5 	c #5A5B58",
"6 	c #5F605E",
"7 	c #C4C5C2",
"8 	c #BCBDBA",
"9 	c #71726F",
"0 	c #323431",
"a 	c #555653",
"b 	c #6D6E6B",
"c 	c #AFAFAD",
"d 	c #CACBC8",
"e 	c #C0C1BE",
"f 	c #A0A29E",
"g 	c #666864",
"h 	c #636460",
"i 	c #969894",
"j 	c #C2C3C0",
"k 	c #EBECEA",
"l 	c #D1D1CF",
"m 	c #777975",
"n 	c #4D4F4B",
"o 	c #777875",
"p 	c #D5D5D4",
"q 	c #FEFEFC",
"r 	c #F3F3F1",
"s 	c #C1C2BF",
"t 	c #6A6C68",
"u 	c #676966",
"v 	c #B8B9B6",
"w 	c #EDEDEC",
"x 	c #FFFFFF",
"y 	c #DCDCDB",
"z 	c #7B7D79",
"A 	c #787976",
"B 	c #DBDBD9",
"C 	c #D2D3D1",
"D 	c #6D6F6B",
"E 	c #6B6D6A",
"F 	c #CECFCD",
"G 	c #DEDEDD",
"H 	c #7C7D7A",
"I 	c #4D504B",
"J 	c #767774",
"K 	c #D3D3D2",
"L 	c #D1D2D1",
"M 	c #6C6E6B",
"N 	c #6C6E6A",
"O 	c #D0D0CF",
"P 	c #D5D6D5",
"Q 	c #787B78",
"R 	c #4E4E49",
"S 	c #70726E",
"T 	c #BEBFBC",
"U 	c #E6E6E4",
"V 	c #E8E9E6",
"W 	c #BEC0BD",
"X 	c #696B67",
"Y 	c #696A67",
"Z 	c #BDBDBB",
"` 	c #E8E8E6",
" .	c #EBEBE9",
"..	c #C2C4C1",
"+.	c #717672",
"@.	c #514945",
"#.	c #A50000",
"$.	c #A20000",
"%.	c #A10000",
"&.	c #A30000",
"*.	c #535651",
"=.	c #B2B3B0",
"-.	c #D5D6D3",
";.	c #D8D8D5",
">.	c #B3B4B1",
",.	c #B3B3B1",
"'.	c #DADAD8",
").	c #DDDDDB",
"!.	c #B8BBB8",
"~.	c #6C7470",
"{.	c #554441",
"].	c #841918",
"^.	c #AE0000",
"/.	c #AC0000",
"(.	c #AB0000",
"_.	c #AA0000",
":.	c #A60000",
"<.	c #545652",
"[.	c #AEAFAC",
"}.	c #CFD0CD",
"|.	c #D2D3D0",
"1.	c #AFB0AD",
"2.	c #D9DAD7",
"3.	c #DCDCDA",
"4.	c #B7BBB8",
"5.	c #6B7773",
"6.	c #5B3F3C",
"7.	c #8D1110",
"8.	c #AF0000",
"9.	c #B90000",
"0.	c #BD0000",
"a.	c #BE0000",
"b.	c #BF0000",
"c.	c #BC0000",
"d.	c #B80000",
"e.	c #A90000",
"f.	c #A9AAA7",
"g.	c #C9CAC7",
"h.	c #CCCDCA",
"i.	c #AAACA8",
"j.	c #656763",
"k.	c #B1B3AF",
"l.	c #D8D8D6",
"m.	c #B5BAB7",
"n.	c #6A7874",
"o.	c #5D3D3A",
"p.	c #8F0E0D",
"q.	c #B00000",
"r.	c #C00000",
"s.	c #CB0909",
"t.	c #D02222",
"u.	c #D33232",
"v.	c #D43838",
"w.	c #D22A2A",
"x.	c #CB0B0B",
"y.	c #D53C3C",
"z.	c #D12929",
"A.	c #CE1717",
"B.	c #CA0505",
"C.	c #A4A5A2",
"D.	c #C2C4C0",
"E.	c #C5C7C3",
"F.	c #A6A7A4",
"G.	c #636561",
"H.	c #B0B1AE",
"I.	c #D6D6D4",
"J.	c #D7D7D5",
"K.	c #B3B8B5",
"L.	c #697773",
"M.	c #5D3E3A",
"N.	c #C20000",
"O.	c #D32121",
"P.	c #E37878",
"Q.	c #ECA8A8",
"R.	c #EFB2B2",
"S.	c #E68686",
"T.	c #D22222",
"U.	c #D32828",
"V.	c #E99696",
"W.	c #F0BABA",
"X.	c #E89494",
"Y.	c #DE5E5E",
"Z.	c #D21717",
"`.	c #BCBEBA",
" +	c #BDBFBB",
".+	c #9FA19D",
"++	c #626460",
"@+	c #656764",
"#+	c #AAAAA8",
"$+	c #CFCFCD",
"%+	c #D4D4D2",
"&+	c #B2B6B4",
"*+	c #697673",
"=+	c #8E0E0D",
"-+	c #B10000",
";+	c #C50000",
">+	c #DA3A3A",
",+	c #F0B2B2",
"'+	c #FCF1F1",
")+	c #FDF5F5",
"!+	c #F4C7C7",
"~+	c #E06767",
"{+	c #E16C6C",
"]+	c #F6D6D6",
"^+	c #FEFCFC",
"/+	c #F8DCDC",
"(+	c #EB9797",
"_+	c #D72B2B",
":+	c #686A66",
"<+	c #B7B9B5",
"[+	c #B3B5B1",
"}+	c #959793",
"|+	c #60625E",
"1+	c #9D9F9C",
"2+	c #B1B6B3",
"3+	c #697672",
"4+	c #8E0C0B",
"5+	c #C80E0E",
"6+	c #DF5454",
"7+	c #F6D0D0",
"8+	c #FBEFEF",
"9+	c #F6D8D8",
"0+	c #FCF4F4",
"a+	c #F3C0C0",
"b+	c #DB4242",
"c+	c #C30101",
"d+	c #A00000",
"e+	c #898B87",
"f+	c #9A9C98",
"g+	c #828480",
"h+	c #5E605C",
"i+	c #5F615D",
"j+	c #868884",
"k+	c #A5A7A4",
"l+	c #ADB1AE",
"m+	c #687571",
"n+	c #5E3E3B",
"o+	c #8E0C0C",
"p+	c #B20000",
"q+	c #DD4949",
"r+	c #EFADAD",
"s+	c #FAE7E7",
"t+	c #FDF9F9",
"u+	c #FCF6F6",
"v+	c #F8DDDD",
"w+	c #EC9E9E",
"x+	c #D93838",
"y+	c #C40303",
"z+	c #585A56",
"A+	c #595B57",
"B+	c #60635F",
"C+	c #7A7C78",
"D+	c #A4A8A5",
"E+	c #66736F",
"F+	c #5F403C",
"G+	c #8F0F0E",
"H+	c #D31717",
"I+	c #DB4747",
"J+	c #E78A8A",
"K+	c #F8DFDF",
"L+	c #F7DADA",
"M+	c #E27373",
"N+	c #D62F2F",
"O+	c #D10E0E",
"P+	c #C30000",
"Q+	c #4F514D",
"R+	c #4E504C",
"S+	c #51534F",
"T+	c #8E8E8C",
"U+	c #8B8F8C",
"V+	c #5F6C69",
"W+	c #60413E",
"X+	c #90100F",
"Y+	c #C40000",
"Z+	c #D21111",
"`+	c #D94141",
" @	c #E68585",
".@	c #F8DEDE",
"+@	c #D42727",
"@@	c #D00909",
"#@	c #5B5D5A",
"$@	c #686966",
"%@	c #646965",
"&@	c #54615D",
"*@	c #624340",
"=@	c #900F0F",
"-@	c #C60101",
";@	c #D93737",
">@	c #EB9A9A",
",@	c #F6D9D9",
"'@	c #FCF5F5",
")@	c #F3C7C7",
"!@	c #D62929",
"~@	c #525450",
"{@	c #515753",
"]@	c #4E5C58",
"^@	c #634541",
"/@	c #C60505",
"(@	c #FCF7F7",
"_@	c #F8E1E1",
":@	c #F8E2E2",
"<@	c #FEFFFF",
"[@	c #EFB3B3",
"}@	c #505855",
"|@	c #4E5D59",
"1@	c #634542",
"2@	c #8F1110",
"3@	c #C60304",
"4@	c #DC4848",
"5@	c #E89090",
"6@	c #E89393",
"7@	c #FAEAEA",
"8@	c #FCF8F8",
"9@	c #EFB1B1",
"0@	c #4C5F5B",
"a@	c #65423F",
"b@	c #920E0E",
"c@	c #C50101",
"d@	c #D93535",
"e@	c #EB9696",
"f@	c #F5C9C9",
"g@	c #F6CECE",
"h@	c #EDA4A4",
"i@	c #DB4C4C",
"j@	c #DC5050",
"k@	c #EFB0B0",
"l@	c #F7D3D3",
"m@	c #F1BBBB",
"n@	c #E78282",
"o@	c #D62828",
"p@	c #703534",
"q@	c #980808",
"r@	c #AD0000",
"s@	c #D93434",
"t@	c #DF5151",
"u@	c #DB4040",
"v@	c #D31616",
"w@	c #D31A1A",
"x@	c #DD4B4B",
"y@	c #E05858",
"z@	c #DB3F3F",
"A@	c #D62525",
"B@	c #D10B0B",
"C@	c #9D0304",
"D@	c #BA0000",
"E@	c #C30202",
"F@	c #C50606",
"G@	c #C60D0D",
"H@	c #C50909",
"I@	c #C71212",
"J@	c #A70000",
"K@	c #AC0202",
"L@	c #AC0101",
"M@	c #AC0303",
"N@	c #A40000",
"                                                                ",
"                                                                ",
"                                                                ",
"        . . . .       . +       . . . .         . . . . .       ",
"        .           . @ # $     .       . .     .               ",
"        .           % & * =     .         .     .               ",
"        . . . .   * - ; > ,     .         .     . . . . .       ",
"        .         ' . . . )     .         .     .               ",
"! ~ { ] . ^     / ( _ : < [ }   .       . .     .               ",
"! | 1 2 . 3 4 5 [ 6 7 8 9 0 )   . . . .         . . . . .       ",
"a b c d e f g h i j k l m n                                     ",
"a o p q r s t u v w x y z n                                     ",
"~ A B x x C D E F x x G H I                                     ",
"~ J K x x L M N O x x P Q R                                     ",
"~ S T U V W X Y Z `  ...+.@.    #.$.$.%.%.%.%.%.%.%.%.$.$.&.    ",
"*.D =.-.;.>.< < ,.'.).!.~.{.].^./.(.(._.(.(.(.(.(.(._.(.(._.:.&.",
"<.N [.}.|.1.g < =.2.3.4.5.6.7.8.9.0.0.0.a.a.a.a.b.a.0.c.0.d.e.$.",
"<.1 f.g.h.i.j.< k.l.'.m.n.o.p.q.r.s.t.u.v.w.s.x.u.y.z.A.B.a._.%.",
"<.t C.D.E.F.G.< H.I.J.K.L.M.p.q.N.O.P.Q.R.S.T.U.V.W.X.Y.Z.r.(.%.",
"<.X f `. +.+++@+#+$+%+&+*+M.=+-+;+>+,+'+)+!+~+{+]+^+/+(+_+N.(.%.",
"<.:+.+<+[+}+|+G.1+j }.2+3+o.4+-+5+6+7+x x 8+]+9+0+x x a+b+c+(.d+",
"! G.e+f+}+g+h+i+j+k+s l+m+n+o+p+5+q+r+s+t+x x x x u+v+w+x+y+(.d+",
"<.z+++g j.++5 A+B+C+#+D+E+F+G+-+;+H+I+J+K+x x x x L+M+N+O+P+(.%.",
"<.~ Q+R+Q+S+    n G.T+U+V+W+X+-+Y+Z+`+ @.@x x x x 9+{++@@@P+(.%.",
"                  #@$@%@&@*@=@-+-@;@>@,@'@x x x x 8+)@ @!@N.(.%.",
"                    ~@{@]@^@X+-+/@q+!+x x (@_@:@t+<@'@[@x+N.(.%.",
"                      }@|@1@2@-+3@4@!+x x _@5@6@7@x 8@9@;@N.(.%.",
"                        0@a@b@q.c@d@e@f@g@h@i@j@k@l@m@n@o@N.(.%.",
"                          p@q@r@P+Z+s@q+t@u@v@w@x@y@z@A@B@N.(.%.",
"                            C@_.D@N.E@F@G@H@P+P+I@I@Y+N.N.D@_.$.",
"                              J@_.(.(./.K@L@(.(.M@M@(.(.(._.J@N@",
"                              N@$.%.d+d+d+d+%.%.d+d+d+%.%.$.N@  "};
