/* XPM */
static char * fade_halfmax_xpm[] = {
"32 32 186 2",
"  	c None",
". 	c #000000",
"+ 	c #030303",
"@ 	c #090909",
"# 	c #0A0B0A",
"$ 	c #464744",
"% 	c #050504",
"& 	c #1B1B19",
"* 	c #545551",
"= 	c #373836",
"- 	c #232422",
"; 	c #010101",
"> 	c #161615",
", 	c #0F100F",
"' 	c #6D6E6B",
") 	c #696B67",
"! 	c #5A5C58",
"~ 	c #141413",
"{ 	c #161716",
"] 	c #555753",
"^ 	c #535551",
"/ 	c #4B4D49",
"( 	c #494B47",
"_ 	c #50524E",
": 	c #0B0B0A",
"< 	c #454644",
"[ 	c #9C9D9A",
"} 	c #999A96",
"| 	c #676965",
"1 	c #343532",
"2 	c #040404",
"3 	c #5B5D59",
"4 	c #6B6D69",
"5 	c #737471",
"6 	c #727470",
"7 	c #6D6E6A",
"8 	c #5E5F5B",
"9 	c #5A5B58",
"0 	c #656663",
"a 	c #878885",
"b 	c #C4C5C2",
"c 	c #BCBDBA",
"d 	c #71726F",
"e 	c #4D4F4B",
"f 	c #555653",
"g 	c #AFAFAD",
"h 	c #CACBC8",
"i 	c #C0C1BE",
"j 	c #A0A29E",
"k 	c #666864",
"l 	c #636460",
"m 	c #969894",
"n 	c #C2C3C0",
"o 	c #EBECEA",
"p 	c #D1D1CF",
"q 	c #777975",
"r 	c #4D4F4A",
"s 	c #777875",
"t 	c #D5D5D4",
"u 	c #FEFEFC",
"v 	c #F3F3F1",
"w 	c #C1C2BF",
"x 	c #6A6C68",
"y 	c #676966",
"z 	c #B8B9B6",
"A 	c #EDEDEC",
"B 	c #FFFFFF",
"C 	c #DCDCDB",
"D 	c #7B7D79",
"E 	c #4D4F49",
"F 	c #787976",
"G 	c #DBDBD9",
"H 	c #D2D3D1",
"I 	c #6D6F6B",
"J 	c #6B6D6A",
"K 	c #CECFCD",
"L 	c #DEDEDD",
"M 	c #7C7D7A",
"N 	c #4E4F4A",
"O 	c #3365A4",
"P 	c #3465A4",
"Q 	c #767774",
"R 	c #D3D3D2",
"S 	c #D1D2D1",
"T 	c #6C6E6B",
"U 	c #6C6E6A",
"V 	c #D0D0CF",
"W 	c #D5D6D4",
"X 	c #797A77",
"Y 	c #3364A4",
"Z 	c #70726E",
"` 	c #BEBFBC",
" .	c #E6E6E4",
"..	c #E8E9E6",
"+.	c #BEC0BD",
"@.	c #696A67",
"#.	c #BDBDBB",
"$.	c #E8E8E6",
"%.	c #EBEBE9",
"&.	c #C2C2C0",
"*.	c #727370",
"=.	c #4C4E49",
"-.	c #535651",
";.	c #B2B3B0",
">.	c #D5D6D3",
",.	c #D8D8D5",
"'.	c #B3B4B1",
").	c #B3B3B1",
"!.	c #DADAD8",
"~.	c #DDDDDB",
"{.	c #B8B8B6",
"].	c #6E706C",
"^.	c #3464A4",
"/.	c #545652",
"(.	c #AEAFAC",
"_.	c #CFD0CD",
":.	c #D2D3D0",
"<.	c #AFB0AD",
"[.	c #D9DAD7",
"}.	c #DCDCDA",
"|.	c #B7B8B5",
"1.	c #A9AAA7",
"2.	c #C9CAC7",
"3.	c #CCCDCA",
"4.	c #AAACA8",
"5.	c #656763",
"6.	c #B1B3AF",
"7.	c #D8D8D6",
"8.	c #B5B6B3",
"9.	c #3365A3",
"0.	c #A4A5A2",
"a.	c #C2C4C0",
"b.	c #C5C7C3",
"c.	c #A6A7A4",
"d.	c #636561",
"e.	c #B0B1AE",
"f.	c #D6D6D4",
"g.	c #D7D7D5",
"h.	c #3366A4",
"i.	c #3465A3",
"j.	c #BCBEBA",
"k.	c #BDBFBB",
"l.	c #9FA19D",
"m.	c #626460",
"n.	c #656764",
"o.	c #AAAAA8",
"p.	c #CFCFCD",
"q.	c #D4D4D2",
"r.	c #B2B2B0",
"s.	c #4D4E49",
"t.	c #3366A3",
"u.	c #686A66",
"v.	c #B7B9B5",
"w.	c #B3B5B1",
"x.	c #959793",
"y.	c #60625E",
"z.	c #9D9F9C",
"A.	c #B1B2AF",
"B.	c #898B87",
"C.	c #9A9C98",
"D.	c #828480",
"E.	c #5E605C",
"F.	c #5F615D",
"G.	c #868884",
"H.	c #A5A7A4",
"I.	c #ACADAA",
"J.	c #585A56",
"K.	c #595B57",
"L.	c #60635F",
"M.	c #7A7C78",
"N.	c #A4A4A2",
"O.	c #4F514C",
"P.	c #4F514D",
"Q.	c #4E504C",
"R.	c #51534F",
"S.	c #646562",
"T.	c #5B5D5A",
"U.	c #686966",
"V.	c #080908",
"W.	c #020202",
"X.	c #171716",
"Y.	c #494B48",
"Z.	c #1B1B1A",
"`.	c #121211",
" +	c #080808",
".+	c #070707",
"                                                                ",
"                                                                ",
"        . . . .       .         . . . .         . . . . .       ",
"        .           . + @       .       . .     .               ",
"        .           .   # $     .         .     .               ",
"        . . . .   % & * = -     .         .     . . . . .       ",
"        .         ; . . . %     .         .     .               ",
"        .       > , ' ) ! ~ {   .       . .     .               ",
"] ^ / ( . _     : < [ } | 1 2   . . . .         . . . . .       ",
"] 3 4 5 6 7 8 9 0 a b c d e                                     ",
"f ' g h i j k l m n o p q r                                     ",
"f s t u v w x y z A B C D E                                     ",
"^ F G B B H I J K B B L M N       O P                           ",
"^ Q R B B S T U V B B W X r       O O Y                         ",
"^ Z `  ...+.) @.#.$.%.&.*.=.        P Y                         ",
"-.I ;.>.,.'.| | ).!.~.{.]./         ^.Y                         ",
"/.U (._.:.<.k | ;.[.}.|.].=.        Y Y                         ",
"/.4 1.2.3.4.5.| 6.7.!.8.].=.        9.9.                        ",
"/.x 0.a.b.c.d.| e.f.g.'.I =.      h.9.i.                        ",
"/.) j j.k.l.m.n.o.p.q.r.I s.      O t.                          ",
"/.u.l.v.w.x.y.d.z.n _.A.I s.                                    ",
"] d.B.C.x.D.E.F.G.H.w I.U r                                     ",
"/.J.m.k 5.m.9 K.L.M.o.N.x O.                                    ",
"/.^ P.Q.P.R.    . . . . S.R.  . . .       .       .             ",
"                . T.U.5.K.^ V..   . .   .   .     .             ",
"                . ; W.X.Y.] ;       .   .   .   .               ",
"                      Z.`.] .       .   . .   . .   .           ",
"        . . .           ; ] ;       .         .   .   .         ",
"                       +.+  2 .   . .       .     .   .         ",
"                . . . .       . . .         .       .           ",
"                                                                ",
"                                                                "};
