/* XPM */
static char * fade_halfvol_xpm[] = {
"32 32 182 2",
"  	c None",
". 	c #000000",
"+ 	c #232523",
"@ 	c #090909",
"# 	c #121212",
"$ 	c #565854",
"% 	c #040403",
"& 	c #51524E",
"* 	c #0E0E0D",
"= 	c #474946",
"- 	c #2E2E2C",
"; 	c #535451",
"> 	c #383936",
", 	c #222321",
"' 	c #030303",
") 	c #040404",
"! 	c #555753",
"~ 	c #535551",
"{ 	c #4B4D49",
"] 	c #494B47",
"^ 	c #50524E",
"/ 	c #272726",
"( 	c #1A1A19",
"_ 	c #9C9D9A",
": 	c #999A96",
"< 	c #676965",
"[ 	c #131312",
"} 	c #151615",
"| 	c #5B5D59",
"1 	c #6B6D69",
"2 	c #737471",
"3 	c #6D6E6A",
"4 	c #5E5F5B",
"5 	c #5A5B58",
"6 	c #5F605E",
"7 	c #C4C5C2",
"8 	c #BCBDBA",
"9 	c #71726F",
"0 	c #323431",
"a 	c #555653",
"b 	c #6D6E6B",
"c 	c #AFAFAD",
"d 	c #CACBC8",
"e 	c #C0C1BE",
"f 	c #A0A29E",
"g 	c #666864",
"h 	c #636460",
"i 	c #969894",
"j 	c #C2C3C0",
"k 	c #EBECEA",
"l 	c #D1D1CF",
"m 	c #777975",
"n 	c #4D4F4A",
"o 	c #777875",
"p 	c #D5D5D4",
"q 	c #FEFEFC",
"r 	c #F3F3F1",
"s 	c #C1C2BF",
"t 	c #6A6C68",
"u 	c #676966",
"v 	c #B8B9B6",
"w 	c #EDEDEC",
"x 	c #FFFFFF",
"y 	c #DCDCDB",
"z 	c #7B7D79",
"A 	c #4D4F49",
"B 	c #787976",
"C 	c #DBDBD9",
"D 	c #D2D3D1",
"E 	c #6D6F6B",
"F 	c #6B6D6A",
"G 	c #CECFCD",
"H 	c #DEDEDD",
"I 	c #7C7D7A",
"J 	c #4E4F4A",
"K 	c #3365A4",
"L 	c #3465A4",
"M 	c #767774",
"N 	c #D3D3D2",
"O 	c #D1D2D1",
"P 	c #6C6E6B",
"Q 	c #6C6E6A",
"R 	c #D0D0CF",
"S 	c #D5D6D4",
"T 	c #797A77",
"U 	c #3364A4",
"V 	c #70726E",
"W 	c #BEBFBC",
"X 	c #E6E6E4",
"Y 	c #E8E9E6",
"Z 	c #BEC0BD",
"` 	c #696B67",
" .	c #696A67",
"..	c #BDBDBB",
"+.	c #E8E8E6",
"@.	c #EBEBE9",
"#.	c #C2C2C0",
"$.	c #727370",
"%.	c #4C4E49",
"&.	c #535651",
"*.	c #B2B3B0",
"=.	c #D5D6D3",
"-.	c #D8D8D5",
";.	c #B3B4B1",
">.	c #B3B3B1",
",.	c #DADAD8",
"'.	c #DDDDDB",
").	c #B8B8B6",
"!.	c #6E706C",
"~.	c #3464A4",
"{.	c #545652",
"].	c #AEAFAC",
"^.	c #CFD0CD",
"/.	c #D2D3D0",
"(.	c #AFB0AD",
"_.	c #D9DAD7",
":.	c #DCDCDA",
"<.	c #B7B8B5",
"[.	c #A9AAA7",
"}.	c #C9CAC7",
"|.	c #CCCDCA",
"1.	c #AAACA8",
"2.	c #656763",
"3.	c #B1B3AF",
"4.	c #D8D8D6",
"5.	c #B5B6B3",
"6.	c #3365A3",
"7.	c #A4A5A2",
"8.	c #C2C4C0",
"9.	c #C5C7C3",
"0.	c #A6A7A4",
"a.	c #636561",
"b.	c #B0B1AE",
"c.	c #D6D6D4",
"d.	c #D7D7D5",
"e.	c #3366A4",
"f.	c #3465A3",
"g.	c #BCBEBA",
"h.	c #BDBFBB",
"i.	c #9FA19D",
"j.	c #626460",
"k.	c #656764",
"l.	c #AAAAA8",
"m.	c #CFCFCD",
"n.	c #D4D4D2",
"o.	c #B2B2B0",
"p.	c #4D4E49",
"q.	c #3366A3",
"r.	c #686A66",
"s.	c #B7B9B5",
"t.	c #B3B5B1",
"u.	c #959793",
"v.	c #60625E",
"w.	c #9D9F9C",
"x.	c #B1B2AF",
"y.	c #898B87",
"z.	c #9A9C98",
"A.	c #828480",
"B.	c #5E605C",
"C.	c #5F615D",
"D.	c #868884",
"E.	c #A5A7A4",
"F.	c #ACADAA",
"G.	c #585A56",
"H.	c #595B57",
"I.	c #4F514C",
"J.	c #010204",
"K.	c #4F514D",
"L.	c #4E504C",
"M.	c #51534F",
"N.	c #8E8E8C",
"O.	c #8B8C89",
"P.	c #646562",
"Q.	c #080808",
"R.	c #020202",
"S.	c #1D1E1D",
"T.	c #4E4F4C",
"U.	c #010101",
"V.	c #242523",
"W.	c #121312",
"X.	c #4D4F4D",
"Y.	c #0D0D0D",
"                                                                ",
"                                                                ",
"                                                                ",
"        . . . .       . +       . . . .         . . . . .       ",
"        .           . @ # $     .       . .     .               ",
"        .           % & * =     .         .     .               ",
"        . . . .   * - ; > ,     .         .     . . . . .       ",
"        .         ' . . . )     .         .     .               ",
"! ~ { ] . ^     / ( _ : < [ }   .       . .     .               ",
"! | 1 2 . 3 4 5 [ 6 7 8 9 0 )   . . . .         . . . . .       ",
"a b c d e f g h i j k l m n                                     ",
"a o p q r s t u v w x y z A                                     ",
"~ B C x x D E F G x x H I J       K L                           ",
"~ M N x x O P Q R x x S T n       K K U                         ",
"~ V W X Y Z `  ...+.@.#.$.%.        L U                         ",
"&.E *.=.-.;.< < >.,.'.).!.{         ~.U                         ",
"{.Q ].^./.(.g < *._.:.<.!.%.        U U                         ",
"{.1 [.}.|.1.2.< 3.4.,.5.!.%.        6.6.                        ",
"{.t 7.8.9.0.a.< b.c.d.;.E %.      e.6.f.                        ",
"{.` f g.h.i.j.k.l.m.n.o.E p.      K q.                          ",
"{.r.i.s.t.u.v.a.w.j ^.x.E p.                                    ",
"! a.y.z.u.A.B.C.D.E.s F.Q n                                     ",
"{.G.j.g 2.j.5 H.. . . . t I.  . . J.      .       .             ",
"{.~ K.L.K.M.    . a.N.O.P.M.Q..   . .   .   .     .             ",
"                . R.) S.T.~ U.      .   .   .   .               ",
"                    = V.W.! .       .   . .   . .   .           ",
"        . . .         X.U.! U.      .         .   .   .         ",
"                      # Y.! Q..   . .       .     .   .         ",
"                . . . '       . . .         .       .           ",
"                                                                ",
"                                                                ",
"                                                                "};
