/* XPM */
static char * gtk_quit_xpm[] = {
"32 32 212 2",
"  	c None",
". 	c #2E3436",
"+ 	c #D3D7CF",
"@ 	c #CBCFC7",
"# 	c #9DA099",
"$ 	c #5D5F5B",
"% 	c #525350",
"& 	c #4C4E4A",
"* 	c #474845",
"= 	c #41423F",
"- 	c #3B3D3A",
"; 	c #353735",
"> 	c #000000",
", 	c #274707",
"' 	c #EEEEEC",
") 	c #E8E8E6",
"! 	c #E0E0DD",
"~ 	c #CDCECA",
"{ 	c #90918E",
"] 	c #777875",
"^ 	c #727470",
"/ 	c #6D6F6B",
"( 	c #828380",
"_ 	c #424441",
": 	c #000100",
"< 	c #2A4D08",
"[ 	c #D7D8D4",
"} 	c #CED0CB",
"| 	c #ABADA8",
"1 	c #888B85",
"2 	c #82847F",
"3 	c #B6B6B6",
"4 	c #4F514D",
"5 	c #030401",
"6 	c #040602",
"7 	c #2D5009",
"8 	c #CFD1CC",
"9 	c #C6C8C3",
"0 	c #B7BAB3",
"a 	c #9C9E98",
"b 	c #D4D4D4",
"c 	c #5B5E5A",
"d 	c #070904",
"e 	c #080A05",
"f 	c #2F530B",
"g 	c #BEC1BA",
"h 	c #B5B8B1",
"i 	c #F7F7F7",
"j 	c #686B66",
"k 	c #0A1007",
"l 	c #0B1107",
"m 	c #31570C",
"n 	c #462D2E",
"o 	c #B6B9B2",
"p 	c #FFFFFF",
"q 	c #6E716C",
"r 	c #0F1709",
"s 	c #345B0E",
"t 	c #A60F11",
"u 	c #C8A59F",
"v 	c #121C0C",
"w 	c #355E10",
"x 	c #AD1A1B",
"y 	c #D8AAA8",
"z 	c #16210E",
"A 	c #386111",
"B 	c #F04343",
"C 	c #AF1B1C",
"D 	c #D29997",
"E 	c #192610",
"F 	c #3A6412",
"G 	c #FF5050",
"H 	c #F44445",
"I 	c #B21E20",
"J 	c #CE8788",
"K 	c #1D2C13",
"L 	c #3C6814",
"M 	c #FF3333",
"N 	c #F74848",
"O 	c #B72223",
"P 	c #C67171",
"Q 	c #E0DFDC",
"R 	c #555753",
"S 	c #213115",
"T 	c #3F6B15",
"U 	c #FF4C4C",
"V 	c #FF1919",
"W 	c #FF2E2E",
"X 	c #FA4A4A",
"Y 	c #BC2627",
"Z 	c #BE5B5C",
"` 	c #D6D5D2",
" .	c #243617",
"..	c #416E17",
"+.	c #FF1D1D",
"@.	c #FF2929",
"#.	c #FC4C4C",
"$.	c #C1292A",
"%.	c #B74A4A",
"&.	c #CECCC7",
"*.	c #283C1A",
"=.	c #437219",
"-.	c #F94B4B",
";.	c #F71313",
">.	c #F72020",
",.	c #F74646",
"'.	c #C52C2D",
").	c #B23A3B",
"!.	c #C5C0BB",
"~.	c #2C411C",
"{.	c #46751A",
"].	c #EF4646",
"^.	c #EA0C0C",
"/.	c #EB1616",
"(.	c #EE4646",
"_.	c #BE292B",
":.	c #A71517",
"<.	c #BEBCB5",
"[.	c #2F461E",
"}.	c #48781B",
"|.	c #E64040",
"1.	c #DE0404",
"2.	c #DE0505",
"3.	c #E32828",
"4.	c #DA3839",
"5.	c #AC1C1D",
"6.	c #B97977",
"7.	c #334C21",
"8.	c #4A7C1D",
"9.	c #E13D3D",
"0.	c #D80000",
"a.	c #D90505",
"b.	c #DF2F2F",
"c.	c #D02E2F",
"d.	c #AC1B1D",
"e.	c #C49C99",
"f.	c #365223",
"g.	c #4C801E",
"h.	c #E13939",
"i.	c #DA0B0B",
"j.	c #E03535",
"k.	c #C9292A",
"l.	c #AD1F21",
"m.	c #CEB5B2",
"n.	c #3A5725",
"o.	c #4F8320",
"p.	c #A71315",
"q.	c #DB1313",
"r.	c #E13838",
"s.	c #C02525",
"t.	c #B22F31",
"u.	c #DACBC8",
"v.	c #3E5C28",
"w.	c #518621",
"x.	c #DE3737",
"y.	c #B82021",
"z.	c #BB4849",
"A.	c #E5DEDC",
"B.	c #D3D5D0",
"C.	c #F0F1EF",
"D.	c #FBFBFB",
"E.	c #41612A",
"F.	c #538A23",
"G.	c #DC3939",
"H.	c #B21B1D",
"I.	c #C46767",
"J.	c #EDEBE9",
"K.	c #D8D9D5",
"L.	c #E2E3E0",
"M.	c #F7F7F6",
"N.	c #EEEFED",
"O.	c #B3B6B0",
"P.	c #7B7F77",
"Q.	c #5F6E53",
"R.	c #45672C",
"S.	c #568D24",
"T.	c #AC181A",
"U.	c #CE8888",
"V.	c #E9E9E7",
"W.	c #FBFBFA",
"X.	c #EDEEEC",
"Y.	c #B6BAB2",
"Z.	c #8B9286",
"`.	c #627853",
" +	c #4A6C33",
".+	c #486C2F",
"++	c #589126",
"@+	c #C59792",
"#+	c #EFEFEE",
"$+	c #FDFDFD",
"%+	c #EEEFEC",
"&+	c #BFC3BD",
"*+	c #95A08C",
"=+	c #637E4F",
"-+	c #4C7132",
";+	c #4C7131",
">+	c #5A9427",
",+	c #472C2F",
"'+	c #F5F5F4",
")+	c #EEF0ED",
"!+	c #CFD3CB",
"~+	c #96A789",
"{+	c #5F8047",
"]+	c #4F7633",
"^+	c #5C9728",
"/+	c #D8DCD3",
"(+	c #CED4C9",
"_+	c #8DA47D",
":+	c #587C3D",
"<+	c #C3CDBA",
"[+	c #84AC5F",
"}+	c #5D982A",
"                                                                ",
"                                                                ",
"                  . . . . . . . . . . . . . . . . . . . .       ",
"                  . + + + + @ # $ % & * = - ; > > > > , .       ",
"                  . + ' ' ' ) ! ~ { ] ^ / ( _ : : : : < .       ",
"                  . + ' ' ' ) ! [ } | 1 2 3 4 5 5 5 6 7 .       ",
"                  . + ' ' ' ) ! [ 8 9 0 a b c d d d e f .       ",
"                  . + ' ' ' ) ! [ 8 9 g h i j k k k l m .       ",
"                  n + ' ' ' ) ! [ 8 9 g o p q r r r r s .       ",
"                  t u ' ' ' ) ! [ 8 9 g o p q v v v v w .       ",
"                  t x y ' ' ) ! [ 8 9 g o p q z z z z A .       ",
"                  t B C D ' ) ! [ 8 9 g o p q E E E E F .       ",
"                  t G H I J ) ! [ 8 9 g o p q K K K K L .       ",
"  t t t t t t t t t G M N O P Q [ 8 9 g R p q S S S S T .       ",
"  t G U U U U U U U G V W X Y Z ` 8 9 g R > q  . . . ....       ",
"  t G +.+.+.+.+.+.+.+.V V @.#.$.%.&.9 > > p q *.*.*.*.=..       ",
"  t -.;.;.;.;.;.;.;.;.;.;.;.>.,.'.).!.g o p q ~.~.~.~.{..       ",
"  t ].^.^.^.^.^.^.^.^.^.^.^.^./.(._.:.<.o p q [.[.[.[.}..       ",
"  t |.1.1.1.1.1.1.1.1.1.1.1.2.3.4.5.6.g o p q 7.7.7.7.8..       ",
"  t 9.0.0.0.0.0.0.0.0.0.0.a.b.c.d.e.9 g o p q f.f.f.f.g..       ",
"  t 9.h.h.h.h.h.h.h.9.0.i.j.k.l.m.8 9 g o p q n.n.n.n.o..       ",
"  t p.p.p.p.p.p.p.p.9.q.r.s.t.u.[ 8 9 g o p q v.v.v.v.w..       ",
"                  t 9.x.y.z.A.! [ 8 9 B.C.D.q E.E.E.E.F..       ",
"                  t G.H.I.J.) ! K.L.M.N.O.P.Q.R.R.R.R.S..       ",
"                  t T.U.' ' V.' W.X.Y.Z.`. +.+.+.+.+.+++.       ",
"                  t @+' #+M.$+%+&+*+=+-+;+;+;+;+;+;+;+>+.       ",
"                  ,++ '+$+)+!+~+{+]+]+]+]+]+]+]+]+]+]+^+.       ",
"                  . + /+(+_+:+]+]+]+]+]+]+]+]+]+]+]+]+^+.       ",
"                  . <+[+}+^+^+^+^+^+^+^+^+^+^+^+^+^+^+^+.       ",
"                  . . . . . . . . . . . . . . . . . . . .       ",
"                                                                ",
"                                                                "};
