/* XPM */
static char * gtk_media_play_ltr_all_xpm[] = {
"32 32 77 1",
" 	c None",
".	c #000000",
"+	c #555753",
"@	c #F9F9F9",
"#	c #FFFFFF",
"$	c #ECECEC",
"%	c #EDEEED",
"&	c #BCBDBA",
"*	c #D3D3D1",
"=	c #F6F7F6",
"-	c #C0C1BE",
";	c #C2C3BF",
">	c #C5C6C3",
",	c #E1E2E0",
"'	c #FAFAF9",
")	c #C4C5C2",
"!	c #C6C7C4",
"~	c #C7C8C5",
"{	c #C9C9C6",
"]	c #D0D0CE",
"^	c #EEEEED",
"/	c #F4F4F4",
"(	c #C8C9C6",
"_	c #CACBC8",
":	c #CCCCC9",
"<	c #CDCECB",
"[	c #CECFCC",
"}	c #DBDCD9",
"|	c #F6F6F6",
"1	c #CCCDC9",
"2	c #D0D0CD",
"3	c #D1D2CF",
"4	c #D2D3D0",
"5	c #D3D4D1",
"6	c #E5E6E4",
"7	c #FAFBFA",
"8	c #CFD0CD",
"9	c #D2D2CF",
"0	c #D4D4D2",
"a	c #D5D6D3",
"b	c #D7D7D4",
"c	c #D7D8D5",
"d	c #D7D7D5",
"e	c #D6D6D3",
"f	c #D8D9D6",
"g	c #F8F8F8",
"h	c #D8D8D5",
"i	c #DADAD7",
"j	c #DBDBD9",
"k	c #DCDCDA",
"l	c #DADAD8",
"m	c #DBDBDA",
"n	c #EFEFEE",
"o	c #DDDEDB",
"p	c #DFE0DD",
"q	c #E0E1DE",
"r	c #E0E0DE",
"s	c #ECECEB",
"t	c #FBFBFB",
"u	c #DBDBD8",
"v	c #DEDEDC",
"w	c #E1E1DF",
"x	c #E3E3E1",
"y	c #E5E5E3",
"z	c #ECECEA",
"A	c #DCDDDA",
"B	c #E9EAE7",
"C	c #F8F8F7",
"D	c #F7F7F7",
"E	c #D9D9D7",
"F	c #DDDDDA",
"G	c #E1E2DF",
"H	c #F1F1F0",
"I	c #FCFCFC",
"J	c #E7E7E6",
"K	c #FAFAFA",
"L	c #F1F1F1",
"                                ",
"                                ",
"                         .   .  ",
"                         .   .  ",
"                         .   .  ",
"                         .   .  ",
"                    ...  .   .  ",
"        +                .......",
"        +@                      ",
"        +#$%                    ",
"        +#&*=                   ",
"        +#-;>,'                 ",
"        +#)!~{]^/               ",
"        +#(_:<[[}|              ",
"        +#1[234**567            ",
"        +#890abccdef^g          ",
"        +#4ahijkk}lmng          ",
"        +#afjopqqrst            ",
"        +#cuvwxyz'              ",
"        +#fArxBCD               ",
"        +#EFGHI                 ",
"        +#fJK                   ",
"        +#/L                    ",
"        +t                      ",
"        +                       ",
"                                ",
"                                ",
"                                ",
"                                ",
"                                ",
"                                ",
"                                "};
