/* XPM */
static char * gtk_media_pause_xpm[] = {
"32 32 43 1",
" 	c None",
".	c #555753",
"+	c #FFFFFF",
"@	c #B4B5B2",
"#	c #B5B6B2",
"$	c #B7B8B5",
"%	c #B7B8B4",
"&	c #B9BAB6",
"*	c #BABBB7",
"=	c #BCBDBA",
"-	c #BEBFBB",
";	c #BEBFBC",
">	c #C1C2BF",
",	c #C2C3C0",
"'	c #C3C4C1",
")	c #C6C7C4",
"!	c #C7C8C4",
"~	c #C8C9C6",
"{	c #CCCCC9",
"]	c #CBCCC9",
"^	c #CCCDCA",
"/	c #D1D1CE",
"(	c #D0D1CE",
"_	c #CFD0CD",
":	c #D1D1CF",
"<	c #D6D6D3",
"[	c #D5D6D3",
"}	c #D3D4D1",
"|	c #D5D5D3",
"1	c #DBDBD9",
"2	c #DADBD8",
"3	c #D7D7D4",
"4	c #D8D9D6",
"5	c #E0E0DE",
"6	c #DFDFDD",
"7	c #D9DAD7",
"8	c #DBDCD9",
"9	c #E5E5E3",
"0	c #E4E4E2",
"a	c #DDDDDB",
"b	c #E9E9E7",
"c	c #E8E8E6",
"d	c #EAEAE8",
"                                ",
"                                ",
"                                ",
"                                ",
"                                ",
"                                ",
"                                ",
"                                ",
"         ....      ....         ",
"        .++++.    .++++.        ",
"        .+@#+.    .+$%+.        ",
"        .+&*+.    .+==+.        ",
"        .+-;+.    .+>>+.        ",
"        .+,'+.    .+))+.        ",
"        .+!~+.    .+{]+.        ",
"        .+]^+.    .+/(+.        ",
"        .+_:+.    .+<[+.        ",
"        .+}|+.    .+12+.        ",
"        .+34+.    .+56+.        ",
"        .+78+.    .+90+.        ",
"        .+1a+.    .+bc+.        ",
"        .+1a+.    .+dc+.        ",
"        .++++.    .++++.        ",
"         ....      ....         ",
"                                ",
"                                ",
"                                ",
"                                ",
"                                ",
"                                ",
"                                ",
"                                "};
