/* XPM */
static char * gtk_media_next_ltr_xpm[] = {
"32 32 64 1",
" 	c None",
".	c #555753",
"+	c #FFFFFF",
"@	c #5A5C58",
"#	c #FDFDFD",
"$	c #B7B8B5",
"%	c #E3E3E2",
"&	c #F7F7F6",
"*	c #BCBDBA",
"=	c #BDBEBA",
"-	c #CCCDCA",
";	c #F1F1F0",
">	c #EDEDEC",
",	c #C1C2BF",
"'	c #C2C3C0",
")	c #C5C6C3",
"!	c #C7C8C5",
"~	c #DCDDDB",
"{	c #F9F9F9",
"]	c #DDDDDB",
"^	c #C6C7C4",
"/	c #CBCBC8",
"(	c #CDCECB",
"_	c #CFD0CD",
":	c #D3D3D0",
"<	c #EAEAE8",
"[	c #FBFBFA",
"}	c #CCCCC9",
"|	c #D0D0CE",
"1	c #D3D4D1",
"2	c #D6D6D3",
"3	c #D7D8D5",
"4	c #DCDCDA",
"5	c #F3F3F2",
"6	c #F4F4F4",
"7	c #D1D1CE",
"8	c #D4D5D2",
"9	c #D8D9D6",
"0	c #DCDCD9",
"a	c #DDDEDB",
"b	c #DEDEDB",
"c	c #E1E1DF",
"d	c #F4F4F3",
"e	c #F5F5F4",
"f	c #D8D8D6",
"g	c #DDDDDA",
"h	c #E5E5E3",
"i	c #F2F2F1",
"j	c #FCFCFB",
"k	c #DBDBD9",
"l	c #DADAD8",
"m	c #DFDFDD",
"n	c #EEEEEC",
"o	c #FCFCFC",
"p	c #DEDEDD",
"q	c #EEEEED",
"r	c #E0E0DE",
"s	c #F8F8F7",
"t	c #EDEEED",
"u	c #F9FAF9",
"v	c #E9E9E7",
"w	c #FEFEFE",
"x	c #D0D0CF",
"y	c #E6E6E4",
"                                ",
"                                ",
"                                ",
"                                ",
"                                ",
"                                ",
"                                ",
"                                ",
"                           ..   ",
"  .           .           .++@  ",
"  .#          .#          .+$.  ",
"  .+%&        .+%&        .+*.  ",
"  .+=-;>      .+=-;>      .+,.  ",
"  .+')!~{     .+')!]{     .+^.  ",
"  .+!/(_:<[   .+!/(_:<[   .+}.  ",
"  .+-|1233456 .+-|1233456 .+7.  ",
"  .+|890abcde .+|890abcde .+2.  ",
"  .+:fgchij   .+:fgch5j   .+k.  ",
"  .+8lmnop    .+8lmqop    .+r.  ",
"  .+8csi      .+8csi      .+h.  ",
"  .+tu        .+tu        .+v.  ",
"  .wx         .wx         .+<.  ",
"  .           .           .+y.  ",
"                           ..   ",
"                                ",
"                                ",
"                                ",
"                                ",
"                                ",
"                                ",
"                                ",
"                                "};
