/* XPM */
static char * gtk_media_previous_ltr_xpm[] = {
"32 32 66 1",
" 	c None",
".	c #555753",
"+	c #FFFFFF",
"@	c #B7B8B5",
"#	c #FDFDFD",
"$	c #BCBDBA",
"%	c #F7F7F7",
"&	c #E4E4E3",
"*	c #E3E4E2",
"=	c #C1C2BF",
"-	c #EDEDEC",
";	c #F1F2F1",
">	c #CDCECC",
",	c #BFC0BD",
"'	c #C6C7C4",
")	c #F9F9F9",
"!	c #DDDEDC",
"~	c #C9CAC7",
"{	c #C7C8C5",
"]	c #C5C6C3",
"^	c #CCCCC9",
"/	c #FAFAFA",
"(	c #E9E9E8",
"_	c #D3D3D0",
":	c #D1D1CE",
"<	c #CFD0CD",
"[	c #CDCECB",
"}	c #CBCBC8",
"|	c #F4F4F3",
"1	c #DADAD8",
"2	c #D6D6D4",
"3	c #D7D8D5",
"4	c #D6D6D3",
"5	c #D3D4D1",
"6	c #D0D0CE",
"7	c #F4F4F4",
"8	c #F3F3F2",
"9	c #DFDFDD",
"0	c #DCDCDA",
"a	c #DEDEDB",
"b	c #DDDEDB",
"c	c #DCDCD9",
"d	c #D8D9D6",
"e	c #D4D5D2",
"f	c #DBDBD9",
"g	c #FBFBFB",
"h	c #F1F2F0",
"i	c #E5E5E3",
"j	c #E4E4E2",
"k	c #E1E1DF",
"l	c #DDDDDA",
"m	c #D8D8D6",
"n	c #E0E0DE",
"o	c #FCFCFC",
"p	c #F1F1F0",
"q	c #E4E5E2",
"r	c #F9F9F8",
"s	c #E5E5E4",
"t	c #DADAD7",
"u	c #E9E9E7",
"v	c #EFF0EF",
"w	c #EFF0EE",
"x	c #EAEAE8",
"y	c #D1D1D0",
"z	c #FEFEFE",
"A	c #E6E6E4",
"                                ",
"                                ",
"                                ",
"                                ",
"                                ",
"                                ",
"                                ",
"                                ",
"   ..                           ",
"  .++.           .           .  ",
"  .+@.          #.          #.  ",
"  .+$.        %&+.        %*+.  ",
"  .+=.      -;>,+.      -;>,+.  ",
"  .+'.     )!~{]+.     )!~{]+.  ",
"  .+^.   /(_:<[}+.   /(_:<[}+.  ",
"  .+:. |;1233456+. |;1233456+.  ",
"  .+4. 7890abcde+. 7890abcde+.  ",
"  .+f.   ghijklm+.   ghijklm+.  ",
"  .+n.    !opq91+.    !opq91+.  ",
"  .+i.      8rst+.      8rst+.  ",
"  .+u.        /v+.        /w+.  ",
"  .+x.         yz.         yz.  ",
"  .+A.           .           .  ",
"   ..                           ",
"                                ",
"                                ",
"                                ",
"                                ",
"                                ",
"                                ",
"                                ",
"                                "};
