/* XPM */
static char * gtk_media_play_ltr_xpm[] = {
"32 32 76 1",
" 	c None",
".	c #555753",
"+	c #F9F9F9",
"@	c #FFFFFF",
"#	c #ECECEC",
"$	c #EDEEED",
"%	c #BCBDBA",
"&	c #D3D3D1",
"*	c #F6F7F6",
"=	c #C0C1BE",
"-	c #C2C3BF",
";	c #C5C6C3",
">	c #E1E2E0",
",	c #FAFAF9",
"'	c #C4C5C2",
")	c #C6C7C4",
"!	c #C7C8C5",
"~	c #C9C9C6",
"{	c #D0D0CE",
"]	c #EEEEED",
"^	c #F4F4F4",
"/	c #C8C9C6",
"(	c #CACBC8",
"_	c #CCCCC9",
":	c #CDCECB",
"<	c #CECFCC",
"[	c #DBDCD9",
"}	c #F6F6F6",
"|	c #CCCDC9",
"1	c #D0D0CD",
"2	c #D1D2CF",
"3	c #D2D3D0",
"4	c #D3D4D1",
"5	c #E5E6E4",
"6	c #FAFBFA",
"7	c #CFD0CD",
"8	c #D2D2CF",
"9	c #D4D4D2",
"0	c #D5D6D3",
"a	c #D7D7D4",
"b	c #D7D8D5",
"c	c #D7D7D5",
"d	c #D6D6D3",
"e	c #D8D9D6",
"f	c #F8F8F8",
"g	c #D8D8D5",
"h	c #DADAD7",
"i	c #DBDBD9",
"j	c #DCDCDA",
"k	c #DADAD8",
"l	c #DBDBDA",
"m	c #EFEFEE",
"n	c #DDDEDB",
"o	c #DFE0DD",
"p	c #E0E1DE",
"q	c #E0E0DE",
"r	c #ECECEB",
"s	c #FBFBFB",
"t	c #DBDBD8",
"u	c #DEDEDC",
"v	c #E1E1DF",
"w	c #E3E3E1",
"x	c #E5E5E3",
"y	c #ECECEA",
"z	c #DCDDDA",
"A	c #E9EAE7",
"B	c #F8F8F7",
"C	c #F7F7F7",
"D	c #D9D9D7",
"E	c #DDDDDA",
"F	c #E1E2DF",
"G	c #F1F1F0",
"H	c #FCFCFC",
"I	c #E7E7E6",
"J	c #FAFAFA",
"K	c #F1F1F1",
"                                ",
"                                ",
"                                ",
"                                ",
"                                ",
"                                ",
"                                ",
"        .                       ",
"        .+                      ",
"        .@#$                    ",
"        .@%&*                   ",
"        .@=-;>,                 ",
"        .@')!~{]^               ",
"        .@/(_:<<[}              ",
"        .@|<123&&456            ",
"        .@7890abbcde]f          ",
"        .@30ghijj[klmf          ",
"        .@0einoppqrs            ",
"        .@btuvwxy,              ",
"        .@ezqwABC               ",
"        .@DEFGH                 ",
"        .@eIJ                   ",
"        .@^K                    ",
"        .s                      ",
"        .                       ",
"                                ",
"                                ",
"                                ",
"                                ",
"                                ",
"                                ",
"                                "};
