/* XPM */
static char * gtk_media_pause_all_xpm[] = {
"32 32 44 1",
" 	c None",
".	c #000000",
"+	c #555753",
"@	c #FFFFFF",
"#	c #B4B5B2",
"$	c #B5B6B2",
"%	c #B7B8B5",
"&	c #B7B8B4",
"*	c #B9BAB6",
"=	c #BABBB7",
"-	c #BCBDBA",
";	c #BEBFBB",
">	c #BEBFBC",
",	c #C1C2BF",
"'	c #C2C3C0",
")	c #C3C4C1",
"!	c #C6C7C4",
"~	c #C7C8C4",
"{	c #C8C9C6",
"]	c #CCCCC9",
"^	c #CBCCC9",
"/	c #CCCDCA",
"(	c #D1D1CE",
"_	c #D0D1CE",
":	c #CFD0CD",
"<	c #D1D1CF",
"[	c #D6D6D3",
"}	c #D5D6D3",
"|	c #D3D4D1",
"1	c #D5D5D3",
"2	c #DBDBD9",
"3	c #DADBD8",
"4	c #D7D7D4",
"5	c #D8D9D6",
"6	c #E0E0DE",
"7	c #DFDFDD",
"8	c #D9DAD7",
"9	c #DBDCD9",
"0	c #E5E5E3",
"a	c #E4E4E2",
"b	c #DDDDDB",
"c	c #E9E9E7",
"d	c #E8E8E6",
"e	c #EAEAE8",
"                                ",
"                                ",
"                        .   .   ",
"                        .   .   ",
"                        .   .   ",
"                        .   .   ",
"                   ...  .   .   ",
"                        ........",
"         ++++      ++++         ",
"        +@@@@+    +@@@@+        ",
"        +@#$@+    +@%&@+        ",
"        +@*=@+    +@--@+        ",
"        +@;>@+    +@,,@+        ",
"        +@')@+    +@!!@+        ",
"        +@~{@+    +@]^@+        ",
"        +@^/@+    +@(_@+        ",
"        +@:<@+    +@[}@+        ",
"        +@|1@+    +@23@+        ",
"        +@45@+    +@67@+        ",
"        +@89@+    +@0a@+        ",
"        +@2b@+    +@cd@+        ",
"        +@2b@+    +@ed@+        ",
"        +@@@@+    +@@@@+        ",
"         ++++      ++++         ",
"                                ",
"                                ",
"                                ",
"                                ",
"                                ",
"                                ",
"                                ",
"                                "};
