/* XPM */
static char * gtk_media_stop_all_xpm[] = {
"32 32 91 1",
" 	c None",
".	c #000000",
"+	c #555753",
"@	c #FFFFFF",
"#	c #B2B4B0",
"$	c #B4B5B1",
"%	c #B4B6B2",
"&	c #B5B6B3",
"*	c #B6B7B3",
"=	c #B6B8B4",
"-	c #B7B8B4",
";	c #B7B8B5",
">	c #B8B9B6",
",	c #B9BAB7",
"'	c #BABBB8",
")	c #BBBCB8",
"!	c #BCBDB9",
"~	c #BCBDBA",
"{	c #BDBEBA",
"]	c #BEBFBC",
"^	c #BFC0BD",
"/	c #C0C1BD",
"(	c #C0C1BE",
"_	c #C1C2BF",
":	c #C1C2BE",
"<	c #C3C4C0",
"[	c #C4C5C1",
"}	c #C5C6C2",
"|	c #C5C6C3",
"1	c #C6C7C4",
"2	c #C6C7C3",
"3	c #C4C5C2",
"4	c #C7C8C5",
"5	c #C9C9C6",
"6	c #CACAC7",
"7	c #CACBC8",
"8	c #CBCCC9",
"9	c #CCCCC9",
"0	c #CBCBC8",
"a	c #C8C9C6",
"b	c #CCCDC9",
"c	c #CDCECB",
"d	c #CECFCC",
"e	c #CFD0CD",
"f	c #D0D1CE",
"g	c #D1D1CE",
"h	c #D0D0CD",
"i	c #CCCDCA",
"j	c #D2D2CF",
"k	c #D3D4D1",
"l	c #D4D5D2",
"m	c #D5D6D3",
"n	c #D6D6D3",
"o	c #D6D6D4",
"p	c #D5D5D2",
"q	c #D2D2D0",
"r	c #D7D8D5",
"s	c #D9D9D7",
"t	c #DADAD8",
"u	c #DBDBD8",
"v	c #DBDBD9",
"w	c #DADBD8",
"x	c #D9DAD7",
"y	c #D3D3D0",
"z	c #DADAD7",
"A	c #DCDCD9",
"B	c #DDDEDB",
"C	c #DFDFDD",
"D	c #E0E0DE",
"E	c #DEDEDC",
"F	c #D5D5D3",
"G	c #DDDDDA",
"H	c #E1E1DF",
"I	c #E3E3E1",
"J	c #E5E5E2",
"K	c #E5E5E3",
"L	c #E4E4E2",
"M	c #E2E2E0",
"N	c #D6D7D4",
"O	c #DEDFDC",
"P	c #E7E7E5",
"Q	c #E9E9E7",
"R	c #EAEAE8",
"S	c #E9EAE7",
"T	c #E7E8E5",
"U	c #DCDCDA",
"V	c #E2E2DF",
"W	c #E4E5E2",
"X	c #ECECEA",
"Y	c #EBEBE9",
"Z	c #E8E8E6",
"                                ",
"                                ",
"                        .   .   ",
"                        .   .   ",
"                        .   .   ",
"                        .   .   ",
"                   ...  .   .   ",
"                        ........",
"         ++++++++++++++         ",
"        +@@@@@@@@@@@@@@+        ",
"        +@#$%&*=-;;;--@+        ",
"        +@;>,')!!~~~~!@+        ",
"        +@!{]^/(_____:@+        ",
"        +@(_<[}|111112@+        ",
"        +@314567889980@+        ",
"        +@a7bcdefgggfh@+        ",
"        +@idfjklmnonmp@+        ",
"        +@hqlorstuvvwx@+        ",
"        +@ymrzABCDDDCE@+        ",
"        +@FrtGCHIJKKLM@+        ",
"        +@NsAOHLPQRSTK@+        ",
"        +@NsUCVWPRXYZK@+        ",
"        +@@@@@@@@@@@@@@+        ",
"         ++++++++++++++         ",
"                                ",
"                                ",
"                                ",
"                                ",
"                                ",
"                                ",
"                                ",
"                                "};
