/* XPM */
static char * gtk_media_stop_xpm[] = {
"32 32 90 1",
" 	c None",
".	c #555753",
"+	c #FFFFFF",
"@	c #B2B4B0",
"#	c #B4B5B1",
"$	c #B4B6B2",
"%	c #B5B6B3",
"&	c #B6B7B3",
"*	c #B6B8B4",
"=	c #B7B8B4",
"-	c #B7B8B5",
";	c #B8B9B6",
">	c #B9BAB7",
",	c #BABBB8",
"'	c #BBBCB8",
")	c #BCBDB9",
"!	c #BCBDBA",
"~	c #BDBEBA",
"{	c #BEBFBC",
"]	c #BFC0BD",
"^	c #C0C1BD",
"/	c #C0C1BE",
"(	c #C1C2BF",
"_	c #C1C2BE",
":	c #C3C4C0",
"<	c #C4C5C1",
"[	c #C5C6C2",
"}	c #C5C6C3",
"|	c #C6C7C4",
"1	c #C6C7C3",
"2	c #C4C5C2",
"3	c #C7C8C5",
"4	c #C9C9C6",
"5	c #CACAC7",
"6	c #CACBC8",
"7	c #CBCCC9",
"8	c #CCCCC9",
"9	c #CBCBC8",
"0	c #C8C9C6",
"a	c #CCCDC9",
"b	c #CDCECB",
"c	c #CECFCC",
"d	c #CFD0CD",
"e	c #D0D1CE",
"f	c #D1D1CE",
"g	c #D0D0CD",
"h	c #CCCDCA",
"i	c #D2D2CF",
"j	c #D3D4D1",
"k	c #D4D5D2",
"l	c #D5D6D3",
"m	c #D6D6D3",
"n	c #D6D6D4",
"o	c #D5D5D2",
"p	c #D2D2D0",
"q	c #D7D8D5",
"r	c #D9D9D7",
"s	c #DADAD8",
"t	c #DBDBD8",
"u	c #DBDBD9",
"v	c #DADBD8",
"w	c #D9DAD7",
"x	c #D3D3D0",
"y	c #DADAD7",
"z	c #DCDCD9",
"A	c #DDDEDB",
"B	c #DFDFDD",
"C	c #E0E0DE",
"D	c #DEDEDC",
"E	c #D5D5D3",
"F	c #DDDDDA",
"G	c #E1E1DF",
"H	c #E3E3E1",
"I	c #E5E5E2",
"J	c #E5E5E3",
"K	c #E4E4E2",
"L	c #E2E2E0",
"M	c #D6D7D4",
"N	c #DEDFDC",
"O	c #E7E7E5",
"P	c #E9E9E7",
"Q	c #EAEAE8",
"R	c #E9EAE7",
"S	c #E7E8E5",
"T	c #DCDCDA",
"U	c #E2E2DF",
"V	c #E4E5E2",
"W	c #ECECEA",
"X	c #EBEBE9",
"Y	c #E8E8E6",
"                                ",
"                                ",
"                                ",
"                                ",
"                                ",
"                                ",
"                                ",
"                                ",
"         ..............         ",
"        .++++++++++++++.        ",
"        .+@#$%&*=---==+.        ",
"        .+-;>,'))!!!!)+.        ",
"        .+)~{]^/(((((_+.        ",
"        .+/(:<[}|||||1+.        ",
"        .+2|3456778879+.        ",
"        .+06abcdefffeg+.        ",
"        .+hceijklmnmlo+.        ",
"        .+gpknqrstuuvw+.        ",
"        .+xlqyzABCCCBD+.        ",
"        .+EqsFBGHIJJKL+.        ",
"        .+MrzNGKOPQRSJ+.        ",
"        .+MrTBUVOQWXYJ+.        ",
"        .++++++++++++++.        ",
"         ..............         ",
"                                ",
"                                ",
"                                ",
"                                ",
"                                ",
"                                ",
"                                ",
"                                "};
