/* XPM */
static char * gtk_close_xpm[] = {
"32 32 127 2",
"  	c None",
". 	c #A0A19E",
"+ 	c #AFB0AD",
"@ 	c #999A97",
"# 	c #AEAFAC",
"$ 	c #A1A39F",
"% 	c #9FA09D",
"& 	c #9A9C98",
"* 	c #8A8C87",
"= 	c #A8A9A5",
"- 	c #A8A9A6",
"; 	c #A3A5A1",
"> 	c #979995",
", 	c #ADAFAB",
"' 	c #898B86",
") 	c #A4A6A3",
"! 	c #A4A6A2",
"~ 	c #AEB0AC",
"{ 	c #979895",
"] 	c #A6A7A4",
"^ 	c #8C8E89",
"/ 	c #8D8F8A",
"( 	c #A3A4A0",
"_ 	c #A9ABA7",
": 	c #A6A8A4",
"< 	c #A8AAA6",
"[ 	c #989895",
"} 	c #A4A5A2",
"| 	c #8E908B",
"1 	c #8F918C",
"2 	c #A5A7A3",
"3 	c #ABACA9",
"4 	c #A7A9A6",
"5 	c #A7A8A5",
"6 	c #A4A5A1",
"7 	c #A5A6A2",
"8 	c #90928D",
"9 	c #92948F",
"0 	c #A7A9A4",
"a 	c #ADAEAA",
"b 	c #AAABA8",
"c 	c #A6A7A3",
"d 	c #91938E",
"e 	c #939590",
"f 	c #949691",
"g 	c #AEAFAB",
"h 	c #5A5C58",
"i 	c #585A56",
"j 	c #AAACA8",
"k 	c #ACAEAA",
"l 	c #959792",
"m 	c #979994",
"n 	c #ABADA9",
"o 	c #B2B4B1",
"p 	c #B0B2AE",
"q 	c #AAABA7",
"r 	c #999B96",
"s 	c #A5A7A2",
"t 	c #A9AAA7",
"u 	c #ABACA8",
"v 	c #989A95",
"w 	c #9D9F9B",
"x 	c #8F928C",
"y 	c #90928C",
"z 	c #929490",
"A 	c #969893",
"B 	c #A0A29D",
"C 	c #595B57",
"D 	c #9C9E9B",
"E 	c #848781",
"F 	c #858882",
"G 	c #868784",
"H 	c #868984",
"I 	c #8F928D",
"J 	c #9FA19E",
"K 	c #9D9E9A",
"L 	c #989A97",
"M 	c #878884",
"N 	c #878984",
"O 	c #888A85",
"P 	c #888A86",
"Q 	c #A0A39E",
"R 	c #9E9F9D",
"S 	c #9A9C97",
"T 	c #878A85",
"U 	c #898A85",
"V 	c #91938D",
"W 	c #91948F",
"X 	c #888B86",
"Y 	c #9C9E99",
"Z 	c #A1A29E",
"` 	c #9EA09D",
" .	c #9C9E9A",
"..	c #898B85",
"+.	c #898C86",
"@.	c #999C97",
"#.	c #A0A39F",
"$.	c #A1A19F",
"%.	c #9D9F9A",
"&.	c #8B8D87",
"*.	c #8B8D88",
"=.	c #A1A29F",
"-.	c #9B9D99",
";.	c #A0A29E",
">.	c #9E9F9C",
",.	c #9FA19C",
"'.	c #9FA09C",
").	c #9B9C99",
"!.	c #A1A19E",
"~.	c #9B9C98",
"{.	c #868883",
"].	c #989A96",
"^.	c #989995",
"/.	c #969793",
"(.	c #9A9B97",
"_.	c #979894",
":.	c #8E8F8B",
"<.	c #9B9D98",
"[.	c #939591",
"}.	c #949591",
"|.	c #9FA19D",
"1.	c #8B8C88",
"2.	c #92938F",
"3.	c #959793",
"4.	c #90918D",
"5.	c #878885",
"6.	c #8D8E8B",
"                                                                ",
"                                                                ",
"                                                                ",
"                                                                ",
"                                                                ",
"            . + @                               # $             ",
"          % & * = -                         ; ; * > $           ",
"          , * ' * $ -                     ) ! * ' ' ~           ",
"          { ] * ^ / ( _                 : : / ^ * < [           ",
"            } ; ^ | 1 2 3             4 < 1 | ^ ( 5             ",
"              6 7 1 8 9 0 a         _ b 9 8 1 ! )               ",
"                c : d e f _ g h i j k f e d 2 ]                 ",
"                  5 < e l m n o p g m l e = 4                   ",
"                    < q l m r s c r m l _ t                     ",
"                      _ u m v r r v m q b                       ",
"                      i _ w x y z A B # C                       ",
"                      i D / E F G H I J C                       ",
"                      K L H M M N O P & Q                       ",
"                    R S T T U V W ' ' X Y Z                     ",
"                  `  ...+.* @.#.$.%.&.*.* w =.                  ",
"                % w * * * -.;.C i >.,.*.*.*.w '.                ",
"              ).-.' * *. .!.        K ,.*.* ' ~.-.              ",
"            @ v {.N O ].w             & -.O N {.^.&             ",
"            ^.{.{.{./.(.                _.v {.{.{.& :.          ",
"          <.' {.{.[._.                    }./.{.{.O |.          ",
"          1.[.N e f                         2.3.O 9 4.          ",
"            * ].                              5.].6.            ",
"                                                                ",
"                                                                ",
"                                                                ",
"                                                                ",
"                                                                "};
