/* XPM */
static char * mpd_smplayer_fade_xpm[] = {
"64 32 713 2",
"  	c None",
". 	c #000000",
"+ 	c #555753",
"@ 	c #979797",
"# 	c #969696",
"$ 	c #7C7C7C",
"% 	c #8E8E8E",
"& 	c #B0B0B0",
"* 	c #C3C3C3",
"= 	c #A0A0A0",
"- 	c #464744",
"; 	c #E8E8E7",
"> 	c #E5E6E4",
", 	c #E4E5E4",
"' 	c #828282",
") 	c #C1C1C1",
"! 	c #D7D7D7",
"~ 	c #D2D2D2",
"{ 	c #D0D0D0",
"] 	c #D1D1D1",
"^ 	c #D5D5D5",
"/ 	c #B6B7B5",
"( 	c #EBEBEA",
"_ 	c #BFC0BD",
": 	c #E7E8E6",
"< 	c #B7B7B7",
"[ 	c #9E9E9E",
"} 	c #CECECE",
"| 	c #8F8F8F",
"1 	c #383838",
"2 	c #FFFFFF",
"3 	c #E2E2E1",
"4 	c #90928F",
"5 	c #0B0C0C",
"6 	c #1D1E1F",
"7 	c #323333",
"8 	c #373736",
"9 	c #212121",
"0 	c #EDEDED",
"a 	c #CBCCCA",
"b 	c #EAEBEA",
"c 	c #808080",
"d 	c #2C2C2C",
"e 	c #303030",
"f 	c #2F2F2F",
"g 	c #616161",
"h 	c #BBBBBB",
"i 	c #373737",
"j 	c #E1E2E0",
"k 	c #A6A8A3",
"l 	c #D4D5D2",
"m 	c #DFDFDE",
"n 	c #2F3234",
"o 	c #484E50",
"p 	c #525A5C",
"q 	c #5E6667",
"r 	c #676B6D",
"s 	c #858585",
"t 	c #282828",
"u 	c #F0F1F0",
"v 	c #D8D9D6",
"w 	c #EEEFED",
"x 	c #848484",
"y 	c #CBCBCB",
"z 	c #363636",
"A 	c #353535",
"B 	c #2E2E2E",
"C 	c #3E3E3E",
"D 	c #E5E5E4",
"E 	c #B1B2AE",
"F 	c #BBBDB9",
"G 	c #E8E9E7",
"H 	c #5F6567",
"I 	c #61696B",
"J 	c #5C6466",
"K 	c #5D6567",
"L 	c #1C1C1C",
"M 	c #F2F2F1",
"N 	c #DEDFDD",
"O 	c #F0F0EF",
"P 	c #97A1A5",
"Q 	c #A1A0A0",
"R 	c #B8B8B8",
"S 	c #A6A6A6",
"T 	c #333333",
"U 	c #313131",
"V 	c #787878",
"W 	c #B4B4B4",
"X 	c #393939",
"Y 	c #444444",
"Z 	c #E9E9E8",
"` 	c #BEC0BD",
" .	c #C9CAC7",
"..	c #D3D4D2",
"+.	c #EAEAE9",
"@.	c #60615E",
"#.	c #2B2D2D",
"$.	c #707778",
"%.	c #6C7274",
"&.	c #676E70",
"*.	c #606769",
"=.	c #5A6264",
"-.	c #676C6D",
";.	c #F1F1F0",
">.	c #EFEFEE",
",.	c #909FAB",
"'.	c #98D8EF",
").	c #595656",
"!.	c #8C8C8C",
"~.	c #BEBEBE",
"{.	c #A7A7A7",
"].	c #DFDFDF",
"^.	c #727272",
"/.	c #4B4B4B",
"(.	c #EDEDEC",
"_.	c #CCCECB",
":.	c #D7D8D5",
"<.	c #ECEDEC",
"[.	c #D1D2D0",
"}.	c #757C7D",
"|.	c #6B7274",
"1.	c #646C6D",
"2.	c #5B6365",
"3.	c #C6CBCE",
"4.	c #2F302E",
"5.	c #070707",
"6.	c #858685",
"7.	c #D5D8DA",
"8.	c #A7A6A6",
"9.	c #040607",
"0.	c #0F161C",
"a.	c #273D4A",
"b.	c #508699",
"c.	c #82969B",
"d.	c #6A6A6A",
"e.	c #D3D3D3",
"f.	c #DDDDDD",
"g.	c #B5B5B5",
"h.	c #F1F1F1",
"i.	c #DBDCDA",
"j.	c #ECECEB",
"k.	c #E2E3E2",
"l.	c #787976",
"m.	c #929391",
"n.	c #E4E4E2",
"o.	c #828788",
"p.	c #7E8384",
"q.	c #747B7D",
"r.	c #6F7677",
"s.	c #575F61",
"t.	c #5C6567",
"u.	c #586062",
"v.	c #B3B3B3",
"w.	c #444546",
"x.	c #4C788B",
"y.	c #4CC6F0",
"z.	c #10100F",
"A.	c #353633",
"B.	c #0F100F",
"C.	c #73C2DC",
"D.	c #9D9D9E",
"E.	c #909AAC",
"F.	c #6692D1",
"G.	c #5288C3",
"H.	c #3D6F97",
"I.	c #142833",
"J.	c #152F38",
"K.	c #465559",
"L.	c #7D7B7B",
"M.	c #868686",
"N.	c #9B9B9B",
"O.	c #E0E0E0",
"P.	c #D9D9DA",
"Q.	c #D9D9D9",
"R.	c #949593",
"S.	c #5C5C5A",
"T.	c #767676",
"U.	c #6E7373",
"V.	c #858A8B",
"W.	c #7D8384",
"X.	c #797F80",
"Y.	c #6F7576",
"Z.	c #646566",
"`.	c #595859",
" +	c #323232",
".+	c #545B5D",
"++	c #AFAFAF",
"@+	c #5C5D5D",
"#+	c #345D6D",
"$+	c #4CCFF8",
"%+	c #4CCAF2",
"&+	c #3DA3C4",
"*+	c #112F38",
"=+	c #0E262D",
"-+	c #3DA2C3",
";+	c #67BDDA",
">+	c #9D9E9F",
",+	c #7B8EB6",
"'+	c #5380C4",
")+	c #3F7ACD",
"!+	c #3782D5",
"~+	c #3B94DA",
"{+	c #153240",
"]+	c #306273",
"^+	c #364143",
"/+	c #0E0C0C",
"(+	c #9A9A9A",
"_+	c #DCDCDC",
":+	c #B3B8BA",
"<+	c #918B8B",
"[+	c #9D8C83",
"}+	c #818181",
"|+	c #E7E7E7",
"1+	c #C4C4C3",
"2+	c #5A5B58",
"3+	c #717271",
"4+	c #717171",
"5+	c #8B8F90",
"6+	c #8C9192",
"7+	c #898E8F",
"8+	c #808687",
"9+	c #777C7E",
"0+	c #737171",
"a+	c #6B6A6A",
"b+	c #575656",
"c+	c #464545",
"d+	c #25292A",
"e+	c #ADADAD",
"f+	c #5D5D5D",
"g+	c #003348",
"h+	c #00BAF6",
"i+	c #00B4ED",
"j+	c #004E67",
"k+	c #00759A",
"l+	c #006788",
"m+	c #004D66",
"n+	c #41ADD0",
"o+	c #506CA2",
"p+	c #3D67B0",
"q+	c #2861B8",
"r+	c #1860C5",
"s+	c #2579D2",
"t+	c #2D76AD",
"u+	c #0E2029",
"v+	c #50ABC7",
"w+	c #2C3133",
"x+	c #C5C5C5",
"y+	c #B2AFAE",
"z+	c #9E6E59",
"A+	c #EF7E3A",
"B+	c #D2874E",
"C+	c #E1E0E0",
"D+	c #999B99",
"E+	c #797A79",
"F+	c #505050",
"G+	c #3A3A3B",
"H+	c #6D7070",
"I+	c #909495",
"J+	c #8D9192",
"K+	c #808586",
"L+	c #7E7E7E",
"M+	c #787777",
"N+	c #636363",
"O+	c #515151",
"P+	c #444343",
"Q+	c #1D1E1E",
"R+	c #636C6E",
"S+	c #5A6162",
"T+	c #00B3EC",
"U+	c #00B0E8",
"V+	c #001F28",
"W+	c #00AFE7",
"X+	c #00A8DD",
"Y+	c #00141A",
"Z+	c #3FA9CC",
"`+	c #AEAEAF",
" @	c #1353B3",
".@	c #1660C5",
"+@	c #2477CB",
"@@	c #020507",
"#@	c #2A5A6F",
"$@	c #3E6773",
"%@	c #D0B9A1",
"&@	c #A1A2A3",
"*@	c #E7E7E8",
"=@	c #A7A8AD",
"-@	c #A5A7AE",
";@	c #9FA2AA",
">@	c #84868C",
",@	c #939697",
"'@	c #939698",
")@	c #909394",
"!@	c #8B9091",
"~@	c #848586",
"{@	c #858383",
"]@	c #717070",
"^@	c #5E5D5D",
"/@	c #4C4C4C",
"(@	c #3D3C3C",
"_@	c #222526",
":@	c #626A6C",
"<@	c #5F6566",
"[@	c #B1B1B1",
"}@	c #262626",
"|@	c #0B0D0E",
"1@	c #006484",
"2@	c #00B6F0",
"3@	c #007BA2",
"4@	c #005671",
"5@	c #003E52",
"6@	c #2B768E",
"7@	c #D4D6D6",
"8@	c #153F90",
"9@	c #1354B5",
"0@	c #155BB9",
"a@	c #000102",
"b@	c #27587C",
"c@	c #6AC6F2",
"d@	c #58595A",
"e@	c #9F5A3F",
"f@	c #FF7E37",
"g@	c #FD8B34",
"h@	c #F69842",
"i@	c #EC9734",
"j@	c #C6C7CF",
"k@	c #E7E7E9",
"l@	c #E9E9F8",
"m@	c #C8C8D2",
"n@	c #919192",
"o@	c #79797A",
"p@	c #808081",
"q@	c #DEDEDE",
"r@	c #434545",
"s@	c #989B9C",
"t@	c #96999A",
"u@	c #929697",
"v@	c #8A8E8F",
"w@	c #888888",
"x@	c #7F7E7E",
"y@	c #585757",
"z@	c #484747",
"A@	c #282626",
"B@	c #424849",
"C@	c #5B6366",
"D@	c #666A6C",
"E@	c #040404",
"F@	c #393735",
"G@	c #132E37",
"H@	c #0099CB",
"I@	c #00B5EF",
"J@	c #00374A",
"K@	c #133440",
"L@	c #E6E7E8",
"M@	c #143E8D",
"N@	c #03152F",
"O@	c #020A15",
"P@	c #3088E0",
"Q@	c #5EAEE5",
"R@	c #7DB0BF",
"S@	c #727373",
"T@	c #5C4F4A",
"U@	c #DF7134",
"V@	c #F68A33",
"W@	c #EE9439",
"X@	c #F39C3E",
"Y@	c #D8AE86",
"Z@	c #BEBFC7",
"`@	c #DDDDE6",
" #	c #8B8C8C",
".#	c #656565",
"+#	c #5C5B5B",
"@#	c #D6D6D9",
"##	c #676969",
"$#	c #9A9D9F",
"%#	c #979B9C",
"&#	c #949899",
"*#	c #898C8C",
"=#	c #878787",
"-#	c #7A7979",
";#	c #656464",
">#	c #525151",
",#	c #434343",
"'#	c #202021",
")#	c #596163",
"!#	c #5C6365",
"~#	c #656667",
"{#	c #727171",
"]#	c #626261",
"^#	c #525353",
"/#	c #417889",
"(#	c #3C7E93",
"_#	c #030809",
":#	c #3E8298",
"<#	c #428AA1",
"[#	c #40889F",
"}#	c #187A9A",
"|#	c #030A0C",
"1#	c #CDCECF",
"2#	c #030F24",
"3#	c #0A2D62",
"4#	c #1D67C9",
"5#	c #5399DD",
"6#	c #88D4F4",
"7#	c #81ADBA",
"8#	c #898988",
"9#	c #86523A",
"0#	c #E1802F",
"a#	c #D78634",
"b#	c #AE8460",
"c#	c #96836C",
"d#	c #C8C8CA",
"e#	c #A8A8AA",
"f#	c #73736E",
"g#	c #666660",
"h#	c #626262",
"i#	c #585858",
"j#	c #6F6F6F",
"k#	c #A7A8AC",
"l#	c #7D7E7F",
"m#	c #A2A4A5",
"n#	c #9C9F9F",
"o#	c #999D9E",
"p#	c #95999A",
"q#	c #8A8D8D",
"r#	c #818080",
"s#	c #747272",
"t#	c #5F5E5E",
"u#	c #4E4E4E",
"v#	c #292727",
"w#	c #3F4445",
"x#	c #5A6163",
"y#	c #DADDE1",
"z#	c #D3D8DD",
"A#	c #D3D7DD",
"B#	c #D3D7DC",
"C#	c #76787B",
"D#	c #4B4C4E",
"E#	c #D3D6DC",
"F#	c #D1D4D9",
"G#	c #F6F5F6",
"H#	c #9EB0B6",
"I#	c #10313C",
"J#	c #797B7B",
"K#	c #061229",
"L#	c #1449A1",
"M#	c #1959BA",
"N#	c #4D89D5",
"O#	c #81C2EC",
"P#	c #98DDFA",
"Q#	c #7D9EA8",
"R#	c #3F4244",
"S#	c #945527",
"T#	c #8F7056",
"U#	c #757786",
"V#	c #B0B1B3",
"W#	c #D2D2D3",
"X#	c #9C9C9E",
"Y#	c #8383C6",
"Z#	c #7575CF",
"`#	c #6B6B6F",
" $	c #5F5F5F",
".$	c #8B8C8E",
"+$	c #838485",
"@$	c #9DA0A1",
"#$	c #9A9E9E",
"$$	c #868A8B",
"%$	c #777676",
"&$	c #706F6F",
"*$	c #5D5C5C",
"=$	c #343333",
"-$	c #2E3232",
";$	c #5D6566",
">$	c #586163",
",$	c #707072",
"'$	c #949494",
")$	c #0E3478",
"!$	c #002F7B",
"~$	c #000816",
"{$	c #00225A",
"]$	c #002474",
"^$	c #8E98A9",
"/$	c #A4B2B5",
"($	c #32606E",
"_$	c #272728",
":$	c #154395",
"<$	c #5384CC",
"[$	c #A7A8B0",
"}$	c #B7B7BD",
"|$	c #C2C2C2",
"1$	c #B7B7C4",
"2$	c #CCCCFF",
"3$	c #C5C5FF",
"4$	c #8D8DBB",
"5$	c #6C6C6B",
"6$	c #7A7A7A",
"7$	c #767777",
"8$	c #9EA0A1",
"9$	c #9B9E9F",
"0$	c #969A9A",
"a$	c #929798",
"b$	c #484A4A",
"c$	c #2D2C2C",
"d$	c #161515",
"e$	c #2E3131",
"f$	c #686F71",
"g$	c #60686A",
"h$	c #575A5B",
"i$	c #929292",
"j$	c #919090",
"k$	c #BDBDBC",
"l$	c #194183",
"m$	c #003D88",
"n$	c #003282",
"o$	c #919CAC",
"p$	c #B6B8B9",
"q$	c #E1E1E1",
"r$	c #2551A0",
"s$	c #6C97D5",
"t$	c #7AA8E1",
"u$	c #8FBEEA",
"v$	c #9BC8E4",
"w$	c #5F676B",
"x$	c #AFB0B7",
"y$	c #76777C",
"z$	c #999AA0",
"A$	c #CFD0D9",
"B$	c #DEDEF0",
"C$	c #E7E7FF",
"D$	c #F3F3FF",
"E$	c #CCCCE2",
"F$	c #767678",
"G$	c #747474",
"H$	c #515252",
"I$	c #AAACAD",
"J$	c #9B9E9E",
"K$	c #95999B",
"L$	c #919596",
"M$	c #8A8F90",
"N$	c #646869",
"O$	c #6A6F71",
"P$	c #787F80",
"Q$	c #595D5E",
"R$	c #898989",
"S$	c #6F6F6E",
"T$	c #C0BFBF",
"U$	c #B4B3B2",
"V$	c #777777",
"W$	c #708CC0",
"X$	c #7799CE",
"Y$	c #80A6DD",
"Z$	c #8CAFD8",
"`$	c #859099",
" %	c #7E8690",
".%	c #D0CFD7",
"+%	c #7A7A7D",
"@%	c #D3D4DF",
"#%	c #E3E4F2",
"$%	c #C2C2C1",
"%%	c #F3F3FE",
"&%	c #F8F8FF",
"*%	c #E8E8EF",
"=%	c #7F7F81",
"-%	c #686868",
";%	c #747473",
">%	c #292929",
",%	c #9EA1A1",
"'%	c #959899",
")%	c #8F9395",
"!%	c #888E8F",
"~%	c #838889",
"{%	c #7A8081",
"]%	c #6E7677",
"^%	c #606566",
"/%	c #464646",
"(%	c #C5C5C4",
"_%	c #B2B1B0",
":%	c #889FC3",
"<%	c #8D929C",
"[%	c #8FA7C5",
"}%	c #8E99A8",
"|%	c #D4D5D9",
"1%	c #7C7B7C",
"2%	c #D8D8E3",
"3%	c #EAEBF9",
"4%	c #FCFCFF",
"5%	c #EBEBF0",
"6%	c #808083",
"7%	c #737372",
"8%	c #090808",
"9%	c #999C9D",
"0%	c #949898",
"a%	c #8D9293",
"b%	c #878C8D",
"c%	c #7F8486",
"d%	c #757B7C",
"e%	c #606364",
"f%	c #050505",
"g%	c #595957",
"h%	c #8892A3",
"i%	c #8D929B",
"j%	c #9EB8DC",
"k%	c #788494",
"l%	c #BEBFC8",
"m%	c #7A7A7E",
"n%	c #C3C4CC",
"o%	c #D9DAE5",
"p%	c #BFBFBE",
"q%	c #E5E6F7",
"r%	c #EEEDFF",
"s%	c #FBFBFE",
"t%	c #DBDBE9",
"u%	c #79797D",
"v%	c #676767",
"w%	c #1A1B1B",
"x%	c #7F8283",
"y%	c #8A8E8E",
"z%	c #747879",
"A%	c #626363",
"B%	c #252525",
"C%	c #141413",
"D%	c #656462",
"E%	c #C0C0C0",
"F%	c #003C89",
"G%	c #003D89",
"H%	c #003385",
"I%	c #818D9E",
"J%	c #9CA5B9",
"K%	c #A8BBDB",
"L%	c #B0C4E2",
"M%	c #8797AC",
"N%	c #939497",
"O%	c #717275",
"P%	c #A5A6AA",
"Q%	c #C0C0C7",
"R%	c #BFBEBE",
"S%	c #C8C8D8",
"T%	c #D9D9FF",
"U%	c #DADAFF",
"V%	c #A5A5D1",
"W%	c #6F6F70",
"X%	c #757574",
"Y%	c #1B1B1B",
"Z%	c #545454",
"`%	c #0E0E0D",
" &	c #424240",
".&	c #484745",
"+&	c #5A5958",
"@&	c #314874",
"#&	c #1B3F70",
"$&	c #1A3E70",
"%&	c #1A3D6F",
"&&	c #193E6F",
"*&	c #193D6E",
"=&	c #183D6D",
"-&	c #183C6E",
";&	c #9298A3",
">&	c #BAC7DE",
",&	c #8C96A2",
"'&	c #6D6D6E",
")&	c #949599",
"!&	c #ABABAF",
"~&	c #CACACC",
"{&	c #A1A1A7",
"]&	c #A7A7F4",
"^&	c #9797FF",
"/&	c #6F6F88",
"(&	c #676766",
"_&	c #848485",
":&	c #E0DFDC",
"<&	c #E1DFDB",
"[&	c #E0DDDA",
"}&	c #DEDBD8",
"|&	c #DCDAD6",
"1&	c #DBD8D3",
"2&	c #D9D6D1",
"3&	c #D6D3CE",
"4&	c #D2CEC9",
"5&	c #C4CDDE",
"6&	c #CFDAEC",
"7&	c #CED8E7",
"8&	c #A7ADB5",
"9&	c #727475",
"0&	c #99999C",
"a&	c #D0D0D3",
"b&	c #9F9FA0",
"c&	c #6E6E7E",
"d&	c #636377",
"e&	c #666663",
"f&	c #5A5A5A",
"g&	c #A1A2A6",
"h&	c #AEAEAE",
"i&	c #ACACAC",
"j&	c #7B7B7B",
"k&	c #D7DDE9",
"l&	c #E2E8F3",
"m&	c #E5EBF2",
"n&	c #DEE0E5",
"o&	c #ACADAD",
"p&	c #B4B5BA",
"q&	c #80807F",
"r&	c #606060",
"s&	c #585758",
"t&	c #777677",
"u&	c #EBEEF5",
"v&	c #FDFDFE",
"w&	c #EDEDFA",
"x&	c #B0B0B6",
"y&	c #7C7C7D",
"z&	c #6E6E6E",
"A&	c #757575",
"B&	c #FEFEFE",
"C&	c #C5C7D0",
"D&	c #B7B9C2",
"                                                                                                                                ",
"                                                            . .                                                                 ",
"                                      + + + +   + + + +     . .                       @ # $ % &     * = -                       ",
"                                      + ; ; +   + > , +     . .                         ' ) ! ~ { ] ^   - /                     ",
"                                      + ( _ +   + _ : +     . .                         <   [ } { ! | 1 - 2 3 4                 ",
"                  5 6 7 8 9           + 0 a +   + a b +     . .                 c   {   d e f g ] h i 1 - j k l m               ",
"              n o p   q r   s t       + u v +   + v w +     . .               x   y   z A z A B @ = i C - D E F a G             ",
"            H   I   J K J   |   L     + M N +   + N O +     . .         P   Q   R ~ S T z z z U V W X Y - Z `  ...N +.2 @.      ",
"        #.$.  %.&.*.J J K =.-.        + ;.N +   + N >.+     . .       ,.  '.  ).!.~ ~.A A z A f {.].^./.- (._.:.j <.[.          ",
"            }.  |.1.K 2.K J   . . . . . . O + 3.4.5.6.+ 7.8.. . . . . 9.0.a.b.c.A d.e.. . . . . . . f.g.- h.i.j.k.l.m.n.        ",
"        o.p.  q.r.&.=.s.J t.u.. v.w.x.+ + + + y.z.A.B.+ C.D.. . . E.  F.G.H.I.J.K.L.M.. ~.N.g.f.O.P.e.Q.- 2 <.R.S.T.  O.        ",
"    U.  V.o.W.X.Y.Z.`. +.+J s.. ++@+#+$+%+%+%+&+*+%+=+-+;+>+. . . ,+  '+)+!+~+{+]+^+/+. (+Q._+:+<+[+}+|+- 1+2+3+4+              ",
"    5+6+7+V.8+9+0+a+b+c+d+I s.. e+f+g+h+i+i+i+j+k+i+l+m+n+>+. . .   o+p+q+r+s+t+u+v+w+. 1 x+y+z+A+B+C+Q.- D+E+F+G+z             ",
"  H+  I+J+7+K+L+M+N+O+P+Q+R+S+. . . . . . T+U+V+W+i+X+Y+Z+`+. . .          @.@+@@@#@$@. . . . . . . %@&@>.*@=@-@;@>@            ",
"  ,@  '@)@!@~@{@]@^@/@(@_@:@<@. [@}@|@1@2@T+3@4@i+i+i+5@6@7@. . .       8@  9@0@a@b@c@. C d@e@f@g@h@i@j@k@l@m@n@o@p@  q@        ",
"r@  s@t@u@v@w@x@a+y@z@A@B@C@D@. N.E@F@G@H@I@J@. . . . . K@L@. . .         M@  N@O@P@Q@. R@S@T@U@V@W@X@Y@Z@`@ #.#+#d.  @#        ",
"##  $#%#&#*#=#-#;#>#,#'#)#!#~#. {#,#]#^#/#(#_#:#<#<#[#}#|#1#. . .           2#. 3#4#5#. 6#7#8#9#0#a#b#c#d#e#f#g#h#i#j#k#        ",
"l#m#n#o#p#q#r#s#t#u#v#w#2.x#w@. y#z#A#A#B#C#D#E#E#F#G#H#I#J#. . .           . K#L#M#N#. O#P#Q#R#S#T#U#V#W#X#Y#Z#`#N+ $.$        ",
"+$  @$#$t@$$%$&$*$=$-$;$>$,$'$. )$!$!$!$!$~${$!$!$]$^$/$($_$. . . . . . . .     :$  <$. . . . . . . [$}$|$1$2$3$4$5$  6$        ",
"7$  8$9$0$a$b$c$d$e$f$g$h$i$j$k$l$m$m$m$m$m$m$m$m$n$o$  p$q$. . .                 r$  s$t$u$v$w$x$y$z$A$k$B$C$D$E$F$.#G$        ",
"H$I$  J$K$L$M$N$O$P$&.Q$s R$S$T$l$m$m$m$m$m$m$m$m$n$  U$V$  . . .                   W$X$Y$Z$`$ %.%+%@%#%$%%%&%2 *%=%-%;%        ",
">%  ,%  '%)%!%~%{%]%^%V$!./%B (%l$m$m$m$m$m$m$m$m$n$  _%i#  . . .                       :%<%[%}%|%1%2%3%* &%4%2 5%6%-%7%        ",
"8%    9%0%a%b%c%d%e%^.}+Y f%g%$%l$m$m$m$m$m$m$m$m$n$h%        . .                       i%  j%k%l%m%n%o%p%q%r%s%t%u%v%G$        ",
"  w%  x%y%  z%  A%G$-%B%C%  D%E%  F%F%F%F%F%F%F%G%H%I%        . .                       J%K%L%M%N%O%P%Q%R%S%T%U%V%W%N+X%        ",
"    Y%    Z%f+.#      `% &.&+&  @&#&$&%&&&*&*&=&-&  ;&        . .                             >&,&'&)&!&~&{&]&^&/&(&  _&        ",
"          t t                   :&<&[&}&|&1&2&3&  4&          . .                           5&6&7&8&9&0&a&b&c&d&e&f&-%g&        ",
"                                {.++++h&h&++e+i&i&++j&        . .                             k&l&m&n&o&p&  q&r&s&g t&          ",
"                                                              . .                               u&  v&    w&x&y&z&A&            ",
"                                                              . .                                 B&          C&D&              ",
"                                                              . .                                                               ",
"                                                              . .                                                               ",
"                                                              . .                                                               "};
