/* XPM */
static char * mpd_pause_smplayer_play_xpm[] = {
"64 32 722 2",
"  	c None",
". 	c #000000",
"+ 	c #555753",
"@ 	c #979797",
"# 	c #969696",
"$ 	c #7C7C7C",
"% 	c #8E8E8E",
"& 	c #B0B0B0",
"* 	c #C3C3C3",
"= 	c #A0A0A0",
"- 	c #464744",
"; 	c #E8E8E7",
"> 	c #E5E6E4",
", 	c #E4E5E4",
"' 	c #828282",
") 	c #C1C1C1",
"! 	c #D7D7D7",
"~ 	c #D2D2D2",
"{ 	c #D0D0D0",
"] 	c #D1D1D1",
"^ 	c #D5D5D5",
"/ 	c #B6B7B5",
"( 	c #EBEBEA",
"_ 	c #BFC0BD",
": 	c #E7E8E6",
"< 	c #B7B7B7",
"[ 	c #9E9E9E",
"} 	c #CECECE",
"| 	c #8F8F8F",
"1 	c #383838",
"2 	c #FFFFFF",
"3 	c #E2E2E1",
"4 	c #90928F",
"5 	c #0B0C0C",
"6 	c #1D1E1F",
"7 	c #323333",
"8 	c #373736",
"9 	c #212121",
"0 	c #EDEDED",
"a 	c #CBCCCA",
"b 	c #EAEBEA",
"c 	c #808080",
"d 	c #2C2C2C",
"e 	c #303030",
"f 	c #2F2F2F",
"g 	c #616161",
"h 	c #BBBBBB",
"i 	c #373737",
"j 	c #E1E2E0",
"k 	c #A6A8A3",
"l 	c #D4D5D2",
"m 	c #DFDFDE",
"n 	c #2F3234",
"o 	c #484E50",
"p 	c #525A5C",
"q 	c #5E6667",
"r 	c #676B6D",
"s 	c #858585",
"t 	c #282828",
"u 	c #F0F1F0",
"v 	c #D8D9D6",
"w 	c #EEEFED",
"x 	c #848484",
"y 	c #CBCBCB",
"z 	c #363636",
"A 	c #353535",
"B 	c #2E2E2E",
"C 	c #3E3E3E",
"D 	c #E5E5E4",
"E 	c #B1B2AE",
"F 	c #BBBDB9",
"G 	c #E8E9E7",
"H 	c #5F6567",
"I 	c #61696B",
"J 	c #5C6466",
"K 	c #5D6567",
"L 	c #1C1C1C",
"M 	c #F2F2F1",
"N 	c #DEDFDD",
"O 	c #F0F0EF",
"P 	c #97A1A5",
"Q 	c #A1A0A0",
"R 	c #B8B8B8",
"S 	c #A6A6A6",
"T 	c #333333",
"U 	c #313131",
"V 	c #787878",
"W 	c #B4B4B4",
"X 	c #393939",
"Y 	c #444444",
"Z 	c #E9E9E8",
"` 	c #BEC0BD",
" .	c #C9CAC7",
"..	c #D3D4D2",
"+.	c #EAEAE9",
"@.	c #60615E",
"#.	c #2B2D2D",
"$.	c #707778",
"%.	c #6C7274",
"&.	c #676E70",
"*.	c #606769",
"=.	c #5A6264",
"-.	c #676C6D",
";.	c #F1F1F0",
">.	c #EFEFEE",
",.	c #909FAB",
"'.	c #98D8EF",
").	c #595656",
"!.	c #8C8C8C",
"~.	c #BEBEBE",
"{.	c #A7A7A7",
"].	c #DFDFDF",
"^.	c #727272",
"/.	c #4B4B4B",
"(.	c #EDEDEC",
"_.	c #CCCECB",
":.	c #D7D8D5",
"<.	c #ECEDEC",
"[.	c #D1D2D0",
"}.	c #757C7D",
"|.	c #6B7274",
"1.	c #646C6D",
"2.	c #5B6365",
"3.	c #919292",
"4.	c #999C9E",
"5.	c #C6CBCE",
"6.	c #EEEFEE",
"7.	c #D5D8DA",
"8.	c #A7A6A6",
"9.	c #8D9AAD",
"0.	c #84B0E1",
"a.	c #7FB9E9",
"b.	c #7EC7F0",
"c.	c #7BCEEB",
"d.	c #83979C",
"e.	c #6A6A6A",
"f.	c #D3D3D3",
"g.	c #9A9A9A",
"h.	c #323232",
"i.	c #7E7E7E",
"j.	c #DADADA",
"k.	c #DEDEDE",
"l.	c #DDDDDD",
"m.	c #B5B5B5",
"n.	c #F1F1F1",
"o.	c #DBDCDA",
"p.	c #ECECEB",
"q.	c #E2E3E2",
"r.	c #787976",
"s.	c #929391",
"t.	c #E4E4E2",
"u.	c #828788",
"v.	c #7E8384",
"w.	c #747B7D",
"x.	c #6F7677",
"y.	c #575F61",
"z.	c #5C6567",
"A.	c #586062",
"B.	c #888A8B",
"C.	c #B3B3B3",
"D.	c #444546",
"E.	c #4C788B",
"F.	c #4CC6F0",
"G.	c #73C2DC",
"H.	c #9D9D9E",
"I.	c #909AAC",
"J.	c #6996D7",
"K.	c #5D9ADD",
"L.	c #5CA7E3",
"M.	c #5EBAEC",
"N.	c #4FACCC",
"O.	c #49585C",
"P.	c #7D7B7B",
"Q.	c #868686",
"R.	c #C5C5C5",
"S.	c #9B9B9B",
"T.	c #E0E0E0",
"U.	c #D9D9DA",
"V.	c #D9D9D9",
"W.	c #949593",
"X.	c #5C5C5A",
"Y.	c #767676",
"Z.	c #6E7373",
"`.	c #858A8B",
" +	c #7D8384",
".+	c #797F80",
"++	c #6F7576",
"@+	c #646566",
"#+	c #595859",
"$+	c #545B5D",
"%+	c #858787",
"&+	c #AFAFAF",
"*+	c #5C5D5D",
"=+	c #345D6D",
"-+	c #4CCFF8",
";+	c #4CCAF2",
">+	c #4CC8F1",
",+	c #67BDDA",
"'+	c #9D9E9F",
")+	c #7B8EB6",
"!+	c #5380C4",
"~+	c #3F7ACD",
"{+	c #3782D5",
"]+	c #3C97DE",
"^+	c #4FB9EE",
"/+	c #5CBCDB",
"(+	c #364143",
"_+	c #0E0C0C",
":+	c #3B3B3B",
"<+	c #DCDCDC",
"[+	c #B3B8BA",
"}+	c #918B8B",
"|+	c #9D8C83",
"1+	c #818181",
"2+	c #E7E7E7",
"3+	c #C4C4C3",
"4+	c #5A5B58",
"5+	c #717271",
"6+	c #717171",
"7+	c #8B8F90",
"8+	c #8C9192",
"9+	c #898E8F",
"0+	c #808687",
"a+	c #777C7E",
"b+	c #737171",
"c+	c #6B6A6A",
"d+	c #575656",
"e+	c #464545",
"f+	c #25292A",
"g+	c #848688",
"h+	c #ADADAD",
"i+	c #5D5D5D",
"j+	c #003348",
"k+	c #00BAF6",
"l+	c #00B4ED",
"m+	c #00B2EC",
"n+	c #41ADD0",
"o+	c #506CA2",
"p+	c #3D67B0",
"q+	c #2861B8",
"r+	c #1860C5",
"s+	c #2579D2",
"t+	c #3A98DF",
"u+	c #51B9ED",
"v+	c #50ABC7",
"w+	c #2C3133",
"x+	c #232323",
"y+	c #B2AFAE",
"z+	c #9E6E59",
"A+	c #EF7E3A",
"B+	c #D2874E",
"C+	c #E1E0E0",
"D+	c #999B99",
"E+	c #797A79",
"F+	c #505050",
"G+	c #3A3A3B",
"H+	c #6D7070",
"I+	c #909495",
"J+	c #8D9192",
"K+	c #808586",
"L+	c #787777",
"M+	c #636363",
"N+	c #515151",
"O+	c #444343",
"P+	c #1D1E1E",
"Q+	c #636C6E",
"R+	c #5A6162",
"S+	c #888A8A",
"T+	c #494A49",
"U+	c #002F41",
"V+	c #00B5F0",
"W+	c #00B3EC",
"X+	c #41ADD1",
"Y+	c #AEAEAF",
"Z+	c #1353B3",
"`+	c #1660C5",
" @	c #267CD4",
".@	c #3C9ADF",
"+@	c #2A5A6F",
"@@	c #3E6773",
"#@	c #303333",
"$@	c #212020",
"%@	c #7E8081",
"&@	c #D66C42",
"*@	c #FF7C37",
"=@	c #FD8837",
"-@	c #F29141",
";@	c #D0B9A1",
">@	c #A1A2A3",
",@	c #E7E7E8",
"'@	c #A7A8AD",
")@	c #A5A7AE",
"!@	c #9FA2AA",
"~@	c #84868C",
"{@	c #939697",
"]@	c #939698",
"^@	c #909394",
"/@	c #8B9091",
"(@	c #848586",
"_@	c #858383",
":@	c #717070",
"<@	c #5E5D5D",
"[@	c #4C4C4C",
"}@	c #3D3C3C",
"|@	c #222526",
"1@	c #626A6C",
"2@	c #5F6566",
"3@	c #8E8F8F",
"4@	c #B1B1B1",
"5@	c #262626",
"6@	c #0B0D0E",
"7@	c #006484",
"8@	c #00B6F0",
"9@	c #40ADD0",
"0@	c #D4D6D6",
"a@	c #153F90",
"b@	c #1354B5",
"c@	c #165FC1",
"d@	c #091E33",
"e@	c #27587C",
"f@	c #6AC6F2",
"g@	c #69B0C4",
"h@	c #58595A",
"i@	c #9F5A3F",
"j@	c #FF7E37",
"k@	c #FD8B34",
"l@	c #F69842",
"m@	c #EC9734",
"n@	c #C6C7CF",
"o@	c #E7E7E9",
"p@	c #E9E9F8",
"q@	c #C8C8D2",
"r@	c #919192",
"s@	c #79797A",
"t@	c #808081",
"u@	c #434545",
"v@	c #989B9C",
"w@	c #96999A",
"x@	c #929697",
"y@	c #8A8E8F",
"z@	c #888888",
"A@	c #7F7E7E",
"B@	c #585757",
"C@	c #484747",
"D@	c #282626",
"E@	c #424849",
"F@	c #5B6366",
"G@	c #666A6C",
"H@	c #9B9A9A",
"I@	c #040404",
"J@	c #393735",
"K@	c #132E37",
"L@	c #0099CB",
"M@	c #00B5EF",
"N@	c #00B4EF",
"O@	c #3FABCF",
"P@	c #E6E7E8",
"Q@	c #143E8D",
"R@	c #051C3E",
"S@	c #0C3975",
"T@	c #3088E0",
"U@	c #5EAEE5",
"V@	c #79CEF3",
"W@	c #7DB0BF",
"X@	c #727373",
"Y@	c #5C4F4A",
"Z@	c #DF7134",
"`@	c #F68A33",
" #	c #EE9439",
".#	c #F39C3E",
"+#	c #D8AE86",
"@#	c #BEBFC7",
"##	c #DDDDE6",
"$#	c #8B8C8C",
"%#	c #656565",
"&#	c #5C5B5B",
"*#	c #D6D6D9",
"=#	c #676969",
"-#	c #9A9D9F",
";#	c #979B9C",
">#	c #949899",
",#	c #898C8C",
"'#	c #878787",
")#	c #7A7979",
"!#	c #656464",
"~#	c #525151",
"{#	c #434343",
"]#	c #202021",
"^#	c #596163",
"/#	c #5C6365",
"(#	c #656667",
"_#	c #727171",
":#	c #626261",
"<#	c #525353",
"[#	c #417889",
"}#	c #428AA1",
"|#	c #40889F",
"1#	c #1A82A3",
"2#	c #3AAACF",
"3#	c #E0E1E2",
"4#	c #041025",
"5#	c #1356B9",
"6#	c #1D67C9",
"7#	c #5399DD",
"8#	c #70B9EA",
"9#	c #88D4F4",
"0#	c #81ADBA",
"a#	c #898988",
"b#	c #86523A",
"c#	c #E1802F",
"d#	c #D78634",
"e#	c #AE8460",
"f#	c #96836C",
"g#	c #C8C8CA",
"h#	c #A8A8AA",
"i#	c #73736E",
"j#	c #666660",
"k#	c #626262",
"l#	c #585858",
"m#	c #6F6F6F",
"n#	c #A7A8AC",
"o#	c #7D7E7F",
"p#	c #A2A4A5",
"q#	c #9C9F9F",
"r#	c #999D9E",
"s#	c #95999A",
"t#	c #8A8D8D",
"u#	c #818080",
"v#	c #747272",
"w#	c #5F5E5E",
"x#	c #4E4E4E",
"y#	c #292727",
"z#	c #3F4445",
"A#	c #5A6163",
"B#	c #D7D7D6",
"C#	c #DADDE1",
"D#	c #D3D8DD",
"E#	c #D3D7DD",
"F#	c #D3D7DC",
"G#	c #D3D6DC",
"H#	c #D1D4D9",
"I#	c #F6F5F6",
"J#	c #9EB0B6",
"K#	c #2F8CAA",
"L#	c #D9DCDD",
"M#	c #164396",
"N#	c #154CA6",
"O#	c #1959BA",
"P#	c #4D89D5",
"Q#	c #6AA8E3",
"R#	c #81C2EC",
"S#	c #98DDFA",
"T#	c #7D9EA8",
"U#	c #3F4244",
"V#	c #945527",
"W#	c #8F7056",
"X#	c #757786",
"Y#	c #B0B1B3",
"Z#	c #D2D2D3",
"`#	c #9C9C9E",
" $	c #8383C6",
".$	c #7575CF",
"+$	c #6B6B6F",
"@$	c #5F5F5F",
"#$	c #8B8C8E",
"$$	c #838485",
"%$	c #9DA0A1",
"&$	c #9A9E9E",
"*$	c #868A8B",
"=$	c #777676",
"-$	c #706F6F",
";$	c #5D5C5C",
">$	c #343333",
",$	c #2E3232",
"'$	c #5D6566",
")$	c #586163",
"!$	c #707072",
"~$	c #949494",
"{$	c #BDBCBC",
"]$	c #0E3478",
"^$	c #002F7B",
"/$	c #002474",
"($	c #8E98A9",
"_$	c #A4B2B5",
":$	c #458396",
"<$	c #D8D9DA",
"[$	c #154395",
"}$	c #5384CC",
"|$	c #679BDC",
"1$	c #7DB4E6",
"2$	c #91CBEF",
"3$	c #A5DFF7",
"4$	c #5E7177",
"5$	c #656260",
"6$	c #6F6E71",
"7$	c #A7A8B0",
"8$	c #B7B7BD",
"9$	c #C2C2C2",
"0$	c #B7B7C4",
"a$	c #CCCCFF",
"b$	c #C5C5FF",
"c$	c #8D8DBB",
"d$	c #6C6C6B",
"e$	c #7A7A7A",
"f$	c #767777",
"g$	c #9EA0A1",
"h$	c #9B9E9F",
"i$	c #969A9A",
"j$	c #929798",
"k$	c #484A4A",
"l$	c #2D2C2C",
"m$	c #161515",
"n$	c #2E3131",
"o$	c #686F71",
"p$	c #60686A",
"q$	c #575A5B",
"r$	c #929292",
"s$	c #919090",
"t$	c #BDBDBC",
"u$	c #194183",
"v$	c #003D88",
"w$	c #003282",
"x$	c #919CAC",
"y$	c #B6B8B9",
"z$	c #E1E1E1",
"A$	c #2551A0",
"B$	c #6C97D5",
"C$	c #7AA8E1",
"D$	c #8FBEEA",
"E$	c #9BC8E4",
"F$	c #5F676B",
"G$	c #AFB0B7",
"H$	c #76777C",
"I$	c #999AA0",
"J$	c #CFD0D9",
"K$	c #DEDEF0",
"L$	c #E7E7FF",
"M$	c #F3F3FF",
"N$	c #CCCCE2",
"O$	c #767678",
"P$	c #747474",
"Q$	c #515252",
"R$	c #AAACAD",
"S$	c #9B9E9E",
"T$	c #95999B",
"U$	c #919596",
"V$	c #8A8F90",
"W$	c #646869",
"X$	c #6A6F71",
"Y$	c #787F80",
"Z$	c #595D5E",
"`$	c #898989",
" %	c #6F6F6E",
".%	c #C0BFBF",
"+%	c #B4B3B2",
"@%	c #777777",
"#%	c #708CC0",
"$%	c #7799CE",
"%%	c #80A6DD",
"&%	c #8CAFD8",
"*%	c #859099",
"=%	c #7E8690",
"-%	c #D0CFD7",
";%	c #7A7A7D",
">%	c #D3D4DF",
",%	c #E3E4F2",
"'%	c #C2C2C1",
")%	c #F3F3FE",
"!%	c #F8F8FF",
"~%	c #E8E8EF",
"{%	c #7F7F81",
"]%	c #686868",
"^%	c #747473",
"/%	c #292929",
"(%	c #9EA1A1",
"_%	c #959899",
":%	c #8F9395",
"<%	c #888E8F",
"[%	c #838889",
"}%	c #7A8081",
"|%	c #6E7677",
"1%	c #606566",
"2%	c #464646",
"3%	c #C5C5C4",
"4%	c #B2B1B0",
"5%	c #889FC3",
"6%	c #8D929C",
"7%	c #8FA7C5",
"8%	c #8E99A8",
"9%	c #D4D5D9",
"0%	c #7C7B7C",
"a%	c #D8D8E3",
"b%	c #EAEBF9",
"c%	c #FCFCFF",
"d%	c #EBEBF0",
"e%	c #808083",
"f%	c #737372",
"g%	c #090808",
"h%	c #999C9D",
"i%	c #949898",
"j%	c #8D9293",
"k%	c #878C8D",
"l%	c #7F8486",
"m%	c #757B7C",
"n%	c #606364",
"o%	c #050505",
"p%	c #595957",
"q%	c #8892A3",
"r%	c #8D929B",
"s%	c #9EB8DC",
"t%	c #788494",
"u%	c #BEBFC8",
"v%	c #7A7A7E",
"w%	c #C3C4CC",
"x%	c #D9DAE5",
"y%	c #BFBFBE",
"z%	c #E5E6F7",
"A%	c #EEEDFF",
"B%	c #FBFBFE",
"C%	c #DBDBE9",
"D%	c #79797D",
"E%	c #676767",
"F%	c #1A1B1B",
"G%	c #7F8283",
"H%	c #8A8E8E",
"I%	c #747879",
"J%	c #626363",
"K%	c #252525",
"L%	c #141413",
"M%	c #656462",
"N%	c #C0C0C0",
"O%	c #003C89",
"P%	c #003D89",
"Q%	c #003385",
"R%	c #818D9E",
"S%	c #9CA5B9",
"T%	c #A8BBDB",
"U%	c #B0C4E2",
"V%	c #8797AC",
"W%	c #939497",
"X%	c #717275",
"Y%	c #A5A6AA",
"Z%	c #C0C0C7",
"`%	c #BFBEBE",
" &	c #C8C8D8",
".&	c #D9D9FF",
"+&	c #DADAFF",
"@&	c #A5A5D1",
"#&	c #6F6F70",
"$&	c #757574",
"%&	c #1B1B1B",
"&&	c #545454",
"*&	c #0E0E0D",
"=&	c #424240",
"-&	c #484745",
";&	c #5A5958",
">&	c #314874",
",&	c #1B3F70",
"'&	c #1A3E70",
")&	c #1A3D6F",
"!&	c #193E6F",
"~&	c #193D6E",
"{&	c #183D6D",
"]&	c #183C6E",
"^&	c #9298A3",
"/&	c #BAC7DE",
"(&	c #8C96A2",
"_&	c #6D6D6E",
":&	c #949599",
"<&	c #ABABAF",
"[&	c #CACACC",
"}&	c #A1A1A7",
"|&	c #A7A7F4",
"1&	c #9797FF",
"2&	c #6F6F88",
"3&	c #676766",
"4&	c #848485",
"5&	c #E0DFDC",
"6&	c #E1DFDB",
"7&	c #E0DDDA",
"8&	c #DEDBD8",
"9&	c #DCDAD6",
"0&	c #DBD8D3",
"a&	c #D9D6D1",
"b&	c #D6D3CE",
"c&	c #D2CEC9",
"d&	c #C4CDDE",
"e&	c #CFDAEC",
"f&	c #CED8E7",
"g&	c #A7ADB5",
"h&	c #727475",
"i&	c #99999C",
"j&	c #D0D0D3",
"k&	c #9F9FA0",
"l&	c #6E6E7E",
"m&	c #636377",
"n&	c #666663",
"o&	c #5A5A5A",
"p&	c #A1A2A6",
"q&	c #AEAEAE",
"r&	c #ACACAC",
"s&	c #7B7B7B",
"t&	c #D7DDE9",
"u&	c #E2E8F3",
"v&	c #E5EBF2",
"w&	c #DEE0E5",
"x&	c #ACADAD",
"y&	c #B4B5BA",
"z&	c #80807F",
"A&	c #606060",
"B&	c #585758",
"C&	c #777677",
"D&	c #EBEEF5",
"E&	c #FDFDFE",
"F&	c #EDEDFA",
"G&	c #B0B0B6",
"H&	c #7C7C7D",
"I&	c #6E6E6E",
"J&	c #757575",
"K&	c #FEFEFE",
"L&	c #C5C7D0",
"M&	c #B7B9C2",
"                                                                                                                                ",
"                                                            . .                                                                 ",
"                                      + + + +   + + + +     . .                       @ # $ % &     * = -                       ",
"                                      + ; ; +   + > , +     . .                         ' ) ! ~ { ] ^   - /                     ",
"                                      + ( _ +   + _ : +     . .                         <   [ } { ! | 1 - 2 3 4                 ",
"                  5 6 7 8 9           + 0 a +   + a b +     . .                 c   {   d e f g ] h i 1 - j k l m               ",
"              n o p   q r   s t       + u v +   + v w +     . .               x   y   z A z A B @ = i C - D E F a G             ",
"            H   I   J K J   |   L     + M N +   + N O +     . .         P   Q   R ~ S T z z z U V W X Y - Z `  ...N +.2 @.      ",
"        #.$.  %.&.*.J J K =.-.        + ;.N +   + N >.+     . .       ,.  '.  ).!.~ ~.A A z A f {.].^./.- (._.:.j <.[.          ",
"            }.  |.1.K 2.K J   3.  L 4.+ O O + 5.+ 6.6.+ 7.8.. .     9.0.a.b.c.d.A e.f.g.T e h.i.j.k.l.m.- n.o.p.q.r.s.t.        ",
"        u.v.  w.x.&.=.y.J z.A.B.C.D.E.+ + + + F.+ + + + G.H.. .   I.  J.K.L.M.N.O.P.Q.R.~.S.m.l.T.U.f.V.- 2 <.W.X.Y.  T.        ",
"    Z.  `.u. +.+++@+#+h.$+J y.%+&+*+=+-+;+;+;+;+;+;+;+>+,+'+. .   )+  !+~+{+]+^+/+(+_+:+g.V.<+[+}+|+1+2+- 3+4+5+6+              ",
"    7+8+9+`.0+a+b+c+d+e+f+I y.g+h+i+j+k+l+l+l+l+l+l+l+m+n+'+. .     o+p+q+r+s+t+u+v+w+x+1 R.y+z+A+B+C+V.- D+E+F+G+z             ",
"  H+  I+J+9+K+i.L+M+N+O+P+Q+R+S+&+T+U+V+l+W+l+l+l+l+l+m+X+Y+. .           Z+`+ @.@+@@@#@$@%@&@*@=@-@;@>@>.,@'@)@!@~@            ",
"  {@  ]@^@/@(@_@:@<@[@}@|@1@2@3@4@5@6@7@8@W+l+l+l+l+l+m+9@0@. . .       a@  b@c@d@e@f@g@C h@i@j@k@l@m@n@o@p@q@r@s@t@  k.        ",
"u@  v@w@x@y@z@A@c+B@C@D@E@F@G@H@S.I@J@K@L@M@N@N@N@N@N@N@O@P@. . .         Q@  R@S@T@U@V@W@X@Y@Z@`@ #.#+#@###$#%#&#e.  *#        ",
"=#  -#;#>#,#'#)#!#~#{#]#^#/#(#i._#{#:#<#[#}#}#}#}#}#|#1#2#3#. . .           4#  5#6#7#8#9#0#a#b#c#d#e#f#g#h#i#j#k#l#m#n#        ",
"o#p#q#r#s#t#u#v#w#x#y#z#2.A#z@B#C#D#E#E#F#G#G#G#G#H#I#J#K#L#. . .             M#N#O#P#Q#R#S#T#U#V#W#X#Y#Z#`# $.$+$M+@$#$        ",
"$$  %$&$w@*$=$-$;$>$,$'$)$!$~${$]$^$^$^$^$^$^$^$^$/$($_$:$<$. . .               [$  }$|$1$2$3$4$5$6$7$8$9$0$a$b$c$d$  e$        ",
"f$  g$h$i$j$k$l$m$n$o$p$q$r$s$t$u$v$v$v$v$v$v$v$v$w$x$  y$z$. . .                 A$  B$C$D$E$F$G$H$I$J$t$K$L$M$N$O$%#P$        ",
"Q$R$  S$T$U$V$W$X$Y$&.Z$s `$ %.%u$v$v$v$v$v$v$v$v$w$  +%@%  . . .                   #%$%%%&%*%=%-%;%>%,%'%)%!%2 ~%{%]%^%        ",
"/%  (%  _%:%<%[%}%|%1%@%!.2%B 3%u$v$v$v$v$v$v$v$v$w$  4%l#  . . .                       5%6%7%8%9%0%a%b%* !%c%2 d%e%]%f%        ",
"g%    h%i%j%k%l%m%n%^.1+Y o%p%'%u$v$v$v$v$v$v$v$v$w$q%        . .                       r%  s%t%u%v%w%x%y%z%A%B%C%D%E%P$        ",
"  F%  G%H%  I%  J%P$]%K%L%  M%N%  O%O%O%O%O%O%O%P%Q%R%        . .                       S%T%U%V%W%X%Y%Z%`% &.&+&@&#&M+$&        ",
"    %&    &&i+%#      *&=&-&;&  >&,&'&)&!&~&~&{&]&  ^&        . .                             /&(&_&:&<&[&}&|&1&2&3&  4&        ",
"          t t                   5&6&7&8&9&0&a&b&  c&          . .                           d&e&f&g&h&i&j&k&l&m&n&o&]%p&        ",
"                                {.&+&+q&q&&+h+r&r&&+s&        . .                             t&u&v&w&x&y&  z&A&B&g C&          ",
"                                                              . .                               D&  E&    F&G&H&I&J&            ",
"                                                              . .                                 K&          L&M&              ",
"                                                              . .                                                               ",
"                                                              . .                                                               ",
"                                                              . .                                                               "};
