/* XPM */
static char * mto_unknown_xpm[] = {
"64 32 472 2",
"  	c None",
". 	c #000000",
"+ 	c #AFB0AC",
"@ 	c #716E68",
"# 	c #5D5E57",
"$ 	c #979798",
"% 	c #5D6057",
"& 	c #ADAAAB",
"* 	c #DCD9DE",
"= 	c #DDDFD6",
"- 	c #69675D",
"; 	c #34312B",
"> 	c #504C47",
", 	c #3A332C",
"' 	c #25211C",
") 	c #88817B",
"! 	c #7D817B",
"~ 	c #878883",
"{ 	c #C0C1C8",
"] 	c #CCCAC7",
"^ 	c #EEEBEC",
"/ 	c #F1F1F2",
"( 	c #595550",
"_ 	c #3E3933",
": 	c #241F1B",
"< 	c #2B2B25",
"[ 	c #7A716C",
"} 	c #393228",
"| 	c #4C4943",
"1 	c #4B433A",
"2 	c #FFFFFE",
"3 	c #FEFEFF",
"4 	c #FDFEFE",
"5 	c #F5F2F8",
"6 	c #F5F4F7",
"7 	c #FAF8F9",
"8 	c #8C8B8A",
"9 	c #88847C",
"0 	c #5C574A",
"a 	c #4A4138",
"b 	c #79714E",
"c 	c #7F7555",
"d 	c #625F53",
"e 	c #ACA699",
"f 	c #F2F3F3",
"g 	c #FEFEFE",
"h 	c #FDFDFE",
"i 	c #F3F4F8",
"j 	c #FAFAFD",
"k 	c #FDFCFD",
"l 	c #312E26",
"m 	c #0F0E06",
"n 	c #4B433F",
"o 	c #171710",
"p 	c #1A170D",
"q 	c #211E10",
"r 	c #332F23",
"s 	c #7F7B6D",
"t 	c #EFF2F2",
"u 	c #F7F7F7",
"v 	c #FDFDFD",
"w 	c #FFFFFF",
"x 	c #F9FBFD",
"y 	c #F2F5F9",
"z 	c #F2F1F9",
"A 	c #64645D",
"B 	c #54504A",
"C 	c #423831",
"D 	c #39322A",
"E 	c #786E4B",
"F 	c #4B4539",
"G 	c #5B5451",
"H 	c #6A5F61",
"I 	c #3F3437",
"J 	c #342C25",
"K 	c #5A5950",
"L 	c #87867D",
"M 	c #F8FBFF",
"N 	c #F6F5FA",
"O 	c #FCFAFC",
"P 	c #211C16",
"Q 	c #25201C",
"R 	c #574D4D",
"S 	c #0C0905",
"T 	c #0D0B08",
"U 	c #13110B",
"V 	c #211F14",
"W 	c #57594C",
"X 	c #E4E6E1",
"Y 	c #DFDDE0",
"Z 	c #B8B0B4",
"` 	c #7D7179",
" .	c #F8FDFF",
"..	c #8C8884",
"+.	c #BEBDB6",
"@.	c #F9F9F9",
"#.	c #C4C2C2",
"$.	c #DAD7D7",
"%.	c #040404",
"&.	c #9C9A9A",
"*.	c #403F37",
"=.	c #3C3932",
"-.	c #49403A",
";.	c #332D1E",
">.	c #544F33",
",.	c #4D4638",
"'.	c #8C8477",
").	c #AEA7A8",
"!.	c #827980",
"~.	c #372D2D",
"{.	c #29231E",
"].	c #6D6C65",
"^.	c #EAEDF4",
"/.	c #F5F1F4",
"(.	c #A08F8A",
"_.	c #B7B5B5",
":.	c #5A5959",
"<.	c #686666",
"[.	c #888686",
"}.	c #D1CFCF",
"|.	c #918E88",
"1.	c #4C4743",
"2.	c #423A37",
"3.	c #362E2B",
"4.	c #262219",
"5.	c #29231D",
"6.	c #1B1713",
"7.	c #201A16",
"8.	c #2C2D23",
"9.	c #8C8D85",
"0.	c #C8C9C4",
"a.	c #D2CECF",
"b.	c #EDEBED",
"c.	c #FAFCFF",
"d.	c #3C2E24",
"e.	c #767364",
"f.	c #C9C7C7",
"g.	c #BCBABA",
"h.	c #DAD8D8",
"i.	c #1F1E1E",
"j.	c #C5C3C3",
"k.	c #515050",
"l.	c #CDCBCB",
"m.	c #67655D",
"n.	c #030000",
"o.	c #49443D",
"p.	c #393631",
"q.	c #1D1A11",
"r.	c #272516",
"s.	c #3A3727",
"t.	c #7F7C69",
"u.	c #F3F3F2",
"v.	c #CFC8CE",
"w.	c #7D7276",
"x.	c #180D0D",
"y.	c #D5D4D4",
"z.	c #E0E0E4",
"A.	c #A7A6A2",
"B.	c #DDD5D7",
"C.	c #D7D5D5",
"D.	c #302F2F",
"E.	c #B3B1B1",
"F.	c #010101",
"G.	c #B6B4B4",
"H.	c #605F5F",
"I.	c #555454",
"J.	c #DBD9D9",
"K.	c #7B7976",
"L.	c #76726E",
"M.	c #353027",
"N.	c #534A3D",
"O.	c #413B2A",
"P.	c #383026",
"Q.	c #3B342C",
"R.	c #49423D",
"S.	c #3F3737",
"T.	c #48423B",
"U.	c #757772",
"V.	c #B1B1AB",
"W.	c #D7D6DD",
"X.	c #847672",
"Y.	c #8E887B",
"Z.	c #CCCACA",
"`.	c #8F8D8D",
" +	c #8F8E8E",
".+	c #959494",
"++	c #363535",
"@+	c #403F3F",
"#+	c #DEDCDC",
"$+	c #BBB9B9",
"%+	c #858484",
"&+	c #838181",
"*+	c #6C6964",
"=+	c #231F1C",
"-+	c #443D37",
";+	c #100E07",
">+	c #0B0A07",
",+	c #14110A",
"'+	c #1F1E15",
")+	c #575446",
"!+	c #E4E6E3",
"~+	c #F5F4F9",
"{+	c #CAC7CE",
"]+	c #887E83",
"^+	c #F3F3F6",
"/+	c #67635D",
"(+	c #615E50",
"_+	c #191919",
":+	c #B8B6B6",
"<+	c #BFBDBD",
"[+	c #030303",
"}+	c #C2C0C0",
"|+	c #C6C4C4",
"1+	c #908E8E",
"2+	c #ABA9A9",
"3+	c #C7C5C5",
"4+	c #020202",
"5+	c #DEDBDB",
"6+	c #050505",
"7+	c #64635C",
"8+	c #383833",
"9+	c #433A33",
"0+	c #2E271F",
"a+	c #4B432F",
"b+	c #3F382E",
"c+	c #575248",
"d+	c #7B7472",
"e+	c #726B6D",
"f+	c #403531",
"g+	c #2E2927",
"h+	c #88847F",
"i+	c #E3E0E4",
"j+	c #C5C1C4",
"k+	c #C9BEBD",
"l+	c #D4CFCD",
"m+	c #8B8A8A",
"n+	c #D4D2D2",
"o+	c #565555",
"p+	c #B0AEAE",
"q+	c #9A9B93",
"r+	c #67615D",
"s+	c #393735",
"t+	c #352F2A",
"u+	c #16110E",
"v+	c #161310",
"w+	c #12100D",
"x+	c #18150F",
"y+	c #2C2B25",
"z+	c #8A8A83",
"A+	c #C7CFD2",
"B+	c #F0F2F5",
"C+	c #F3EFF1",
"D+	c #C4C1C7",
"E+	c #63554D",
"F+	c #41392B",
"G+	c #CECDCC",
"H+	c #2F2E27",
"I+	c #322F2B",
"J+	c #322B27",
"K+	c #232017",
"L+	c #353120",
"M+	c #323026",
"N+	c #645C4D",
"O+	c #B3B4B7",
"P+	c #C6C1C5",
"Q+	c #7E777A",
"R+	c #473C3C",
"S+	c #A7A2A2",
"T+	c #C0BCC3",
"U+	c #8A857C",
"V+	c #A7A09B",
"W+	c #D6D3D4",
"X+	c #878581",
"Y+	c #625B59",
"Z+	c #4F4941",
"`+	c #39312B",
" @	c #322C23",
".@	c #262119",
"+@	c #231F1D",
"@@	c #272220",
"#@	c #231E19",
"$@	c #37312C",
"%@	c #636866",
"&@	c #D3D1CE",
"*@	c #F8F7F6",
"=@	c #C0BDC2",
"-@	c #968A87",
";@	c #71645A",
">@	c #BDBBBB",
",@	c #D3D1D1",
"'@	c #858383",
")@	c #7E7A74",
"!@	c #150F0D",
"~@	c #3E3830",
"{@	c #292724",
"]@	c #1A1610",
"^@	c #1D1913",
"/@	c #25211B",
"(@	c #48453B",
"_@	c #BEC3C5",
":@	c #F6F4F5",
"<@	c #C0BFCA",
"[@	c #877D81",
"}@	c #BCB9BD",
"|@	c #3D3325",
"1@	c #6D645A",
"2@	c #939191",
"3@	c #DDDBDB",
"4@	c #787672",
"5@	c #75716C",
"6@	c #4A413B",
"7@	c #463931",
"8@	c #5A5038",
"9@	c #35302B",
"0@	c #4B4443",
"a@	c #433D3A",
"b@	c #261D1B",
"c@	c #322D28",
"d@	c #6B6765",
"e@	c #F1F2F4",
"f@	c #C1BEC0",
"g@	c #AEA5A3",
"h@	c #A29B95",
"i@	c #CFCDCD",
"j@	c #6F6E6E",
"k@	c #161616",
"l@	c #5C5C5C",
"m@	c #5D5C5C",
"n@	c #5C5B5B",
"o@	c #5E5D5D",
"p@	c #D0CECE",
"q@	c #B1AFAF",
"r@	c #24211D",
"s@	c #4D4947",
"t@	c #2E251D",
"u@	c #2C271D",
"v@	c #484233",
"w@	c #4B473D",
"x@	c #8E908E",
"y@	c #CED3DF",
"z@	c #E7EAF0",
"A@	c #EFEDEF",
"B@	c #DEDFE2",
"C@	c #8E8281",
"D@	c #4A382B",
"E@	c #A19E96",
"F@	c #CECBCB",
"G@	c #6E6D6D",
"H@	c #DCDADA",
"I@	c #403B37",
"J@	c #3A3631",
"K@	c #423B36",
"L@	c #312C27",
"M@	c #050300",
"N@	c #3C3631",
"O@	c #130F0D",
"P@	c #9A9DA0",
"Q@	c #EBEDF2",
"R@	c #A1A9AF",
"S@	c #E8EAED",
"T@	c #CDCCCF",
"U@	c #E3DBDE",
"V@	c #CAC5C9",
"W@	c #C2BFC1",
"X@	c #CECCCC",
"Y@	c #939292",
"Z@	c #0E0E0E",
"`@	c #686767",
" #	c #100F0F",
".#	c #555555",
"+#	c #9B9A9A",
"@#	c #3B3634",
"##	c #554F4B",
"$#	c #302A26",
"%#	c #1B1814",
"&#	c #504B48",
"*#	c #15100C",
"=#	c #848186",
"-#	c #9FA7AC",
";#	c #94959D",
">#	c #EBE7EA",
",#	c #F0EAEF",
"'#	c #B9B7BC",
")#	c #C4BEC2",
"!#	c #666464",
"~#	c #959393",
"{#	c #3B3A3A",
"]#	c #ACAAAA",
"^#	c #272626",
"/#	c #C8C6C6",
"(#	c #767372",
"_#	c #504A45",
":#	c #554D4A",
"<#	c #3F3835",
"[#	c #76736F",
"}#	c #332D2D",
"|#	c #696561",
"1#	c #94908F",
"2#	c #948E90",
"3#	c #959395",
"4#	c #A5A2A7",
"5#	c #A5A3A6",
"6#	c #0D0D0D",
"7#	c #4D4D4D",
"8#	c #9D9494",
"9#	c #837872",
"0#	c #777072",
"a#	c #8D8581",
"b#	c #787071",
"c#	c #665F5A",
"d#	c #8A8480",
"e#	c #A19B9B",
"f#	c #A9A5A4",
"g#	c #CAC7C8",
"h#	c #636262",
"i#	c #9F9D9D",
"j#	c #5C5652",
"k#	c #46423F",
"l#	c #514B46",
"m#	c #5C524C",
"n#	c #B8B4B8",
"o#	c #CCCACE",
"p#	c #BABEC1",
"q#	c #CCCDD2",
"r#	c #48423D",
"s#	c #524B47",
"t#	c #5C544D",
"u#	c #69605D",
"v#	c #A8A9AC",
"w#	c #A8A9AE",
"x#	c #AAA8AD",
"y#	c #949393",
"z#	c #2F2B27",
"A#	c #2D2923",
"B#	c #443C38",
"C#	c #706B67",
"D#	c #958E8B",
"E#	c #B4B0AF",
"F#	c #B3B2B5",
"G#	c #948D8B",
"H#	c #372922",
"I#	c #3D362D",
"J#	c #57473F",
"K#	c #4D4945",
"L#	c #BFBCB6",
"M#	c #999599",
"N#	c #A6A0A0",
"O#	c #68635F",
"P#	c #48392F",
"Q#	c #63534E",
"R#	c #443E39",
"S#	c #605854",
"T#	c #9FA0A2",
"U#	c #D2CCCC",
"V#	c #989391",
"W#	c #473027",
"X#	c #6A6465",
"Y#	c #6C6A69",
"Z#	c #8F8780",
"`#	c #A6A1A2",
" $	c #B6B6B4",
".$	c #322920",
"+$	c #47403A",
"@$	c #A8A6A7",
"#$	c #838488",
"$$	c #8B8B8E",
"%$	c #BDBBBC",
"&$	c #191410",
"*$	c #15100F",
"=$	c #3B3837",
"-$	c #4D4B4E",
";$	c #A3A3A6",
"                                                                . . .                                                           ",
"                        + @ # $ % & * =                       .       .                                                         ",
"                      - ; > , ' ) ! ~ { ] ^ /                         .                                                         ",
"                    ( _ : < [ } | 1 2 3 4 5 6 7                     . .                                                         ",
"                    8 9 0 a b c d e f 2 g h i j k                 . .                                                           ",
"                    l m n o p q r s t u v w x y z h               .                                                             ",
"                    A B C D E F G H I J K L M w N O               .                                                             ",
"                    P Q R S T U V W X Y Z `  ...+.@.                                                    #.$.%.&.#.              ",
"                    *.=.-.;.>.,.'.).!.~.{.].^./.(.                .                                   _.:.. <.. [.  }.          ",
"                  |.1.2.3.4.5.6.7.8.9.0.a.b.c.d.e.w               .                                 f.. g.:.#.h.i.j.k.l.        ",
"                  m.n.o.p.q.r.s.t.u.v.w.x.y.z.A.B.                                              C.D.. E.F.G.  f.H._.I.J.        ",
"                  K.L.M.N.O.P.Q.R.S.T.U.V.w W.X.Y.            . . .                 Z.`. + + +.+++@+#+$+.        +%+&+.         ",
"                  *+=+-+;+>+,+'+)+!+~+{+]+^+/+(+0.              . . . .           l._+I.:+:+<+[+}+|+  1+2+|+    3+4+5+6+        ",
"                  7+8+9+0+a+b+c+d+e+f+g+h+i+j+k+l+                . . . . . .     m+I.n+     +o+}.     +:+        6+#+. p+      ",
"                q+r+s+t+u+v+w+x+y+z+A+B+C+D+E+F+G+    . . . . . . . . . . . . .   m+:+       +:+       +:+        6+}.<+m+      ",
"                  H+I+J+K+L+M+N+O+P+Q+R+S+T+U+V+W+    . . . . . . . . . . . . .   m+:+       +:+       +:+        6+  :+m+      ",
"                X+Y+Z+`+ @.@+@@@#@$@%@&@*@=@-@;@                    . . . . .     m+>@       +>@       +:+        6+,@'@m+      ",
"                )@!@~@{@]@^@/@(@_@:@<@[@#+}@|@1@              . . . . .            +4+n+    2@4+       +:+        6+3@4+3+      ",
"                4@5@6@7@8@b+9@0@a@b@c@d@e@f@g@h@              . . .               i@j@k@l@m@n@. o@n+   +o+p@    q@. #+6+        ",
"                r@s@-.t@u@v@w@x@w y@z@A@B@C@D@E@                                    #.F@l.l.l.l.G@4+>@i@6+H@    1+<+f.6+        ",
"                I@J@K@L@M@N@O@P@Q@R@S@w T@U@V@W@                                                X@Y@Z@`@. %+  ,@ #_..#+#        ",
"                  @###$#%#&#*#=#-#;#>#,#'#)#. !#          .   . . . . . . .       . . .             J.Z@~#{#l.]#^#/#++l.        ",
"                    (#_#:#<#[#}#|#1#2#3#4#5#. .         . .         .           .       .             }+<+. 6#. f.n+7#j.        ",
"                        8#9#0#a#b#c#d#e#f#g#. .         . .         .         .           .               #+h#_.i@. i#          ",
"                          j#k#l#m#n#o#p#q#  .   .     .   .         .         .           .                       l.            ",
"                          r#s#t#u#v#w#x#    .   .     .   .         .         .           .                                     ",
"                        y#z#A#B#C#D#E#F#    .     . .     .         .         .           .                                     ",
"                        G#H#I#J#K#L#M#N#    .     . .     .         .         .           .                                     ",
"                          O#P#Q#R#S#T#U#    .             .         .           .       .                                       ",
"                          V#W#X#Y#Z#`#      .             .         .             . . .                                         ",
"                         $.$+$@$#$$$                                                                                            ",
"                        %$&$*$=$-$;$                                                                                            "};
