/* XPM */
static char * mto_off_xpm[] = {
"64 32 454 2",
"  	c None",
". 	c #FF0000",
"+ 	c #AFB0AC",
"@ 	c #716E68",
"# 	c #5D5E57",
"$ 	c #979798",
"% 	c #5D6057",
"& 	c #ADAAAB",
"* 	c #DCD9DE",
"= 	c #DDDFD6",
"- 	c #69675D",
"; 	c #34312B",
"> 	c #504C47",
", 	c #3A332C",
"' 	c #25211C",
") 	c #88817B",
"! 	c #7D817B",
"~ 	c #878883",
"{ 	c #C0C1C8",
"] 	c #CCCAC7",
"^ 	c #EEEBEC",
"/ 	c #F1F1F2",
"( 	c #FF0808",
"_ 	c #9B322F",
": 	c #50332E",
"< 	c #241F1B",
"[ 	c #2B2B25",
"} 	c #7A716C",
"| 	c #393228",
"1 	c #4C4943",
"2 	c #4B433A",
"3 	c #FFFFFE",
"4 	c #FEFEFF",
"5 	c #FDFEFE",
"6 	c #F5F2F8",
"7 	c #F5F4F7",
"8 	c #FAF8F9",
"9 	c #E91716",
"0 	c #9C342C",
"a 	c #5B3A32",
"b 	c #79714E",
"c 	c #7F7555",
"d 	c #625F53",
"e 	c #ACA699",
"f 	c #F2F3F3",
"g 	c #FEFEFE",
"h 	c #FDFDFE",
"i 	c #F3F4F8",
"j 	c #FAFAFD",
"k 	c #FDFCFD",
"l 	c #D50402",
"m 	c #740D07",
"n 	c #361B0E",
"o 	c #332F23",
"p 	c #7F7B6D",
"q 	c #EFF2F2",
"r 	c #F7F7F7",
"s 	c #FDFDFD",
"t 	c #FFFFFF",
"u 	c #F9FBFD",
"v 	c #F2F5F9",
"w 	c #F2F1F9",
"x 	c #F51B1B",
"y 	c #F90303",
"z 	c #DE0C0A",
"A 	c #9B3230",
"B 	c #785557",
"C 	c #3F3437",
"D 	c #342C25",
"E 	c #5A5950",
"F 	c #87867D",
"G 	c #F8FBFF",
"H 	c #F6F5FA",
"I 	c #FCFAFC",
"J 	c #FE0101",
"K 	c #FB1515",
"L 	c #591410",
"M 	c #BE0908",
"N 	c #F90202",
"O 	c #E0100D",
"P 	c #EE8A87",
"Q 	c #E2C7CA",
"R 	c #B8B0B4",
"S 	c #7D7179",
"T 	c #F8FDFF",
"U 	c #8C8884",
"V 	c #BEBDB6",
"W 	c #F9F9F9",
"X 	c #E45656",
"Y 	c #DDC1C1",
"Z 	c #040404",
"` 	c #9C9A9A",
" .	c #C4C2C2",
"..	c #403F37",
"+.	c #3C3932",
"@.	c #762F2B",
"#.	c #C20D08",
"$.	c #F80201",
"%.	c #D70909",
"&.	c #5E1A16",
"*.	c #6D6C65",
"=.	c #EAEDF4",
"-.	c #F5F1F4",
";.	c #A08F8A",
">.	c #EB3D3D",
",.	c #BEA3A3",
"'.	c #5A5959",
").	c #000000",
"!.	c #686666",
"~.	c #888686",
"{.	c #D1CFCF",
"].	c #918E88",
"^.	c #4C4743",
"/.	c #423A37",
"(.	c #362E2B",
"_.	c #262219",
":.	c #5E1A15",
"<.	c #BB0605",
"[.	c #F70000",
"}.	c #FA3A3B",
"|.	c #FBBCBF",
"1.	c #3C2E24",
"2.	c #767364",
"3.	c #C9C7C7",
"4.	c #BCBABA",
"5.	c #DAD8D8",
"6.	c #1F1E1E",
"7.	c #C5C3C3",
"8.	c #515050",
"9.	c #CDCBCB",
"0.	c #67655D",
"a.	c #030000",
"b.	c #49443D",
"c.	c #393631",
"d.	c #1D1A11",
"e.	c #272516",
"f.	c #3A3727",
"g.	c #9F5C4E",
"h.	c #FB4848",
"i.	c #FD0707",
"j.	c #E82928",
"k.	c #E59FA1",
"l.	c #D7D5D5",
"m.	c #302F2F",
"n.	c #B3B1B1",
"o.	c #010101",
"p.	c #B6B4B4",
"q.	c #605F5F",
"r.	c #B7B5B5",
"s.	c #555454",
"t.	c #DBD9D9",
"u.	c #7B7976",
"v.	c #76726E",
"w.	c #353027",
"x.	c #534A3D",
"y.	c #413B2A",
"z.	c #383026",
"A.	c #3B342C",
"B.	c #49423D",
"C.	c #3F3737",
"D.	c #75312C",
"E.	c #DC1D1C",
"F.	c #FF1515",
"G.	c #DD2A2A",
"H.	c #AB6A6A",
"I.	c #8F8E8E",
"J.	c #959494",
"K.	c #363535",
"L.	c #403F3F",
"M.	c #DEDCDC",
"N.	c #BBB9B9",
"O.	c #858484",
"P.	c #838181",
"Q.	c #6C6964",
"R.	c #231F1C",
"S.	c #443D37",
"T.	c #100E07",
"U.	c #0B0A07",
"V.	c #14110A",
"W.	c #1F1E15",
"X.	c #575446",
"Y.	c #E4E6E3",
"Z.	c #F5F4F9",
"`.	c #CAC7CE",
" +	c #A55E62",
".+	c #FC3C3C",
"++	c #400000",
"@+	c #B30000",
"#+	c #F60000",
"$+	c #F03A3A",
"%+	c #521212",
"&+	c #B8B6B6",
"*+	c #BFBDBD",
"=+	c #030303",
"-+	c #C2C0C0",
";+	c #C6C4C4",
">+	c #908E8E",
",+	c #ABA9A9",
"'+	c #C7C5C5",
")+	c #020202",
"!+	c #DEDBDB",
"~+	c #050505",
"{+	c #64635C",
"]+	c #383833",
"^+	c #433A33",
"/+	c #2E271F",
"(+	c #4B432F",
"_+	c #3F382E",
":+	c #575248",
"<+	c #7B7472",
"[+	c #726B6D",
"}+	c #403531",
"|+	c #2E2927",
"1+	c #88847F",
"2+	c #E3E0E4",
"3+	c #D39092",
"4+	c #F12E2E",
"5+	c #DF0000",
"6+	c #710000",
"7+	c #730000",
"8+	c #DD0000",
"9+	c #F40000",
"0+	c #E50000",
"a+	c #8B8A8A",
"b+	c #D4D2D2",
"c+	c #565555",
"d+	c #B0AEAE",
"e+	c #9A9B93",
"f+	c #67615D",
"g+	c #393735",
"h+	c #352F2A",
"i+	c #16110E",
"j+	c #161310",
"k+	c #12100D",
"l+	c #18150F",
"m+	c #2C2B25",
"n+	c #8A8A83",
"o+	c #C7CFD2",
"p+	c #F0F2F5",
"q+	c #F3EFF1",
"r+	c #C4C1C7",
"s+	c #63554D",
"t+	c #41392B",
"u+	c #DB9493",
"v+	c #D10000",
"w+	c #650000",
"x+	c #190000",
"y+	c #2F2E27",
"z+	c #322F2B",
"A+	c #322B27",
"B+	c #232017",
"C+	c #353120",
"D+	c #323026",
"E+	c #645C4D",
"F+	c #B3B4B7",
"G+	c #C6C1C5",
"H+	c #7E777A",
"I+	c #473C3C",
"J+	c #A7A2A2",
"K+	c #C0BCC3",
"L+	c #8A857C",
"M+	c #A7A09B",
"N+	c #D6D3D4",
"O+	c #E60000",
"P+	c #DB0000",
"Q+	c #690000",
"R+	c #878581",
"S+	c #625B59",
"T+	c #4F4941",
"U+	c #39312B",
"V+	c #322C23",
"W+	c #262119",
"X+	c #231F1D",
"Y+	c #272220",
"Z+	c #231E19",
"`+	c #37312C",
" @	c #636866",
".@	c #D3D1CE",
"+@	c #F8F7F6",
"@@	c #C0BDC2",
"#@	c #968A87",
"$@	c #71645A",
"%@	c #BF0000",
"&@	c #BDBBBB",
"*@	c #D3D1D1",
"=@	c #858383",
"-@	c #7E7A74",
";@	c #150F0D",
">@	c #3E3830",
",@	c #292724",
"'@	c #1A1610",
")@	c #1D1913",
"!@	c #25211B",
"~@	c #48453B",
"{@	c #BEC3C5",
"]@	c #F6F4F5",
"^@	c #C0BFCA",
"/@	c #877D81",
"(@	c #BCB9BD",
"_@	c #6D261B",
":@	c #D31D1A",
"<@	c #FE0304",
"[@	c #FC0000",
"}@	c #DC0000",
"|@	c #939191",
"1@	c #DDDBDB",
"2@	c #787672",
"3@	c #75716C",
"4@	c #4A413B",
"5@	c #463931",
"6@	c #5A5038",
"7@	c #35302B",
"8@	c #4B4443",
"9@	c #433D3A",
"0@	c #261D1B",
"a@	c #322D28",
"b@	c #6B6765",
"c@	c #F4B5B6",
"d@	c #EC3839",
"e@	c #FC0505",
"f@	c #CA0000",
"g@	c #CFCDCD",
"h@	c #6F6E6E",
"i@	c #161616",
"j@	c #5C5C5C",
"k@	c #5D5C5C",
"l@	c #5C5B5B",
"m@	c #5E5D5D",
"n@	c #D0CECE",
"o@	c #B1AFAF",
"p@	c #24211D",
"q@	c #4D4947",
"r@	c #49403A",
"s@	c #2E251D",
"t@	c #2C271D",
"u@	c #484233",
"v@	c #4B473D",
"w@	c #8E908E",
"x@	c #CED3DF",
"y@	c #EDAFB3",
"z@	c #FA3B3B",
"A@	c #D48C8C",
"B@	c #CECBCB",
"C@	c #6E6D6D",
"D@	c #DCDADA",
"E@	c #403B37",
"F@	c #3A3631",
"G@	c #423B36",
"H@	c #312C27",
"I@	c #050300",
"J@	c #3C3631",
"K@	c #130F0D",
"L@	c #A38D90",
"M@	c #F28F92",
"N@	c #E92527",
"O@	c #F51E1F",
"P@	c #CECCCC",
"Q@	c #939292",
"R@	c #0E0E0E",
"S@	c #686767",
"T@	c #100F0F",
"U@	c #555555",
"V@	c #9B9A9A",
"W@	c #3B3634",
"X@	c #554F4B",
"Y@	c #302A26",
"Z@	c #1B1814",
"`@	c #614340",
" #	c #710907",
".#	c #E81718",
"+#	c #F12B2C",
"@#	c #785858",
"##	c #959393",
"$#	c #3B3A3A",
"%#	c #ACAAAA",
"&#	c #272626",
"*#	c #C8C6C6",
"=#	c #767372",
"-#	c #61423E",
";#	c #AD2423",
">#	c #F10303",
",#	c #E42425",
"'#	c #BB797C",
")#	c #A5A3A6",
"!#	c #440000",
"~#	c #EA0000",
"{#	c #0D0D0D",
"]#	c #4D4D4D",
"^#	c #FE0303",
"/#	c #F90404",
"(#	c #D11C1A",
"_#	c #A7625F",
":#	c #A19B9B",
"<#	c #A9A5A4",
"[#	c #CAC7C8",
"}#	c #636262",
"|#	c #9F9D9D",
"1#	c #F40303",
"2#	c #CB1614",
"3#	c #843D38",
"4#	c #B8B4B8",
"5#	c #CCCACE",
"6#	c #BABEC1",
"7#	c #CCCDD2",
"8#	c #CF0000",
"9#	c #FF0505",
"0#	c #A71F1D",
"a#	c #624340",
"b#	c #5C544D",
"c#	c #69605D",
"d#	c #A8A9AC",
"e#	c #A8A9AE",
"f#	c #AAA8AD",
"g#	c #A08181",
"h#	c #2F2B27",
"i#	c #2D2923",
"j#	c #443C38",
"k#	c #706B67",
"l#	c #958E8B",
"m#	c #B4B0AF",
"n#	c #B3B2B5",
"o#	c #948D8B",
"p#	c #372922",
"q#	c #3D362D",
"r#	c #57473F",
"s#	c #4D4945",
"t#	c #BFBCB6",
"u#	c #999599",
"v#	c #A6A0A0",
"w#	c #68635F",
"x#	c #48392F",
"y#	c #63534E",
"z#	c #443E39",
"A#	c #605854",
"B#	c #9FA0A2",
"C#	c #D2CCCC",
"D#	c #989391",
"E#	c #473027",
"F#	c #6A6465",
"G#	c #6C6A69",
"H#	c #8F8780",
"I#	c #A6A1A2",
"J#	c #B6B6B4",
"K#	c #322920",
"L#	c #47403A",
"M#	c #A8A6A7",
"N#	c #838488",
"O#	c #8B8B8E",
"P#	c #BDBBBC",
"Q#	c #191410",
"R#	c #15100F",
"S#	c #3B3837",
"T#	c #4D4B4E",
"U#	c #A3A3A6",
". . . . .                                                                                                               . . . . ",
". . . . . . .           + @ # $ % & * =                                                                             . . . . . . ",
"  . . . . . . .       - ; > , ' ) ! ~ { ] ^ /                                                                   . . . . . . .   ",
"      . . . . . . ( _ : < [ } | 1 2 3 4 5 6 7 8                                                             . . . . . . .       ",
"          . . . . . . 9 0 a b c d e f 3 g h i j k                                                     . . . . . . . .           ",
"              . . . . . . l m n o p q r s t u v w h                                               . . . . . . . .               ",
"                  x y . . . . z A B C D E F G t H I                                           . . . . . . J K                   ",
"                    L M N . . . . O P Q R S T U V W                                       . . . . . . . X Y Z `  .              ",
"                    ..+.@.#.$.. . . . %.&.*.=.-.;.                                    . . . . . . . >.,.'.).!.).~.  {.          ",
"                  ].^./.(._.:.<.[.. . . . }.|.1.2.t                               . . . . . . .     3.).4.'. .5.6.7.8.9.        ",
"                  0.a.b.c.d.e.f.g.h.i.. . . . j.k.                          . . . . . . . .     l.m.).n.o.p.  3.q.r.s.t.        ",
"                  u.v.w.x.y.z.A.B.C.D.E.. . . . . F.          ).).).    . . . . . . i.G.H.I.I.J.K.L.M.N.).      I.O.P.).        ",
"                  Q.R.S.T.U.V.W.X.Y.Z.`. +.+. . . . . .         ).++@+#+. . . . . $+%+s.&+&+*+=+-+;+  >+,+;+    '+)+!+~+        ",
"                  {+]+^+/+(+_+:+<+[+}+|+1+2+3+4+. . . . . 5+6+7+8+. . . . . 9+0+  a+s.b+    I.c+{.    I.&+        ~+M.).d+      ",
"                e+f+g+h+i+j+k+l+m+n+o+p+q+r+s+t+u+. . . . . . . . . . . v+w+x+).  a+&+      I.&+      I.&+        ~+{.*+a+      ",
"                  y+z+A+B+C+D+E+F+G+H+I+J+K+L+M+N+    O+. . . . . . P+Q+x+).).).  a+&+      I.&+      I.&+        ~+  &+a+      ",
"                R+S+T+U+V+W+X+Y+Z+`+ @.@+@@@#@$@  . . . . . . . . . . %@++).).    a+&@      I.&@      I.&+        ~+*@=@a+      ",
"                -@;@>@,@'@)@!@~@{@]@^@/@M.(@_@:@<@. . . . . [@}@. . . . . [@      I.)+b+    |@)+      I.&+        ~+1@)+'+      ",
"                2@3@4@5@6@_+7@8@9@0@a@b@c@d@e@. . . . . .     ).++f@. . . . . .   g@h@i@j@k@l@).m@b+  I.c+n@    o@).M.~+        ",
"                p@q@r@s@t@u@v@w@t x@y@z@. . . . . . .                 . . . . . . . A@B@9.9.9.9.C@)+&@g@~+D@    >+*+3.~+        ",
"                E@F@G@H@I@J@K@L@M@N@. . . . . O@                          . . . . . . .         P@Q@R@S@).O.  *@T@r.U@V@        ",
"                  W@X@Y@Z@`@ #.#. . . . . +#w+@#          ).  ).).).).).).).  . . . . . . .         t.R@##$#9.%#&#*#K.9.        ",
"                    =#-#;#>#. . . . . ,#'#)#).).        ).).        ).          !#~#. . . . . .       -+*+).{#).3.b+]#7.        ",
"                    . ^#. . . . /#(#_#:#<#[#).).        ).).        ).        ).      . . . . . . .       M.}#r.g@).|#          ",
"                . . . . . . 1#2#3#4#5#6#7#  ).  ).    ).  ).        ).        ).          8#. . . . . .           9.            ",
"            . . . . . . 9#0#a#b#c#d#e#f#    ).  ).    ).  ).        ).        ).          x+  . . . . . . .                     ",
"        . . . . . . .   g#h#i#j#k#l#m#n#    ).    ).).    ).        ).        ).          ).      . . . . . . .                 ",
"    . . . . . . .       o#p#q#r#s#t#u#v#    ).    ).).    ).        ).        ).          ).          . . . . . . .             ",
". . . . . . .             w#x#y#z#A#B#C#    ).            ).        ).          ).      ).                . . . . . . .         ",
". . . . .                 D#E#F#G#H#I#      ).            ).        ).            ).).).                      . . . . . . .     ",
". . .                   J#K#L#M#N#O#                                                                              . . . . . . . ",
".                       P#Q#R#S#T#U#                                                                                . . . . . . "};
