/* XPM */
static char * ncmpcpp_launch_xpm[] = {
"32 32 120 2",
"  	c None",
". 	c #FFFFFF",
"+ 	c #F8FFF8",
"@ 	c #EFFFEF",
"# 	c #FCFFFC",
"$ 	c #FEFFFE",
"% 	c #81FF81",
"& 	c #00FF00",
"* 	c #73FF73",
"= 	c #9FFF9F",
"- 	c #89FF89",
"; 	c #41FF41",
"> 	c #2CFF2C",
", 	c #38FF38",
"' 	c #FAFFFA",
") 	c #BBFFBB",
"! 	c #E0FFE0",
"~ 	c #25FF25",
"{ 	c #4FFF4F",
"] 	c #64FF64",
"^ 	c #D7FFD7",
"/ 	c #01FF01",
"( 	c #3FFF3F",
"_ 	c #C3FFC3",
": 	c #63FF63",
"< 	c #61FF61",
"[ 	c #56FF56",
"} 	c #51FF51",
"| 	c #FDFFFD",
"1 	c #E6FFE6",
"2 	c #E1FFE1",
"3 	c #17FF17",
"4 	c #1BFF1B",
"5 	c #78FF78",
"6 	c #75FF75",
"7 	c #F5FFF5",
"8 	c #6AFF6A",
"9 	c #D5FFD5",
"0 	c #D8FFD8",
"a 	c #02FF02",
"b 	c #0FFF0F",
"c 	c #05FF05",
"d 	c #5FFF5F",
"e 	c #8BFF8B",
"f 	c #D2FFD2",
"g 	c #BDFFBD",
"h 	c #04FF04",
"i 	c #C6FFC6",
"j 	c #0FFF00",
"k 	c #B6FFAA",
"l 	c #3DFF1D",
"m 	c #8AFF77",
"n 	c #44FF27",
"o 	c #45FF26",
"p 	c #D3FFCC",
"q 	c #0CFF00",
"r 	c #C1FFB9",
"s 	c #19FF00",
"t 	c #A0FF91",
"u 	c #2DFF0B",
"v 	c #4EFF32",
"w 	c #AEFFA1",
"x 	c #C4FFBC",
"y 	c #49FF2C",
"z 	c #3DFF1E",
"A 	c #D3FFCB",
"B 	c #B1FFA4",
"C 	c #1EFF00",
"D 	c #7AFF65",
"E 	c #2FFF0D",
"F 	c #51FF35",
"G 	c #C7FFBD",
"H 	c #65FF4C",
"I 	c #33FF12",
"J 	c #84FF70",
"K 	c #A1FF92",
"L 	c #3AFF1A",
"M 	c #6AFF52",
"N 	c #AAFF9D",
"O 	c #46FF28",
"P 	c #E9FFE6",
"Q 	c #66FF4D",
"R 	c #50FF33",
"S 	c #E6FFE2",
"T 	c #25FF01",
"U 	c #6AFF51",
"V 	c #B9FFAE",
"W 	c #28FF04",
"X 	c #B1FFA5",
"Y 	c #11FF00",
"Z 	c #EBFFE9",
"` 	c #C4FFBA",
" .	c #A6FF98",
"..	c #34FF14",
"+.	c #D8FFD2",
"@.	c #9CFF8C",
"#.	c #33FF11",
"$.	c #5AFF40",
"%.	c #B5FFAA",
"&.	c #F1FFEE",
"*.	c #A9FF9B",
"=.	c #F8FFF7",
"-.	c #4DFF30",
";.	c #F3FFF1",
">.	c #52FF35",
",.	c #B8FFAD",
"'.	c #41FF23",
").	c #37FF17",
"!.	c #DDFFD7",
"~.	c #AFFFA2",
"{.	c #DCFFD6",
"].	c #ACFF9F",
"^.	c #55FF39",
"/.	c #EEFFEC",
"(.	c #59FF3E",
"_.	c #2EFF0C",
":.	c #D0FFC8",
"<.	c #BFFFB5",
"[.	c #4DFF2F",
"}.	c #FEFFFD",
". . . . . . . . . . . . . . . . . . . . . . . . . . . . . . . . ",
". . . . . . . . . . . . . . . . . . . . . . . . . . . . . . . . ",
". . . . . . . . . . . . . . . . . . . . . . . . . . . . . . . . ",
". + @ @ @ # . $ . . . . . . . . . . . . . . . . . . . . . . . . ",
". % & & & * = . . . . . . . . . . . . . . . . . . . . . . . . . ",
". - & & & & & ; > . . $ . . . . . . . . . . . . . . . . . . . . ",
". - & & & & & & & & , . ' . . $ . . . . . . . . . . . . . . . . ",
". - & & & & & & & & & & & ) ! . . $ . . . . . . . . . . . . . . ",
". - & & & & & & & & & & & & ~ { ] . . . . . . . . . . . . . . . ",
". - & & & & & & & & & & & & & & & & ^ . . $ . . . . . . . . . . ",
". - & & & & & & & & & & & & & & & / & & ( _ . . . . . . . . . . ",
". - & & & & & & & & & & & & & & & & & & & & : < [ # . . . . . . ",
". - & & & & & & & & & & & & & & & & & & & & & & & ' . . . . . . ",
". - & & & & & & & & & & & & & & & & & & & & & & & ' . . . . . . ",
". - & & & & & & & & & & & & & & & & & & & / & & } | . . . . . . ",
". - & & & & & & & & & & & & & & & & & & & & 1 2 + . . . . . . . ",
". - & & & & & & & & & & & & & & & & 3 4 5 . $ . . . . . . . . . ",
". - & & & & & & & & & & & & & & & 6 7 . . $ . . . . . . . . . . ",
". - & & & & & & & & & & & & 8 9 0 . . . . . . . . . . . . . . . ",
". - & & & & & & & & a b c . . $ . . . . . . . . . . . . . . . . ",
". - & & & & & & & d e . . | . . . . . . . . . . . . . . . . . . ",
". - & & & & & f g . . $ . . . . . . . . . . . . . . . . . . . . ",
". e & h & i . $ . . . . . . . . . . . . . . . . . . . . . . . . ",
"$ . . . . . . . . . . . . . . . . . . . . . . . . . . . . . . . ",
". . . . . . . . . . . . . . . . . . . . . . . . . . . . . . . . ",
". . $ . . . $ . . . . . . . . . . . . . . . $ . . $ . $ . $ . . ",
". . . j k l . m n o p q r s t u v w x y z A . B B . . . s . . $ ",
". . . C D E $ F . . G H I J K L M N O P . . Q R R Q S H T U V . ",
". . . W X Y $ F Z . `  ...+.@.#.| . $.%.. . &.*.*.&.# . W $ =.. ",
". . . -.;.>.. ,.'.).!.~.. {.].^.. . /.(._.:.. <.<.. . . [.. . . ",
". . $ . . . $ . . . . . $ . . . $ $ . . . . $ . . $ . }.. $ . . ",
". . . . . . . . . . . . . . . . . . . . . . . . . . . . . . . . "};
