/* XPM */
static char * projectm_launch_xpm[] = {
"32 32 95 2",
"  	c None",
". 	c #000000",
"+ 	c #003A70",
"@ 	c #00427E",
"# 	c #2C2C2C",
"$ 	c #00427D",
"% 	c #004E96",
"& 	c #0058A8",
"* 	c #3B3B3B",
"= 	c #1F1F1F",
"- 	c #222222",
"; 	c #444444",
"> 	c #005EB4",
", 	c #00529E",
"' 	c #002344",
") 	c #0064C0",
"! 	c #00325F",
"~ 	c #454545",
"{ 	c #2E2E2E",
"] 	c #0F0F0F",
"^ 	c #474747",
"/ 	c #003E78",
"( 	c #005DB1",
"_ 	c #005FB6",
": 	c #002444",
"< 	c #0056A5",
"[ 	c #005DB2",
"} 	c #0056A3",
"| 	c #3D3D3C",
"1 	c #3D3D3D",
"2 	c #131313",
"3 	c #373737",
"4 	c #555555",
"5 	c #005CB0",
"6 	c #003C72",
"7 	c #005EB3",
"8 	c #4B4A49",
"9 	c #4B4B4B",
"0 	c #1B1B1B",
"a 	c #494949",
"b 	c #0057A6",
"c 	c #004A8C",
"d 	c #5E5E5E",
"e 	c #151515",
"f 	c #005CAF",
"g 	c #0055A2",
"h 	c #00529D",
"i 	c #3C3C3D",
"j 	c #00386B",
"k 	c #00519B",
"l 	c #004B91",
"m 	c #0055A3",
"n 	c #005BAD",
"o 	c #0057A7",
"p 	c #004584",
"q 	c #003362",
"r 	c #00294F",
"s 	c #002649",
"t 	c #003667",
"u 	c #0060B7",
"v 	c #002C56",
"w 	c #005AAD",
"x 	c #005BAF",
"y 	c #00417E",
"z 	c #00529C",
"A 	c #004687",
"B 	c #00396C",
"C 	c #005FB5",
"D 	c #003668",
"E 	c #00284E",
"F 	c #0056A4",
"G 	c #00498C",
"H 	c #004C93",
"I 	c #005AAC",
"J 	c #004C90",
"K 	c #003363",
"L 	c #00539F",
"M 	c #00509A",
"N 	c #005CB1",
"O 	c #004F97",
"P 	c #003B70",
"Q 	c #002343",
"R 	c #002F5C",
"S 	c #0059A9",
"T 	c #0058A7",
"U 	c #00386C",
"V 	c #0058A9",
"W 	c #004E94",
"X 	c #003B72",
"Y 	c #00305C",
"Z 	c #005AAB",
"` 	c #0059AA",
" .	c #004583",
"..	c #00519C",
"+.	c #005099",
"                                                                ",
"                                                                ",
"                          . . . . .                             ",
"                                    .                           ",
"                                                                ",
"                                                                ",
"                                                                ",
"                                                                ",
"                      +               @                         ",
"                #     $ %             &     * =                 ",
"              - ;     > ,           ' ) !   ~ { ]               ",
"              # ^   / ( _ :         < [ }   | 1 2               ",
"              3 4   < 5 > 6         > 5 7   8 9 0               ",
"              a     b ( 5 _       c ( ( (     d e               ",
"                    f ( [ (       g 5 ( ( h   i           .     ",
"                  j 7 5 k ( l     m 5 n 5 o                     ",
"                  f [ p q ( h   r > ( s 5 > t                   ",
"                  7 u v   w x   y 7 &   z > A                   ",
"                x ( &     f 7 B u C D   E u 7                   ",
"                F ( G     H [ C 5 (       [ [                   ",
"                I ( J     K C 5 ( L       M ( F                 ",
"              t 7 f         L ( (         N ( z                 ",
"              O ( &         P [ & Q         N (                 ",
"              7 (           R I &           S [ p               ",
"              ( C !           T p           m ( f               ",
"            & ( (                           $ [ > U             ",
"            V ( W                           X C (               ",
"          Y [ [ Z                             5 ( `             ",
"           ...M                               h ..+.r           ",
"                                                                ",
"                                                                ",
"                                                                "};
