/* XPM */
static char * smplayer_pause_mpd_play_xpm[] = {
"64 32 729 2",
"  	c None",
". 	c #979797",
"+ 	c #969696",
"@ 	c #7C7C7C",
"# 	c #8E8E8E",
"$ 	c #B0B0B0",
"% 	c #C3C3C3",
"& 	c #ADADAD",
"* 	c #000000",
"= 	c #464744",
"- 	c #828282",
"; 	c #C1C1C1",
"> 	c #D7D7D7",
", 	c #D2D2D2",
"' 	c #D0D0D0",
") 	c #D1D1D1",
"! 	c #D5D5D5",
"~ 	c #555753",
"{ 	c #181817",
"] 	c #B7B7B7",
"^ 	c #9E9E9E",
"/ 	c #CECECE",
"( 	c #8F8F8F",
"_ 	c #3A3A3A",
": 	c #E8E8E7",
"< 	c #E5E6E4",
"[ 	c #E4E5E4",
"} 	c #1D1D1C",
"| 	c #FFFFFF",
"1 	c #E2E2E1",
"2 	c #808080",
"3 	c #2C2C2C",
"4 	c #303030",
"5 	c #2F2F2F",
"6 	c #616161",
"7 	c #BBBBBB",
"8 	c #373737",
"9 	c #393939",
"0 	c #EBEBEA",
"a 	c #BFC0BD",
"b 	c #E7E8E6",
"c 	c #2E2F2D",
"d 	c #0B0C0C",
"e 	c #1D1E1F",
"f 	c #323333",
"g 	c #373736",
"h 	c #212121",
"i 	c #E1E2E0",
"j 	c #A6A8A3",
"k 	c #D4D5D2",
"l 	c #848484",
"m 	c #CBCBCB",
"n 	c #363636",
"o 	c #353535",
"p 	c #2E2E2E",
"q 	c #A0A0A0",
"r 	c #404040",
"s 	c #EDEDED",
"t 	c #CBCCCA",
"u 	c #CCCCCC",
"v 	c #EAEBEA",
"w 	c #373836",
"x 	c #2F3234",
"y 	c #484E50",
"z 	c #525A5C",
"A 	c #5E6667",
"B 	c #676B6D",
"C 	c #858585",
"D 	c #282828",
"E 	c #E5E5E4",
"F 	c #B1B2AE",
"G 	c #BBBDB9",
"H 	c #E8E9E7",
"I 	c #97A1A5",
"J 	c #A1A0A0",
"K 	c #B8B8B8",
"L 	c #A6A6A6",
"M 	c #333333",
"N 	c #313131",
"O 	c #787878",
"P 	c #B4B4B4",
"Q 	c #474747",
"R 	c #F0F1F0",
"S 	c #D8D9D6",
"T 	c #EEEFED",
"U 	c #3D3F3C",
"V 	c #5F6567",
"W 	c #61696B",
"X 	c #5C6466",
"Y 	c #5D6567",
"Z 	c #1C1C1C",
"` 	c #E9E9E8",
" .	c #BEC0BD",
"..	c #C9CAC7",
"+.	c #D3D4D2",
"@.	c #DEDFDD",
"#.	c #EAEAE9",
"$.	c #60615E",
"%.	c #909FAB",
"&.	c #98D8EF",
"*.	c #595656",
"=.	c #8C8C8C",
"-.	c #BEBEBE",
";.	c #A7A7A7",
">.	c #DFDFDF",
",.	c #727272",
"'.	c #4F4F4F",
").	c #F2F2F1",
"!.	c #DBDBDB",
"~.	c #F0F0EF",
"{.	c #4C4E4A",
"].	c #2B2D2D",
"^.	c #707778",
"/.	c #6C7274",
"(.	c #676E70",
"_.	c #606769",
":.	c #5A6264",
"<.	c #676C6D",
"[.	c #EDEDEC",
"}.	c #CCCECB",
"|.	c #D7D8D5",
"1.	c #ECEDEC",
"2.	c #8D9AAD",
"3.	c #84B0E1",
"4.	c #7FB9E9",
"5.	c #7EC7F0",
"6.	c #7BCEEB",
"7.	c #83979C",
"8.	c #6A6A6A",
"9.	c #D3D3D3",
"0.	c #9A9A9A",
"a.	c #323232",
"b.	c #7E7E7E",
"c.	c #DADADA",
"d.	c #DEDEDE",
"e.	c #DDDDDD",
"f.	c #C2C2C2",
"g.	c #F1F1F0",
"h.	c #EFEFEE",
"i.	c #757C7D",
"j.	c #6B7274",
"k.	c #646C6D",
"l.	c #5B6365",
"m.	c #919292",
"n.	c #454545",
"o.	c #F1F1F1",
"p.	c #DBDCDA",
"q.	c #ECECEB",
"r.	c #E2E3E2",
"s.	c #787976",
"t.	c #858987",
"u.	c #CCD1D2",
"v.	c #C7CDD0",
"w.	c #B8C0C3",
"x.	c #CCD1D3",
"y.	c #FFFEFE",
"z.	c #909AAC",
"A.	c #6996D7",
"B.	c #5D9ADD",
"C.	c #5CA7E3",
"D.	c #5EBAEC",
"E.	c #4FACCC",
"F.	c #49585C",
"G.	c #7D7B7B",
"H.	c #868686",
"I.	c #C5C5C5",
"J.	c #9B9B9B",
"K.	c #B5B5B5",
"L.	c #E0E0E0",
"M.	c #D9D9DA",
"N.	c #E9E9E9",
"O.	c #636363",
"P.	c #EEEFEE",
"Q.	c #828788",
"R.	c #7E8384",
"S.	c #747B7D",
"T.	c #6F7677",
"U.	c #575F61",
"V.	c #5C6567",
"W.	c #586062",
"X.	c #888A8B",
"Y.	c #B3B3B3",
"Z.	c #6C6D6D",
"`.	c #939796",
" +	c #556E75",
".+	c #61B8D6",
"++	c #42C2EF",
"@+	c #0EB2EB",
"#+	c #00AEEA",
"$+	c #00ADE9",
"%+	c #38A9CE",
"&+	c #F0F1F2",
"*+	c #7B8EB6",
"=+	c #5380C4",
"-+	c #3F7ACD",
";+	c #3782D5",
">+	c #3C97DE",
",+	c #4FB9EE",
"'+	c #5CBCDB",
")+	c #364143",
"!+	c #0E0C0C",
"~+	c #3B3B3B",
"{+	c #D9D9D9",
"]+	c #DCDCDC",
"^+	c #B3B8BA",
"/+	c #918B8B",
"(+	c #9D8C83",
"_+	c #818181",
":+	c #F4F4F4",
"<+	c #717171",
"[+	c #6E7373",
"}+	c #858A8B",
"|+	c #7D8384",
"1+	c #797F80",
"2+	c #6F7576",
"3+	c #646566",
"4+	c #595859",
"5+	c #545B5D",
"6+	c #858787",
"7+	c #AFAFAF",
"8+	c #888888",
"9+	c #C1C3C3",
"0+	c #566061",
"a+	c #5BA6BC",
"b+	c #4CCAF2",
"c+	c #16BAEE",
"d+	c #00B4ED",
"e+	c #00B2EC",
"f+	c #41ADD1",
"g+	c #F1F2F3",
"h+	c #506CA2",
"i+	c #3D67B0",
"j+	c #2861B8",
"k+	c #1860C5",
"l+	c #2579D2",
"m+	c #3A98DF",
"n+	c #51B9ED",
"o+	c #50ABC7",
"p+	c #2C3133",
"q+	c #232323",
"r+	c #383838",
"s+	c #B2AFAE",
"t+	c #9E6E59",
"u+	c #EF7E3A",
"v+	c #D2874E",
"w+	c #E1E0E0",
"x+	c #E7E7E7",
"y+	c #757575",
"z+	c #737373",
"A+	c #747475",
"B+	c #8B8F90",
"C+	c #8C9192",
"D+	c #898E8F",
"E+	c #808687",
"F+	c #777C7E",
"G+	c #737171",
"H+	c #6B6A6A",
"I+	c #575656",
"J+	c #464545",
"K+	c #25292A",
"L+	c #848688",
"M+	c #5790A0",
"N+	c #53C8EC",
"O+	c #20BDEF",
"P+	c #41ADD0",
"Q+	c #1353B3",
"R+	c #1660C5",
"S+	c #267CD4",
"T+	c #3C9ADF",
"U+	c #2A5A6F",
"V+	c #3E6773",
"W+	c #303333",
"X+	c #212020",
"Y+	c #7E8081",
"Z+	c #D66C42",
"`+	c #FF7C37",
" @	c #FD8837",
".@	c #F29141",
"+@	c #D0B9A1",
"@@	c #E7E7E6",
"#@	c #E3E3E4",
"$@	c #A7A8AD",
"%@	c #A5A7AE",
"&@	c #9FA2AA",
"*@	c #84868C",
"=@	c #6D7070",
"-@	c #909495",
";@	c #8D9192",
">@	c #808586",
",@	c #787777",
"'@	c #515151",
")@	c #444343",
"!@	c #1D1E1E",
"~@	c #636C6E",
"{@	c #5A6162",
"]@	c #888A8A",
"^@	c #7A7B7A",
"/@	c #5A7884",
"(@	c #29C0F2",
"_@	c #02B4ED",
":@	c #00B3EC",
"<@	c #153F90",
"[@	c #1354B5",
"}@	c #165FC1",
"|@	c #091E33",
"1@	c #27587C",
"2@	c #6AC6F2",
"3@	c #69B0C4",
"4@	c #3E3E3E",
"5@	c #58595A",
"6@	c #9F5A3F",
"7@	c #FF7E37",
"8@	c #FD8B34",
"9@	c #F69842",
"0@	c #EC9734",
"a@	c #C6C7CF",
"b@	c #E7E7E9",
"c@	c #E9E9F8",
"d@	c #C8C8D2",
"e@	c #919192",
"f@	c #79797A",
"g@	c #808081",
"h@	c #939697",
"i@	c #939698",
"j@	c #909394",
"k@	c #8B9091",
"l@	c #848586",
"m@	c #858383",
"n@	c #717070",
"o@	c #5E5D5D",
"p@	c #4C4C4C",
"q@	c #3D3C3C",
"r@	c #222526",
"s@	c #626A6C",
"t@	c #5F6566",
"u@	c #8E8F8F",
"v@	c #B1B1B1",
"w@	c #262626",
"x@	c #0B0D0E",
"y@	c #006484",
"z@	c #00B6F0",
"A@	c #40ADD0",
"B@	c #ECEEEE",
"C@	c #143E8D",
"D@	c #051C3E",
"E@	c #0C3975",
"F@	c #3088E0",
"G@	c #5EAEE5",
"H@	c #79CEF3",
"I@	c #7DB0BF",
"J@	c #727373",
"K@	c #5C4F4A",
"L@	c #DF7134",
"M@	c #F68A33",
"N@	c #EE9439",
"O@	c #F39C3E",
"P@	c #D8AE86",
"Q@	c #BEBFC7",
"R@	c #DDDDE6",
"S@	c #8B8C8C",
"T@	c #656565",
"U@	c #5C5B5B",
"V@	c #D6D6D9",
"W@	c #434545",
"X@	c #989B9C",
"Y@	c #96999A",
"Z@	c #929697",
"`@	c #8A8E8F",
" #	c #7F7E7E",
".#	c #585757",
"+#	c #484747",
"@#	c #282626",
"##	c #424849",
"$#	c #5B6366",
"%#	c #666A6C",
"&#	c #9B9A9A",
"*#	c #040404",
"=#	c #393735",
"-#	c #132E37",
";#	c #0099CB",
">#	c #00B5EF",
",#	c #00B4EF",
"'#	c #3FABCF",
")#	c #E6E7E8",
"!#	c #041025",
"~#	c #1356B9",
"{#	c #1D67C9",
"]#	c #5399DD",
"^#	c #70B9EA",
"/#	c #88D4F4",
"(#	c #81ADBA",
"_#	c #898988",
":#	c #86523A",
"<#	c #E1802F",
"[#	c #D78634",
"}#	c #AE8460",
"|#	c #96836C",
"1#	c #C8C8CA",
"2#	c #A8A8AA",
"3#	c #73736E",
"4#	c #666660",
"5#	c #626262",
"6#	c #585858",
"7#	c #6F6F6F",
"8#	c #A7A8AC",
"9#	c #676969",
"0#	c #9A9D9F",
"a#	c #979B9C",
"b#	c #949899",
"c#	c #898C8C",
"d#	c #878787",
"e#	c #7A7979",
"f#	c #656464",
"g#	c #525151",
"h#	c #434343",
"i#	c #202021",
"j#	c #596163",
"k#	c #5C6365",
"l#	c #656667",
"m#	c #727171",
"n#	c #626261",
"o#	c #525353",
"p#	c #417889",
"q#	c #428AA1",
"r#	c #40889F",
"s#	c #1A82A3",
"t#	c #3AAACF",
"u#	c #E0E1E2",
"v#	c #164396",
"w#	c #154CA6",
"x#	c #1959BA",
"y#	c #4D89D5",
"z#	c #6AA8E3",
"A#	c #81C2EC",
"B#	c #98DDFA",
"C#	c #7D9EA8",
"D#	c #3F4244",
"E#	c #945527",
"F#	c #8F7056",
"G#	c #757786",
"H#	c #B0B1B3",
"I#	c #D2D2D3",
"J#	c #9C9C9E",
"K#	c #8383C6",
"L#	c #7575CF",
"M#	c #6B6B6F",
"N#	c #5F5F5F",
"O#	c #8B8C8E",
"P#	c #7D7E7F",
"Q#	c #A2A4A5",
"R#	c #9C9F9F",
"S#	c #999D9E",
"T#	c #95999A",
"U#	c #8A8D8D",
"V#	c #818080",
"W#	c #747272",
"X#	c #5F5E5E",
"Y#	c #4E4E4E",
"Z#	c #292727",
"`#	c #3F4445",
" $	c #5A6163",
".$	c #D7D7D6",
"+$	c #DADDE1",
"@$	c #D3D8DD",
"#$	c #D3D7DD",
"$$	c #D3D7DC",
"%$	c #D3D6DC",
"&$	c #D1D4D9",
"*$	c #F6F5F6",
"=$	c #9EB0B6",
"-$	c #2F8CAA",
";$	c #D9DCDD",
">$	c #154395",
",$	c #5384CC",
"'$	c #679BDC",
")$	c #7DB4E6",
"!$	c #91CBEF",
"~$	c #A5DFF7",
"{$	c #5E7177",
"]$	c #656260",
"^$	c #6F6E71",
"/$	c #A7A8B0",
"($	c #B7B7BD",
"_$	c #B7B7C4",
":$	c #CCCCFF",
"<$	c #C5C5FF",
"[$	c #8D8DBB",
"}$	c #6C6C6B",
"|$	c #7A7A7A",
"1$	c #838485",
"2$	c #9DA0A1",
"3$	c #9A9E9E",
"4$	c #868A8B",
"5$	c #777676",
"6$	c #706F6F",
"7$	c #5D5C5C",
"8$	c #343333",
"9$	c #2E3232",
"0$	c #5D6566",
"a$	c #586163",
"b$	c #707072",
"c$	c #949494",
"d$	c #BDBCBC",
"e$	c #0E3478",
"f$	c #002F7B",
"g$	c #002474",
"h$	c #8E98A9",
"i$	c #A4B2B5",
"j$	c #458396",
"k$	c #D8D9DA",
"l$	c #2551A0",
"m$	c #6C97D5",
"n$	c #7AA8E1",
"o$	c #8FBEEA",
"p$	c #9BC8E4",
"q$	c #5F676B",
"r$	c #AFB0B7",
"s$	c #76777C",
"t$	c #999AA0",
"u$	c #CFD0D9",
"v$	c #BDBDBC",
"w$	c #DEDEF0",
"x$	c #E7E7FF",
"y$	c #F3F3FF",
"z$	c #CCCCE2",
"A$	c #767678",
"B$	c #747474",
"C$	c #767777",
"D$	c #9EA0A1",
"E$	c #9B9E9F",
"F$	c #969A9A",
"G$	c #929798",
"H$	c #484A4A",
"I$	c #2D2C2C",
"J$	c #161515",
"K$	c #2E3131",
"L$	c #686F71",
"M$	c #60686A",
"N$	c #575A5B",
"O$	c #929292",
"P$	c #919090",
"Q$	c #194183",
"R$	c #003D88",
"S$	c #003282",
"T$	c #919CAC",
"U$	c #B6B8B9",
"V$	c #E1E1E1",
"W$	c #708CC0",
"X$	c #7799CE",
"Y$	c #80A6DD",
"Z$	c #8CAFD8",
"`$	c #859099",
" %	c #7E8690",
".%	c #D0CFD7",
"+%	c #7A7A7D",
"@%	c #D3D4DF",
"#%	c #E3E4F2",
"$%	c #C2C2C1",
"%%	c #F3F3FE",
"&%	c #F8F8FF",
"*%	c #E8E8EF",
"=%	c #7F7F81",
"-%	c #686868",
";%	c #747473",
">%	c #515252",
",%	c #AAACAD",
"'%	c #9B9E9E",
")%	c #95999B",
"!%	c #919596",
"~%	c #8A8F90",
"{%	c #646869",
"]%	c #6A6F71",
"^%	c #787F80",
"/%	c #595D5E",
"(%	c #898989",
"_%	c #6F6F6E",
":%	c #C0BFBF",
"<%	c #B4B3B2",
"[%	c #777777",
"}%	c #889FC3",
"|%	c #8D929C",
"1%	c #8FA7C5",
"2%	c #8E99A8",
"3%	c #D4D5D9",
"4%	c #7C7B7C",
"5%	c #D8D8E3",
"6%	c #EAEBF9",
"7%	c #FCFCFF",
"8%	c #EBEBF0",
"9%	c #808083",
"0%	c #737372",
"a%	c #292929",
"b%	c #9EA1A1",
"c%	c #959899",
"d%	c #8F9395",
"e%	c #888E8F",
"f%	c #838889",
"g%	c #7A8081",
"h%	c #6E7677",
"i%	c #606566",
"j%	c #464646",
"k%	c #C5C5C4",
"l%	c #B2B1B0",
"m%	c #8D929B",
"n%	c #9EB8DC",
"o%	c #788494",
"p%	c #BEBFC8",
"q%	c #7A7A7E",
"r%	c #C3C4CC",
"s%	c #D9DAE5",
"t%	c #BFBFBE",
"u%	c #E5E6F7",
"v%	c #EEEDFF",
"w%	c #FBFBFE",
"x%	c #DBDBE9",
"y%	c #79797D",
"z%	c #676767",
"A%	c #090808",
"B%	c #999C9D",
"C%	c #949898",
"D%	c #8D9293",
"E%	c #878C8D",
"F%	c #7F8486",
"G%	c #757B7C",
"H%	c #606364",
"I%	c #444444",
"J%	c #050505",
"K%	c #595957",
"L%	c #8892A3",
"M%	c #9CA5B9",
"N%	c #A8BBDB",
"O%	c #B0C4E2",
"P%	c #8797AC",
"Q%	c #939497",
"R%	c #717275",
"S%	c #A5A6AA",
"T%	c #C0C0C7",
"U%	c #BFBEBE",
"V%	c #C8C8D8",
"W%	c #D9D9FF",
"X%	c #DADAFF",
"Y%	c #A5A5D1",
"Z%	c #6F6F70",
"`%	c #757574",
" &	c #1A1B1B",
".&	c #7F8283",
"+&	c #8A8E8E",
"@&	c #747879",
"#&	c #626363",
"$&	c #252525",
"%&	c #141413",
"&&	c #656462",
"*&	c #C0C0C0",
"=&	c #003C89",
"-&	c #003D89",
";&	c #003385",
">&	c #818D9E",
",&	c #BAC7DE",
"'&	c #8C96A2",
")&	c #6D6D6E",
"!&	c #949599",
"~&	c #ABABAF",
"{&	c #CACACC",
"]&	c #A1A1A7",
"^&	c #A7A7F4",
"/&	c #9797FF",
"(&	c #6F6F88",
"_&	c #676766",
":&	c #848485",
"<&	c #1B1B1B",
"[&	c #545454",
"}&	c #5D5D5D",
"|&	c #0E0E0D",
"1&	c #424240",
"2&	c #484745",
"3&	c #5A5958",
"4&	c #314874",
"5&	c #1B3F70",
"6&	c #1A3E70",
"7&	c #1A3D6F",
"8&	c #193E6F",
"9&	c #193D6E",
"0&	c #183D6D",
"a&	c #183C6E",
"b&	c #9298A3",
"c&	c #C4CDDE",
"d&	c #CFDAEC",
"e&	c #CED8E7",
"f&	c #A7ADB5",
"g&	c #727475",
"h&	c #99999C",
"i&	c #D0D0D3",
"j&	c #9F9FA0",
"k&	c #6E6E7E",
"l&	c #636377",
"m&	c #666663",
"n&	c #5A5A5A",
"o&	c #A1A2A6",
"p&	c #E0DFDC",
"q&	c #E1DFDB",
"r&	c #E0DDDA",
"s&	c #DEDBD8",
"t&	c #DCDAD6",
"u&	c #DBD8D3",
"v&	c #D9D6D1",
"w&	c #D6D3CE",
"x&	c #D2CEC9",
"y&	c #D7DDE9",
"z&	c #E2E8F3",
"A&	c #E5EBF2",
"B&	c #DEE0E5",
"C&	c #ACADAD",
"D&	c #B4B5BA",
"E&	c #80807F",
"F&	c #606060",
"G&	c #585758",
"H&	c #777677",
"I&	c #AEAEAE",
"J&	c #ACACAC",
"K&	c #7B7B7B",
"L&	c #EBEEF5",
"M&	c #FDFDFE",
"N&	c #EDEDFA",
"O&	c #B0B0B6",
"P&	c #7C7C7D",
"Q&	c #6E6E6E",
"R&	c #FEFEFE",
"S&	c #C5C7D0",
"T&	c #B7B9C2",
"                                                                                                                                ",
"                                                                                                                                ",
"                      . + @ # $     % &                   * *                                         =                         ",
"                        - ; > , ' ) !   ~ ~ ~ ~   ~ ~ ~ { * *                                         =                         ",
"                        ]   ^ / ' > ( _ ~ : : ~   ~ < [ } * *                                         = | 1                     ",
"                2   '   3 4 5 6 ) 7 8 9 ~ 0 a ~ % ~ a b c * *                       d e f g h         = i j k                   ",
"              l   m   n o n o p . q 8 r ~ s t ~ u ~ t v w * *                   x y z   A B   C D     = E F G t H               ",
"        I   J   K , L M n n n N O P 9 Q ~ R S ~ ' ~ S T U * *                 V   W   X Y X   (   Z   = `  ...+.@.#.| $.        ",
"      %.  &.  *.=., -.o o n o 5 ;.>.,.'.~ ).@.~ !.~ @.~.{.* * *           ].^.  /.(._.X X Y :.<.      = [.}.|.i 1.              ",
"    2.3.4.5.6.7.o 8.9.0.M 4 a.b.c.d.e.f.~ g.@.~ P ~ @.h.~ * * *               i.  j.k.Y l.Y X   m.  n.= o.p.q.r.s.t.u.v.w.x.y.  ",
"  z.  A.B.C.D.E.F.G.H.I.-.J.K.e.L.M.9.N.~ ~.~.~ O.~ P.P.~ * * *           Q.R.  S.T.(.:.U.X V.W.X.Y.Z.= | 1.`. +.+++@+#+$+%+&+  ",
"  *+  =+-+;+>+,+'+)+!+~+0.{+]+^+/+(+_+:+~ ~ ~ ~ <+~ ~ ~ ~ * * *       [+  }+Q.|+1+2+3+4+a.5+X U.6+7+8+= 9+0+a+b+c+d+d+d+e+f+g+  ",
"    h+i+j+k+l+m+n+o+p+q+r+I.s+t+u+v+w+! o.x+y+z+A+<+        * *       B+C+D+}+E+F+G+H+I+J+K+W U.L+& + = M+N+O+d+d+d+d+d+e+P+g+  ",
"          Q+R+S+T+U+V+W+X+Y+Z+`+ @.@+@Y+@@#@$@%@&@*@        * *     =@  -@;@D+>@b.,@O.'@)@!@~@{@]@7+^@/@(@_@:@d+d+d+d+d+e+f+&+  ",
"        <@  [@}@|@1@2@3@4@5@6@7@8@9@0@a@b@c@d@e@f@g@  d.    * *     h@  i@j@k@l@m@n@o@p@q@r@s@t@u@v@w@x@y@z@:@d+d+d+d+d+e+A@B@  ",
"          C@  D@E@F@G@H@I@J@K@L@M@N@O@P@Q@R@S@T@U@8.  V@    * *   W@  X@Y@Z@`@8+ #H+.#+#@###$#%#&#J.*#=#-#;#>#,#,#,#,#,#,#'#)#  ",
"            !#  ~#{#]#^#/#(#_#:#<#[#}#|#1#2#3#4#5#6#7#8#    * *   9#  0#a#b#c#d#e#f#g#h#i#j#k#l#b.m#h#n#o#p#q#q#q#q#q#r#s#t#u#  ",
"              v#w#x#y#z#A#B#C#D#E#F#G#H#I#J#K#L#M#O.N#O#    * *   P#Q#R#S#T#U#V#W#X#Y#Z#`#l. $8+.$+$@$#$#$$$%$%$%$%$&$*$=$-$;$  ",
"                >$  ,$'$)$!$~${$]$^$/$($f._$:$<$[$}$  |$    * *   1$  2$3$Y@4$5$6$7$8$9$0$a$b$c$d$e$f$f$f$f$f$f$f$f$g$h$i$j$k$  ",
"                  l$  m$n$o$p$q$r$s$t$u$v$w$x$y$z$A$T@B$    * *   C$  D$E$F$G$H$I$J$K$L$M$N$O$P$v$Q$R$R$R$R$R$R$R$R$S$T$  U$V$  ",
"                    W$X$Y$Z$`$ %.%+%@%#%$%%%&%| *%=%-%;%    * *   >%,%  '%)%!%~%{%]%^%(./%C (%_%:%Q$R$R$R$R$R$R$R$R$S$  <%[%    ",
"                        }%|%1%2%3%4%5%6%% &%7%| 8%9%-%0%    * *   a%  b%  c%d%e%f%g%h%i%[%=.j%p k%Q$R$R$R$R$R$R$R$R$S$  l%6#    ",
"                        m%  n%o%p%q%r%s%t%u%v%w%x%y%z%B$    * *   A%    B%C%D%E%F%G%H%,._+I%J%K%$%Q$R$R$R$R$R$R$R$R$S$L%        ",
"                        M%N%O%P%Q%R%S%T%U%V%W%X%Y%Z%O.`%    * *      &  .&+&  @&  #&B$-%$&%&  &&*&  =&=&=&=&=&=&=&-&;&>&        ",
"                              ,&'&)&!&~&{&]&^&/&(&_&  :&    * *       <&    [&}&T@      |&1&2&3&  4&5&6&7&8&9&9&0&a&  b&        ",
"                            c&d&e&f&g&h&i&j&k&l&m&n&-%o&    * *             D D                   p&q&r&s&t&u&v&w&  x&          ",
"                              y&z&A&B&C&D&  E&F&G&6 H&      * *                                   ;.7+7+I&I&7+& J&J&7+K&        ",
"                                L&  M&    N&O&P&Q&y+        * * *                                                               ",
"                                  R&          S&T&          * * *                                                               ",
"                                                            * * *                                                               ",
"                                                            * * *                                                               ",
"                                                              * *                                                               "};
