/* XPM */
static char * smplayer_mpd_fade_xpm[] = {
"64 32 686 2",
"  	c None",
". 	c #979797",
"+ 	c #969696",
"@ 	c #7C7C7C",
"# 	c #8E8E8E",
"$ 	c #B0B0B0",
"% 	c #C3C3C3",
"& 	c #ADADAD",
"* 	c #000000",
"= 	c #464744",
"- 	c #828282",
"; 	c #C1C1C1",
"> 	c #D7D7D7",
", 	c #D2D2D2",
"' 	c #D0D0D0",
") 	c #D1D1D1",
"! 	c #D5D5D5",
"~ 	c #555753",
"{ 	c #181817",
"] 	c #B7B7B7",
"^ 	c #9E9E9E",
"/ 	c #CECECE",
"( 	c #8F8F8F",
"_ 	c #3A3A3A",
": 	c #E8E8E7",
"< 	c #E5E6E4",
"[ 	c #E4E5E4",
"} 	c #1D1D1C",
"| 	c #FFFFFF",
"1 	c #E2E2E1",
"2 	c #808080",
"3 	c #2C2C2C",
"4 	c #303030",
"5 	c #2F2F2F",
"6 	c #616161",
"7 	c #BBBBBB",
"8 	c #373737",
"9 	c #393939",
"0 	c #EBEBEA",
"a 	c #BFC0BD",
"b 	c #E7E8E6",
"c 	c #2E2F2D",
"d 	c #0B0C0C",
"e 	c #1D1E1F",
"f 	c #323333",
"g 	c #373736",
"h 	c #212121",
"i 	c #E1E2E0",
"j 	c #A6A8A3",
"k 	c #D4D5D2",
"l 	c #848484",
"m 	c #CBCBCB",
"n 	c #363636",
"o 	c #353535",
"p 	c #2E2E2E",
"q 	c #A0A0A0",
"r 	c #404040",
"s 	c #EDEDED",
"t 	c #CBCCCA",
"u 	c #CCCCCC",
"v 	c #EAEBEA",
"w 	c #373836",
"x 	c #2F3234",
"y 	c #484E50",
"z 	c #525A5C",
"A 	c #5E6667",
"B 	c #676B6D",
"C 	c #858585",
"D 	c #282828",
"E 	c #E5E5E4",
"F 	c #B1B2AE",
"G 	c #BBBDB9",
"H 	c #E8E9E7",
"I 	c #97A1A5",
"J 	c #A1A0A0",
"K 	c #B8B8B8",
"L 	c #A6A6A6",
"M 	c #333333",
"N 	c #313131",
"O 	c #787878",
"P 	c #B4B4B4",
"Q 	c #474747",
"R 	c #F0F1F0",
"S 	c #D8D9D6",
"T 	c #EEEFED",
"U 	c #3D3F3C",
"V 	c #5F6567",
"W 	c #61696B",
"X 	c #5C6466",
"Y 	c #5D6567",
"Z 	c #1C1C1C",
"` 	c #E9E9E8",
" .	c #BEC0BD",
"..	c #C9CAC7",
"+.	c #D3D4D2",
"@.	c #DEDFDD",
"#.	c #EAEAE9",
"$.	c #60615E",
"%.	c #909FAB",
"&.	c #98D8EF",
"*.	c #595656",
"=.	c #8C8C8C",
"-.	c #BEBEBE",
";.	c #A7A7A7",
">.	c #DFDFDF",
",.	c #727272",
"'.	c #4F4F4F",
").	c #F2F2F1",
"!.	c #DBDBDB",
"~.	c #F0F0EF",
"{.	c #4C4E4A",
"].	c #2B2D2D",
"^.	c #707778",
"/.	c #6C7274",
"(.	c #676E70",
"_.	c #606769",
":.	c #5A6264",
"<.	c #676C6D",
"[.	c #EDEDEC",
"}.	c #CCCECB",
"|.	c #D7D8D5",
"1.	c #ECEDEC",
"2.	c #8D9AAD",
"3.	c #84B0E1",
"4.	c #7FB9E9",
"5.	c #7EC7F0",
"6.	c #7BCEEB",
"7.	c #83979C",
"8.	c #6A6A6A",
"9.	c #D3D3D3",
"0.	c #9A9A9A",
"a.	c #323232",
"b.	c #7E7E7E",
"c.	c #DADADA",
"d.	c #DEDEDE",
"e.	c #DDDDDD",
"f.	c #C2C2C2",
"g.	c #F1F1F0",
"h.	c #EFEFEE",
"i.	c #757C7D",
"j.	c #6B7274",
"k.	c #646C6D",
"l.	c #5B6365",
"m.	c #919292",
"n.	c #454545",
"o.	c #F1F1F1",
"p.	c #DBDCDA",
"q.	c #ECECEB",
"r.	c #E2E3E2",
"s.	c #787976",
"t.	c #858987",
"u.	c #CCD1D2",
"v.	c #C7CDD0",
"w.	c #B8C0C3",
"x.	c #CCD1D3",
"y.	c #FFFEFE",
"z.	c #909AAC",
"A.	c #6996D7",
"B.	c #5D9ADD",
"C.	c #5CA7E3",
"D.	c #5EBAEC",
"E.	c #4FACCC",
"F.	c #49585C",
"G.	c #7D7B7B",
"H.	c #868686",
"I.	c #C5C5C5",
"J.	c #9B9B9B",
"K.	c #B5B5B5",
"L.	c #E0E0E0",
"M.	c #D9D9DA",
"N.	c #E9E9E9",
"O.	c #636363",
"P.	c #EEEFEE",
"Q.	c #828788",
"R.	c #7E8384",
"S.	c #747B7D",
"T.	c #6F7677",
"U.	c #575F61",
"V.	c #5C6567",
"W.	c #586062",
"X.	c #888A8B",
"Y.	c #B3B3B3",
"Z.	c #6C6D6D",
"`.	c #939796",
" +	c #556E75",
".+	c #61B8D6",
"++	c #42C2EF",
"@+	c #0EB2EB",
"#+	c #00AEEA",
"$+	c #00ADE9",
"%+	c #38A9CE",
"&+	c #F0F1F2",
"*+	c #7B8EB6",
"=+	c #5380C4",
"-+	c #3F7ACD",
";+	c #3782D5",
">+	c #3C97DE",
",+	c #4FB9EE",
"'+	c #5CBCDB",
")+	c #364143",
"!+	c #0E0C0C",
"~+	c #3B3B3B",
"{+	c #D9D9D9",
"]+	c #DCDCDC",
"^+	c #3F3F3F",
"/+	c #020202",
"(+	c #2F302E",
"_+	c #030404",
":+	c #292A2B",
"<+	c #555859",
"[+	c #7C8283",
"}+	c #797F80",
"|+	c #6F7576",
"1+	c #646566",
"2+	c #888888",
"3+	c #C1C3C3",
"4+	c #566061",
"5+	c #5BA6BC",
"6+	c #4CCAF2",
"7+	c #16BAEE",
"8+	c #00B4ED",
"9+	c #00B2EC",
"0+	c #41ADD1",
"a+	c #F1F2F3",
"b+	c #506CA2",
"c+	c #3D67B0",
"d+	c #2861B8",
"e+	c #1860C5",
"f+	c #2579D2",
"g+	c #3A98DF",
"h+	c #51B9ED",
"i+	c #50ABC7",
"j+	c #2C3133",
"k+	c #232323",
"l+	c #383838",
"m+	c #B2AFAE",
"n+	c #EF7E3A",
"o+	c #D2874E",
"p+	c #E1E0E0",
"q+	c #E7E7E7",
"r+	c #757575",
"s+	c #737373",
"t+	c #151516",
"u+	c #464646",
"v+	c #878B8C",
"w+	c #7C8081",
"x+	c #5B5E5F",
"y+	c #1D1E1E",
"z+	c #232525",
"A+	c #73787A",
"B+	c #737171",
"C+	c #6B6A6A",
"D+	c #464545",
"E+	c #25292A",
"F+	c #848688",
"G+	c #5790A0",
"H+	c #53C8EC",
"I+	c #20BDEF",
"J+	c #41ADD0",
"K+	c #1353B3",
"L+	c #1660C5",
"M+	c #267CD4",
"N+	c #3C9ADF",
"O+	c #2A5A6F",
"P+	c #3E6773",
"Q+	c #303333",
"R+	c #212020",
"S+	c #7E8081",
"T+	c #D66C42",
"U+	c #FD8837",
"V+	c #F29141",
"W+	c #D0B9A1",
"X+	c #E7E7E6",
"Y+	c #E3E3E4",
"Z+	c #A7A8AD",
"`+	c #85878D",
" @	c #252628",
".@	c #84868C",
"+@	c #6D7070",
"@@	c #909495",
"#@	c #8D9192",
"$@	c #868B8C",
"%@	c #222324",
"&@	c #424242",
"*@	c #787777",
"=@	c #444343",
"-@	c #636C6E",
";@	c #5A6162",
">@	c #888A8A",
",@	c #AFAFAF",
"'@	c #7A7B7A",
")@	c #5A7884",
"!@	c #29C0F2",
"~@	c #02B4ED",
"{@	c #00B3EC",
"]@	c #153F90",
"^@	c #1354B5",
"/@	c #165FC1",
"(@	c #091E33",
"_@	c #27587C",
":@	c #6AC6F2",
"<@	c #69B0C4",
"[@	c #3E3E3E",
"}@	c #58595A",
"|@	c #9F5A3F",
"1@	c #FD8B34",
"2@	c #F69842",
"3@	c #EC9734",
"4@	c #C6C7CF",
"5@	c #E7E7E9",
"6@	c #E9E9F8",
"7@	c #C8C8D2",
"8@	c #4E4E4F",
"9@	c #808081",
"0@	c #606060",
"a@	c #939697",
"b@	c #939698",
"c@	c #909394",
"d@	c #8B9091",
"e@	c #666768",
"f@	c #171717",
"g@	c #717070",
"h@	c #5E5D5D",
"i@	c #3D3C3C",
"j@	c #222526",
"k@	c #626A6C",
"l@	c #5F6566",
"m@	c #8E8F8F",
"n@	c #B1B1B1",
"o@	c #262626",
"p@	c #0B0D0E",
"q@	c #006484",
"r@	c #00B6F0",
"s@	c #40ADD0",
"t@	c #ECEEEE",
"u@	c #143E8D",
"v@	c #051C3E",
"w@	c #0C3975",
"x@	c #3088E0",
"y@	c #5EAEE5",
"z@	c #79CEF3",
"A@	c #7DB0BF",
"B@	c #727373",
"C@	c #5C4F4A",
"D@	c #DDDDE6",
"E@	c #888989",
"F@	c #111111",
"G@	c #595858",
"H@	c #181818",
"I@	c #434545",
"J@	c #989B9C",
"K@	c #96999A",
"L@	c #929697",
"M@	c #8A8E8F",
"N@	c #040404",
"O@	c #585757",
"P@	c #393735",
"Q@	c #132E37",
"R@	c #0099CB",
"S@	c #00B5EF",
"T@	c #00B4EF",
"U@	c #3FABCF",
"V@	c #E6E7E8",
"W@	c #041025",
"X@	c #1356B9",
"Y@	c #1D67C9",
"Z@	c #5399DD",
"`@	c #70B9EA",
" #	c #88D4F4",
".#	c #81ADBA",
"+#	c #898988",
"@#	c #E1802F",
"##	c #D78634",
"$#	c #AE8460",
"%#	c #96836C",
"&#	c #C8C8CA",
"*#	c #A8A8AA",
"=#	c #4E4E4B",
"-#	c #30302D",
";#	c #626262",
">#	c #585858",
",#	c #6F6F6F",
"'#	c #3A3A3C",
")#	c #676969",
"!#	c #9A9D9F",
"~#	c #979B9C",
"{#	c #949899",
"]#	c #898C8C",
"^#	c #818181",
"/#	c #656464",
"(#	c #525151",
"_#	c #202021",
":#	c #596163",
"<#	c #5C6365",
"[#	c #656667",
"}#	c #727171",
"|#	c #434343",
"1#	c #626261",
"2#	c #525353",
"3#	c #417889",
"4#	c #428AA1",
"5#	c #40889F",
"6#	c #1A82A3",
"7#	c #3AAACF",
"8#	c #E0E1E2",
"9#	c #164396",
"0#	c #154CA6",
"a#	c #1959BA",
"b#	c #4D89D5",
"c#	c #6AA8E3",
"d#	c #81C2EC",
"e#	c #98DDFA",
"f#	c #7D9EA8",
"g#	c #945527",
"h#	c #8F7056",
"i#	c #757786",
"j#	c #B0B1B3",
"k#	c #D2D2D3",
"l#	c #9C9C9E",
"m#	c #28283D",
"n#	c #7D7E7F",
"o#	c #A2A4A5",
"p#	c #9C9F9F",
"q#	c #999D9E",
"r#	c #95999A",
"s#	c #8A8D8D",
"t#	c #636262",
"u#	c #151515",
"v#	c #5F5E5E",
"w#	c #4E4E4E",
"x#	c #3F4445",
"y#	c #5A6163",
"z#	c #D7D7D6",
"A#	c #DADDE1",
"B#	c #D3D8DD",
"C#	c #D3D7DD",
"D#	c #D3D7DC",
"E#	c #D3D6DC",
"F#	c #D1D4D9",
"G#	c #F6F5F6",
"H#	c #9EB0B6",
"I#	c #2F8CAA",
"J#	c #D9DCDD",
"K#	c #154395",
"L#	c #5384CC",
"M#	c #679BDC",
"N#	c #7DB4E6",
"O#	c #91CBEF",
"P#	c #A5DFF7",
"Q#	c #656260",
"R#	c #6F6E71",
"S#	c #A7A8B0",
"T#	c #B7B7BD",
"U#	c #A7A7B3",
"V#	c #0C0C0F",
"W#	c #BABAF1",
"X#	c #8D8DBB",
"Y#	c #6C6C6B",
"Z#	c #838485",
"`#	c #9DA0A1",
" $	c #9A9E9E",
".$	c #848889",
"+$	c #5D5C5C",
"@$	c #343333",
"#$	c #5D6566",
"$$	c #586163",
"%$	c #707072",
"&$	c #949494",
"*$	c #BDBCBC",
"=$	c #0E3478",
"-$	c #002F7B",
";$	c #002474",
">$	c #8E98A9",
",$	c #A4B2B5",
"'$	c #458396",
")$	c #D8D9DA",
"!$	c #2551A0",
"~$	c #6C97D5",
"{$	c #7AA8E1",
"]$	c #8FBEEA",
"^$	c #9BC8E4",
"/$	c #AFB0B7",
"($	c #76777C",
"_$	c #999AA0",
":$	c #CFD0D9",
"<$	c #BDBDBC",
"[$	c #7C7C86",
"}$	c #52525B",
"|$	c #F3F3FF",
"1$	c #CCCCE2",
"2$	c #767678",
"3$	c #656565",
"4$	c #747474",
"5$	c #767777",
"6$	c #9A9C9D",
"7$	c #8A8D8E",
"8$	c #656767",
"9$	c #212223",
"0$	c #141414",
"a$	c #2B2A2A",
"b$	c #161515",
"c$	c #2E3131",
"d$	c #60686A",
"e$	c #575A5B",
"f$	c #929292",
"g$	c #919090",
"h$	c #194183",
"i$	c #003D88",
"j$	c #003282",
"k$	c #919CAC",
"l$	c #B6B8B9",
"m$	c #E1E1E1",
"n$	c #708CC0",
"o$	c #7799CE",
"p$	c #80A6DD",
"q$	c #8CAFD8",
"r$	c #859099",
"s$	c #D0CFD7",
"t$	c #7A7A7D",
"u$	c #D3D4DF",
"v$	c #E3E4F2",
"w$	c #C2C2C1",
"x$	c #2C2C2E",
"y$	c #B5B5BB",
"z$	c #E8E8EF",
"A$	c #7F7F81",
"B$	c #686868",
"C$	c #747473",
"D$	c #121212",
"E$	c #2D2E2F",
"F$	c #5E6061",
"G$	c #898E8F",
"H$	c #646869",
"I$	c #6A6F71",
"J$	c #787F80",
"K$	c #B4B3B2",
"L$	c #777777",
"M$	c #889FC3",
"N$	c #8D929C",
"O$	c #8FA7C5",
"P$	c #8E99A8",
"Q$	c #D4D5D9",
"R$	c #7C7B7C",
"S$	c #D8D8E3",
"T$	c #EAEBF9",
"U$	c #F8F8FF",
"V$	c #FCFCFF",
"W$	c #EBEBF0",
"X$	c #808083",
"Y$	c #737372",
"Z$	c #292929",
"`$	c #9EA1A1",
" %	c #959899",
".%	c #8F9395",
"+%	c #888E8F",
"@%	c #838889",
"#%	c #7A8081",
"$%	c #6E7677",
"%%	c #606566",
"&%	c #C5C5C4",
"*%	c #B2B1B0",
"=%	c #8D929B",
"-%	c #9EB8DC",
";%	c #788494",
">%	c #BEBFC8",
",%	c #7A7A7E",
"'%	c #C3C4CC",
")%	c #D9DAE5",
"!%	c #BFBFBE",
"~%	c #E5E6F7",
"{%	c #EEEDFF",
"]%	c #FBFBFE",
"^%	c #DBDBE9",
"/%	c #79797D",
"(%	c #676767",
"_%	c #090808",
":%	c #999C9D",
"<%	c #949898",
"[%	c #8D9293",
"}%	c #878C8D",
"|%	c #7F8486",
"1%	c #757B7C",
"2%	c #606364",
"3%	c #444444",
"4%	c #050505",
"5%	c #595957",
"6%	c #8892A3",
"7%	c #9CA5B9",
"8%	c #A8BBDB",
"9%	c #B0C4E2",
"0%	c #8797AC",
"a%	c #939497",
"b%	c #717275",
"c%	c #A5A6AA",
"d%	c #C0C0C7",
"e%	c #BFBEBE",
"f%	c #C8C8D8",
"g%	c #D9D9FF",
"h%	c #DADAFF",
"i%	c #A5A5D1",
"j%	c #6F6F70",
"k%	c #757574",
"l%	c #1A1B1B",
"m%	c #7F8283",
"n%	c #8A8E8E",
"o%	c #747879",
"p%	c #626363",
"q%	c #252525",
"r%	c #141413",
"s%	c #656462",
"t%	c #C0C0C0",
"u%	c #003C89",
"v%	c #003D89",
"w%	c #003385",
"x%	c #818D9E",
"y%	c #BAC7DE",
"z%	c #8C96A2",
"A%	c #6D6D6E",
"B%	c #949599",
"C%	c #ABABAF",
"D%	c #CACACC",
"E%	c #A1A1A7",
"F%	c #A7A7F4",
"G%	c #9797FF",
"H%	c #6F6F88",
"I%	c #676766",
"J%	c #848485",
"K%	c #1B1B1B",
"L%	c #545454",
"M%	c #5D5D5D",
"N%	c #0E0E0D",
"O%	c #424240",
"P%	c #484745",
"Q%	c #5A5958",
"R%	c #314874",
"S%	c #1B3F70",
"T%	c #1A3E70",
"U%	c #1A3D6F",
"V%	c #193E6F",
"W%	c #193D6E",
"X%	c #183D6D",
"Y%	c #183C6E",
"Z%	c #9298A3",
"`%	c #C4CDDE",
" &	c #CFDAEC",
".&	c #CED8E7",
"+&	c #A7ADB5",
"@&	c #727475",
"#&	c #99999C",
"$&	c #D0D0D3",
"%&	c #9F9FA0",
"&&	c #6E6E7E",
"*&	c #636377",
"=&	c #666663",
"-&	c #5A5A5A",
";&	c #A1A2A6",
">&	c #E0DFDC",
",&	c #E1DFDB",
"'&	c #E0DDDA",
")&	c #DEDBD8",
"!&	c #DCDAD6",
"~&	c #DBD8D3",
"{&	c #D9D6D1",
"]&	c #D6D3CE",
"^&	c #D2CEC9",
"/&	c #D7DDE9",
"(&	c #E2E8F3",
"_&	c #E5EBF2",
":&	c #DEE0E5",
"<&	c #ACADAD",
"[&	c #B4B5BA",
"}&	c #80807F",
"|&	c #585758",
"1&	c #777677",
"2&	c #AEAEAE",
"3&	c #ACACAC",
"4&	c #7B7B7B",
"5&	c #EBEEF5",
"6&	c #FDFDFE",
"7&	c #EDEDFA",
"8&	c #B0B0B6",
"9&	c #7C7C7D",
"0&	c #6E6E6E",
"a&	c #FEFEFE",
"b&	c #C5C7D0",
"c&	c #B7B9C2",
"                                                                                                                                ",
"                                                                                                                                ",
"                      . + @ # $     % &                   * *                                         =                         ",
"                        - ; > , ' ) !   ~ ~ ~ ~   ~ ~ ~ { * *                                         =                         ",
"                        ]   ^ / ' > ( _ ~ : : ~   ~ < [ } * *                                         = | 1                     ",
"                2   '   3 4 5 6 ) 7 8 9 ~ 0 a ~ % ~ a b c * *                       d e f g h         = i j k                   ",
"              l   m   n o n o p . q 8 r ~ s t ~ u ~ t v w * *                   x y z   A B   C D     = E F G t H               ",
"        I   J   K , L M n n n N O P 9 Q ~ R S ~ ' ~ S T U * *                 V   W   X Y X   (   Z   = `  ...+.@.#.| $.        ",
"      %.  &.  *.=., -.o o n o 5 ;.>.,.'.~ ).@.~ !.~ @.~.{.* * *           ].^.  /.(._.X X Y :.<.      = [.}.|.i 1.              ",
"    2.3.4.5.6.7.o 8.9.0.M 4 a.b.c.d.e.f.~ g.@.~ P ~ @.h.~ * * *               i.  j.k.Y l.Y X   m.  n.= o.p.q.r.s.t.u.v.w.x.y.  ",
"  z.  A.B.C.D.E.F.G.H.I.-.J.K.e.L.M.9.N.~ ~.~.~ O.~ P.P.~ * * *           Q.R.  S.T.(.:.U.X V.W.X.Y.Z.= | 1.`. +.+++@+#+$+%+&+  ",
"  *+  =+-+;+>+,+'+)+!+~+0.{+]+* * * * * * ~ ~ ~ ^+/+(+~ ~ * * * * * * _+* :+<+[+}+|+1+* * * * * * * 2+= 3+4+5+6+7+8+8+8+9+0+a+  ",
"    b+c+d+e+f+g+h+i+j+k+l+I.m+* n+o+p+! o.q+r+s+t+u+*       * * *     v+w+x+y+z+A+B+C+* D+E+W U.F+& + = G+H+I+8+8+8+8+8+9+J+a+  ",
"          K+L+M+N+O+P+Q+R+S+T+* U+V+W+S+X+Y+Z+`+ @.@*       * * *   +@  @@#@$@%@&@*@O.* =@y+-@;@>@,@'@)@!@~@{@8+8+8+8+8+9+0+&+  ",
"        ]@  ^@/@(@_@:@<@[@}@|@* 1@2@3@4@5@6@7@^+8@9@  0@    * * *   a@  b@c@d@e@f@g@h@* i@j@k@l@m@n@o@p@q@r@{@8+8+8+8+8+9+s@t@  ",
"          u@  v@w@x@y@z@A@B@C@* * * * * * D@E@F@G@8.  H@    * * * I@  J@K@L@M@- N@C+O@* * * * * * * N@P@Q@R@S@T@T@T@T@T@T@U@V@  ",
"            W@  X@Y@Z@`@ #.#+#* @###$#%#&#*#=#-#;#>#,#'#    * * * )#  !#~#{#]#^#N@/#(#* _#:#<#[#b.}#|#1#2#3#4#4#4#4#4#5#6#7#8#  ",
"              9#0#a#b#c#d#e#f#* g#h#i#j#k#l#m#* * * * * *   * * * n#o#p#q#r#s#t#u#v#w#* x#l.y#2+z#A#B#C#C#D#E#E#E#E#F#G#H#I#J#  ",
"                K#  L#M#N#O#P#* Q#R#S#T#f.U#V#W#X#Y#  s+*   * * * Z#  `# $K@.$R+~++$@$* #$$$%$&$*$=$-$-$-$-$-$-$-$-$;$>$,$'$)$  ",
"                  !$  ~${$]$^$* /$($_$:$<$[$}$|$1$2$3$4$*   * * * 5$  6$7$8$9$0$a$b$c$* d$e$f$g$<$h$i$i$i$i$i$i$i$i$j$k$  l$m$  ",
"                    n$o$p$q$r$* s$t$u$v$w$x$y$| z$A$B$C$  * * * * * * * D$E$F$G$H$I$J$* * * * * * * i$i$i$i$i$i$i$i$j$  K$L$    ",
"                        M$N$O$P$Q$R$S$T$% U$V$| W$X$B$Y$    * *   Z$  `$   %.%+%@%#%$%%%L$=.u+p &%h$i$i$i$i$i$i$i$i$j$  *%>#    ",
"                        =%  -%;%>%,%'%)%!%~%{%]%^%/%(%4$    * *   _%    :%<%[%}%|%1%2%,.^#3%4%5%w$h$i$i$i$i$i$i$i$i$j$6%        ",
"                        7%8%9%0%a%b%c%d%e%f%g%h%i%j%O.k%    * *     l%  m%n%  o%  p%4$B$q%r%  s%t%  u%u%u%u%u%u%u%v%w%x%        ",
"                              y%z%A%B%C%D%E%F%G%H%I%  J%    * *       K%    L%M%3$      N%O%P%Q%  R%S%T%U%V%W%W%X%Y%  Z%        ",
"                            `% &.&+&@&#&$&%&&&*&=&-&B$;&    * *             D D                   >&,&'&)&!&~&{&]&  ^&          ",
"                              /&(&_&:&<&[&  }&0@|&6 1&      * *                                   ;.,@,@2&2&,@& 3&3&,@4&        ",
"                                5&  6&    7&8&9&0&r+        * * *                                                               ",
"                                  a&          b&c&          * * *                                                               ",
"                                                            * * *                                                               ",
"                                                            * * *                                                               ",
"                                                              * *                                                               "};
