/* XPM */
static char * smplayer_launch_xpm[] = {
"32 32 373 2",
"  	c None",
". 	c #979797",
"+ 	c #969696",
"@ 	c #7C7C7C",
"# 	c #8E8E8E",
"$ 	c #B0B0B0",
"% 	c #C3C3C3",
"& 	c #BBBBBB",
"* 	c #828282",
"= 	c #C1C1C1",
"- 	c #D7D7D7",
"; 	c #D2D2D2",
"> 	c #D0D0D0",
", 	c #D1D1D1",
"' 	c #D5D5D5",
") 	c #9E9E9E",
"! 	c #B7B7B7",
"~ 	c #CECECE",
"{ 	c #8F8F8F",
"] 	c #3C3C3C",
"^ 	c #404040",
"/ 	c #808080",
"( 	c #2C2C2C",
"_ 	c #303030",
": 	c #2F2F2F",
"< 	c #616161",
"[ 	c #373737",
"} 	c #363636",
"| 	c #353535",
"1 	c #333333",
"2 	c #DBDBDB",
"3 	c #848484",
"4 	c #CBCBCB",
"5 	c #2E2E2E",
"6 	c #A0A0A0",
"7 	c #2D2D2D",
"8 	c #9F9F9F",
"9 	c #E2E2E2",
"0 	c #97A1A5",
"a 	c #A1A0A0",
"b 	c #B8B8B8",
"c 	c #A6A6A6",
"d 	c #313131",
"e 	c #787878",
"f 	c #B4B4B4",
"g 	c #393939",
"h 	c #BFBFBF",
"i 	c #909FAB",
"j 	c #98D8EF",
"k 	c #595656",
"l 	c #8C8C8C",
"m 	c #BEBEBE",
"n 	c #A7A7A7",
"o 	c #DFDFDF",
"p 	c #727272",
"q 	c #7F7F7F",
"r 	c #E3E3E3",
"s 	c #E9E9E9",
"t 	c #E7E7E7",
"u 	c #8D9AAD",
"v 	c #84B0E1",
"w 	c #7FB9E9",
"x 	c #7EC7F0",
"y 	c #7BCEEB",
"z 	c #83979C",
"A 	c #6A6A6A",
"B 	c #D3D3D3",
"C 	c #9A9A9A",
"D 	c #323232",
"E 	c #7E7E7E",
"F 	c #DADADA",
"G 	c #DEDEDE",
"H 	c #DDDDDD",
"I 	c #A1A1A1",
"J 	c #AAAAAA",
"K 	c #E0E0E0",
"L 	c #909AAC",
"M 	c #6996D7",
"N 	c #5D9ADD",
"O 	c #5CA7E3",
"P 	c #5EBAEC",
"Q 	c #4FACCC",
"R 	c #49585C",
"S 	c #7D7B7B",
"T 	c #868686",
"U 	c #C5C5C5",
"V 	c #9B9B9B",
"W 	c #B5B5B5",
"X 	c #D9D9DA",
"Y 	c #E8E8E8",
"Z 	c #ECECEC",
"` 	c #EDEDED",
" .	c #B3B3B3",
"..	c #3A3A3A",
"+.	c #2B2B2B",
"@.	c #7B8EB6",
"#.	c #5380C4",
"$.	c #3F7ACD",
"%.	c #3782D5",
"&.	c #3C97DE",
"*.	c #4FB9EE",
"=.	c #5CBCDB",
"-.	c #364143",
";.	c #0E0C0C",
">.	c #3B3B3B",
",.	c #D9D9D9",
"'.	c #DCDCDC",
").	c #B3B8BA",
"!.	c #918B8B",
"~.	c #9D8C83",
"{.	c #818181",
"].	c #F0F0F0",
"^.	c #E5E5E5",
"/.	c #515151",
"(.	c #506CA2",
"_.	c #3D67B0",
":.	c #2861B8",
"<.	c #1860C5",
"[.	c #2579D2",
"}.	c #3A98DF",
"|.	c #51B9ED",
"1.	c #50ABC7",
"2.	c #2C3133",
"3.	c #232323",
"4.	c #383838",
"5.	c #B2AFAE",
"6.	c #9E6E59",
"7.	c #EF7E3A",
"8.	c #D2874E",
"9.	c #E1E0E0",
"0.	c #3A3A3B",
"a.	c #1353B3",
"b.	c #1660C5",
"c.	c #267CD4",
"d.	c #3C9ADF",
"e.	c #2A5A6F",
"f.	c #3E6773",
"g.	c #303333",
"h.	c #212020",
"i.	c #7E8081",
"j.	c #D66C42",
"k.	c #FF7C37",
"l.	c #FD8837",
"m.	c #F29141",
"n.	c #D0B9A1",
"o.	c #E7E7E6",
"p.	c #E3E3E4",
"q.	c #A7A8AD",
"r.	c #A5A7AE",
"s.	c #9FA2AA",
"t.	c #84868C",
"u.	c #153F90",
"v.	c #1354B5",
"w.	c #165FC1",
"x.	c #091E33",
"y.	c #27587C",
"z.	c #6AC6F2",
"A.	c #69B0C4",
"B.	c #3E3E3E",
"C.	c #58595A",
"D.	c #9F5A3F",
"E.	c #FF7E37",
"F.	c #FD8B34",
"G.	c #F69842",
"H.	c #EC9734",
"I.	c #C6C7CF",
"J.	c #E7E7E9",
"K.	c #E9E9F8",
"L.	c #C8C8D2",
"M.	c #919192",
"N.	c #79797A",
"O.	c #808081",
"P.	c #143E8D",
"Q.	c #051C3E",
"R.	c #0C3975",
"S.	c #3088E0",
"T.	c #5EAEE5",
"U.	c #79CEF3",
"V.	c #7DB0BF",
"W.	c #727373",
"X.	c #5C4F4A",
"Y.	c #DF7134",
"Z.	c #F68A33",
"`.	c #EE9439",
" +	c #F39C3E",
".+	c #D8AE86",
"++	c #BEBFC7",
"@+	c #DDDDE6",
"#+	c #8B8C8C",
"$+	c #656565",
"%+	c #5C5B5B",
"&+	c #D6D6D9",
"*+	c #041025",
"=+	c #1356B9",
"-+	c #1D67C9",
";+	c #5399DD",
">+	c #70B9EA",
",+	c #88D4F4",
"'+	c #81ADBA",
")+	c #898988",
"!+	c #86523A",
"~+	c #E1802F",
"{+	c #D78634",
"]+	c #AE8460",
"^+	c #96836C",
"/+	c #C8C8CA",
"(+	c #A8A8AA",
"_+	c #73736E",
":+	c #666660",
"<+	c #626262",
"[+	c #585858",
"}+	c #6F6F6F",
"|+	c #A7A8AC",
"1+	c #164396",
"2+	c #154CA6",
"3+	c #1959BA",
"4+	c #4D89D5",
"5+	c #6AA8E3",
"6+	c #81C2EC",
"7+	c #98DDFA",
"8+	c #7D9EA8",
"9+	c #3F4244",
"0+	c #945527",
"a+	c #8F7056",
"b+	c #757786",
"c+	c #B0B1B3",
"d+	c #D2D2D3",
"e+	c #9C9C9E",
"f+	c #8383C6",
"g+	c #7575CF",
"h+	c #6B6B6F",
"i+	c #636363",
"j+	c #5F5F5F",
"k+	c #8B8C8E",
"l+	c #154395",
"m+	c #5384CC",
"n+	c #679BDC",
"o+	c #7DB4E6",
"p+	c #91CBEF",
"q+	c #A5DFF7",
"r+	c #5E7177",
"s+	c #656260",
"t+	c #6F6E71",
"u+	c #A7A8B0",
"v+	c #B7B7BD",
"w+	c #C2C2C2",
"x+	c #B7B7C4",
"y+	c #CCCCFF",
"z+	c #C5C5FF",
"A+	c #8D8DBB",
"B+	c #6C6C6B",
"C+	c #7A7A7A",
"D+	c #2551A0",
"E+	c #6C97D5",
"F+	c #7AA8E1",
"G+	c #8FBEEA",
"H+	c #9BC8E4",
"I+	c #5F676B",
"J+	c #AFB0B7",
"K+	c #76777C",
"L+	c #999AA0",
"M+	c #CFD0D9",
"N+	c #BDBDBC",
"O+	c #DEDEF0",
"P+	c #E7E7FF",
"Q+	c #F3F3FF",
"R+	c #CCCCE2",
"S+	c #767678",
"T+	c #747474",
"U+	c #708CC0",
"V+	c #7799CE",
"W+	c #80A6DD",
"X+	c #8CAFD8",
"Y+	c #859099",
"Z+	c #7E8690",
"`+	c #D0CFD7",
" @	c #7A7A7D",
".@	c #D3D4DF",
"+@	c #E3E4F2",
"@@	c #C2C2C1",
"#@	c #F3F3FE",
"$@	c #F8F8FF",
"%@	c #FFFFFF",
"&@	c #E8E8EF",
"*@	c #7F7F81",
"=@	c #686868",
"-@	c #747473",
";@	c #889FC3",
">@	c #8D929C",
",@	c #8FA7C5",
"'@	c #8E99A8",
")@	c #D4D5D9",
"!@	c #7C7B7C",
"~@	c #D8D8E3",
"{@	c #EAEBF9",
"]@	c #FCFCFF",
"^@	c #EBEBF0",
"/@	c #808083",
"(@	c #737372",
"_@	c #8D929B",
":@	c #9EB8DC",
"<@	c #788494",
"[@	c #BEBFC8",
"}@	c #7A7A7E",
"|@	c #C3C4CC",
"1@	c #D9DAE5",
"2@	c #BFBFBE",
"3@	c #E5E6F7",
"4@	c #EEEDFF",
"5@	c #FBFBFE",
"6@	c #DBDBE9",
"7@	c #79797D",
"8@	c #676767",
"9@	c #9CA5B9",
"0@	c #A8BBDB",
"a@	c #B0C4E2",
"b@	c #8797AC",
"c@	c #939497",
"d@	c #717275",
"e@	c #A5A6AA",
"f@	c #C0C0C7",
"g@	c #BFBEBE",
"h@	c #C8C8D8",
"i@	c #D9D9FF",
"j@	c #DADAFF",
"k@	c #A5A5D1",
"l@	c #6F6F70",
"m@	c #757574",
"n@	c #BAC7DE",
"o@	c #8C96A2",
"p@	c #6D6D6E",
"q@	c #949599",
"r@	c #ABABAF",
"s@	c #CACACC",
"t@	c #A1A1A7",
"u@	c #A7A7F4",
"v@	c #9797FF",
"w@	c #6F6F88",
"x@	c #676766",
"y@	c #848485",
"z@	c #C4CDDE",
"A@	c #CFDAEC",
"B@	c #CED8E7",
"C@	c #A7ADB5",
"D@	c #727475",
"E@	c #99999C",
"F@	c #D0D0D3",
"G@	c #9F9FA0",
"H@	c #6E6E7E",
"I@	c #636377",
"J@	c #666663",
"K@	c #5A5A5A",
"L@	c #A1A2A6",
"M@	c #D7DDE9",
"N@	c #E2E8F3",
"O@	c #E5EBF2",
"P@	c #DEE0E5",
"Q@	c #ACADAD",
"R@	c #B4B5BA",
"S@	c #80807F",
"T@	c #606060",
"U@	c #585758",
"V@	c #777677",
"W@	c #EBEEF5",
"X@	c #FDFDFE",
"Y@	c #EDEDFA",
"Z@	c #B0B0B6",
"`@	c #7C7C7D",
" #	c #6E6E6E",
".#	c #757575",
"+#	c #FEFEFE",
"@#	c #C5C7D0",
"##	c #B7B9C2",
"                                                                ",
"                                                                ",
"                        . + @ # $     % &                       ",
"                          * = - ; > , '   ) !                   ",
"                          !   ) ~ > - { ]   ^ )                 ",
"                  /   >   ( _ : < , & [ } | | 1   2             ",
"                3   4   } | } | 5 . 6 [ } } } 7 8 9 2           ",
"          0   a   b ; c 1 } } } d e f g | } | 1 h 9             ",
"        i   j   k l ; m | | } | : n o p 1 : | q r s t 9         ",
"      u v w x y z | A B C 1 _ D E F G H m I h t o J   s K       ",
"    L   M N O P Q R S T U m V W H K X B Y Z `  ...7 +.  o       ",
"    @.  #.$.%.&.*.=.-.;.>.C ,.'.).!.~.{.].Z ^./.| |             ",
"      (._.:.<.[.}.|.1.2.3.4.U 5.6.7.8.9.4 Z G >.4.0.}           ",
"            a.b.c.d.e.f.g.h.i.j.k.l.m.n.i.o.p.q.r.s.t.          ",
"          u.  v.w.x.y.z.A.B.C.D.E.F.G.H.I.J.K.L.M.N.O.  G       ",
"            P.  Q.R.S.T.U.V.W.X.Y.Z.`. +.+++@+#+$+%+A   &+      ",
"              *+  =+-+;+>+,+'+)+!+~+{+]+^+/+(+_+:+<+[+}+|+      ",
"                1+2+3+4+5+6+7+8+9+0+a+b+c+d+e+f+g+h+i+j+k+      ",
"                  l+  m+n+o+p+q+r+s+t+u+v+w+x+y+z+A+B+  C+      ",
"                    D+  E+F+G+H+I+J+K+L+M+N+O+P+Q+R+S+$+T+      ",
"                      U+V+W+X+Y+Z+`+ @.@+@@@#@$@%@&@*@=@-@      ",
"                          ;@>@,@'@)@!@~@{@% $@]@%@^@/@=@(@      ",
"                          _@  :@<@[@}@|@1@2@3@4@5@6@7@8@T+      ",
"                          9@0@a@b@c@d@e@f@g@h@i@j@k@l@i+m@      ",
"                                n@o@p@q@r@s@t@u@v@w@x@  y@      ",
"                              z@A@B@C@D@E@F@G@H@I@J@K@=@L@      ",
"                                M@N@O@P@Q@R@  S@T@U@< V@        ",
"                                  W@  X@    Y@Z@`@ #.#          ",
"                                    +#          @###            ",
"                                                                ",
"                                                                ",
"                                                                "};
